<?xml version="1.0" encoding="utf-8"?>
<svg xmlns="http://www.w3.org/2000/svg" xmlns:xlink="http://www.w3.org/1999/xlink" width="600" height="400" viewBox="0 0 2400 1600">
<defs>
  <clipPath id="clip940">
    <rect x="0" y="0" width="2400" height="1600"/>
  </clipPath>
</defs>
<path clip-path="url(#clip940)" d="M0 1600 L2400 1600 L2400 0 L0 0  Z" fill="#ffffff" fill-rule="evenodd" fill-opacity="1"/>
<defs>
  <clipPath id="clip941">
    <rect x="480" y="0" width="1681" height="1600"/>
  </clipPath>
</defs>
<path clip-path="url(#clip940)" d="M203.964 1423.18 L2352.76 1423.18 L2352.76 47.2441 L203.964 47.2441  Z" fill="#ffffff" fill-rule="evenodd" fill-opacity="1"/>
<defs>
  <clipPath id="clip942">
    <rect x="203" y="47" width="2150" height="1377"/>
  </clipPath>
</defs>
<polyline clip-path="url(#clip942)" style="stroke:#000000; stroke-linecap:round; stroke-linejoin:round; stroke-width:2; stroke-opacity:0.1; fill:none" points="691.55,1423.18 691.55,47.2441 "/>
<polyline clip-path="url(#clip942)" style="stroke:#000000; stroke-linecap:round; stroke-linejoin:round; stroke-width:2; stroke-opacity:0.1; fill:none" points="1225.01,1423.18 1225.01,47.2441 "/>
<polyline clip-path="url(#clip942)" style="stroke:#000000; stroke-linecap:round; stroke-linejoin:round; stroke-width:2; stroke-opacity:0.1; fill:none" points="1758.48,1423.18 1758.48,47.2441 "/>
<polyline clip-path="url(#clip942)" style="stroke:#000000; stroke-linecap:round; stroke-linejoin:round; stroke-width:2; stroke-opacity:0.1; fill:none" points="2291.94,1423.18 2291.94,47.2441 "/>
<polyline clip-path="url(#clip942)" style="stroke:#000000; stroke-linecap:round; stroke-linejoin:round; stroke-width:2; stroke-opacity:0.1; fill:none" points="203.964,1402.01 2352.76,1402.01 "/>
<polyline clip-path="url(#clip942)" style="stroke:#000000; stroke-linecap:round; stroke-linejoin:round; stroke-width:2; stroke-opacity:0.1; fill:none" points="203.964,1098.65 2352.76,1098.65 "/>
<polyline clip-path="url(#clip942)" style="stroke:#000000; stroke-linecap:round; stroke-linejoin:round; stroke-width:2; stroke-opacity:0.1; fill:none" points="203.964,795.292 2352.76,795.292 "/>
<polyline clip-path="url(#clip942)" style="stroke:#000000; stroke-linecap:round; stroke-linejoin:round; stroke-width:2; stroke-opacity:0.1; fill:none" points="203.964,491.931 2352.76,491.931 "/>
<polyline clip-path="url(#clip942)" style="stroke:#000000; stroke-linecap:round; stroke-linejoin:round; stroke-width:2; stroke-opacity:0.1; fill:none" points="203.964,188.57 2352.76,188.57 "/>
<polyline clip-path="url(#clip940)" style="stroke:#000000; stroke-linecap:round; stroke-linejoin:round; stroke-width:4; stroke-opacity:1; fill:none" points="203.964,1423.18 2352.76,1423.18 "/>
<polyline clip-path="url(#clip940)" style="stroke:#000000; stroke-linecap:round; stroke-linejoin:round; stroke-width:4; stroke-opacity:1; fill:none" points="691.55,1423.18 691.55,1404.28 "/>
<polyline clip-path="url(#clip940)" style="stroke:#000000; stroke-linecap:round; stroke-linejoin:round; stroke-width:4; stroke-opacity:1; fill:none" points="1225.01,1423.18 1225.01,1404.28 "/>
<polyline clip-path="url(#clip940)" style="stroke:#000000; stroke-linecap:round; stroke-linejoin:round; stroke-width:4; stroke-opacity:1; fill:none" points="1758.48,1423.18 1758.48,1404.28 "/>
<polyline clip-path="url(#clip940)" style="stroke:#000000; stroke-linecap:round; stroke-linejoin:round; stroke-width:4; stroke-opacity:1; fill:none" points="2291.94,1423.18 2291.94,1404.28 "/>
<path clip-path="url(#clip940)" d="M681.827 1451.02 L700.184 1451.02 L700.184 1454.96 L686.11 1454.96 L686.11 1463.43 Q687.128 1463.08 688.147 1462.92 Q689.165 1462.73 690.184 1462.73 Q695.971 1462.73 699.35 1465.9 Q702.73 1469.08 702.73 1474.49 Q702.73 1480.07 699.258 1483.17 Q695.786 1486.25 689.466 1486.25 Q687.29 1486.25 685.022 1485.88 Q682.776 1485.51 680.369 1484.77 L680.369 1480.07 Q682.452 1481.2 684.675 1481.76 Q686.897 1482.32 689.374 1482.32 Q693.378 1482.32 695.716 1480.21 Q698.054 1478.1 698.054 1474.49 Q698.054 1470.88 695.716 1468.77 Q693.378 1466.67 689.374 1466.67 Q687.499 1466.67 685.624 1467.08 Q683.772 1467.5 681.827 1468.38 L681.827 1451.02 Z" fill="#000000" fill-rule="nonzero" fill-opacity="1" /><path clip-path="url(#clip940)" d="M1199.7 1481.64 L1207.34 1481.64 L1207.34 1455.28 L1199.03 1456.95 L1199.03 1452.69 L1207.29 1451.02 L1211.97 1451.02 L1211.97 1481.64 L1219.61 1481.64 L1219.61 1485.58 L1199.7 1485.58 L1199.7 1481.64 Z" fill="#000000" fill-rule="nonzero" fill-opacity="1" /><path clip-path="url(#clip940)" d="M1239.05 1454.1 Q1235.44 1454.1 1233.61 1457.66 Q1231.81 1461.2 1231.81 1468.33 Q1231.81 1475.44 1233.61 1479.01 Q1235.44 1482.55 1239.05 1482.55 Q1242.69 1482.55 1244.49 1479.01 Q1246.32 1475.44 1246.32 1468.33 Q1246.32 1461.2 1244.49 1457.66 Q1242.69 1454.1 1239.05 1454.1 M1239.05 1450.39 Q1244.86 1450.39 1247.92 1455 Q1251 1459.58 1251 1468.33 Q1251 1477.06 1247.92 1481.67 Q1244.86 1486.25 1239.05 1486.25 Q1233.24 1486.25 1230.16 1481.67 Q1227.11 1477.06 1227.11 1468.33 Q1227.11 1459.58 1230.16 1455 Q1233.24 1450.39 1239.05 1450.39 Z" fill="#000000" fill-rule="nonzero" fill-opacity="1" /><path clip-path="url(#clip940)" d="M1733.66 1481.64 L1741.3 1481.64 L1741.3 1455.28 L1732.99 1456.95 L1732.99 1452.69 L1741.26 1451.02 L1745.93 1451.02 L1745.93 1481.64 L1753.57 1481.64 L1753.57 1485.58 L1733.66 1485.58 L1733.66 1481.64 Z" fill="#000000" fill-rule="nonzero" fill-opacity="1" /><path clip-path="url(#clip940)" d="M1763.06 1451.02 L1781.42 1451.02 L1781.42 1454.96 L1767.34 1454.96 L1767.34 1463.43 Q1768.36 1463.08 1769.38 1462.92 Q1770.4 1462.73 1771.42 1462.73 Q1777.2 1462.73 1780.58 1465.9 Q1783.96 1469.08 1783.96 1474.49 Q1783.96 1480.07 1780.49 1483.17 Q1777.02 1486.25 1770.7 1486.25 Q1768.52 1486.25 1766.25 1485.88 Q1764.01 1485.51 1761.6 1484.77 L1761.6 1480.07 Q1763.69 1481.2 1765.91 1481.76 Q1768.13 1482.32 1770.61 1482.32 Q1774.61 1482.32 1776.95 1480.21 Q1779.29 1478.1 1779.29 1474.49 Q1779.29 1470.88 1776.95 1468.77 Q1774.61 1466.67 1770.61 1466.67 Q1768.73 1466.67 1766.86 1467.08 Q1765 1467.5 1763.06 1468.38 L1763.06 1451.02 Z" fill="#000000" fill-rule="nonzero" fill-opacity="1" /><path clip-path="url(#clip940)" d="M2270.71 1481.64 L2287.03 1481.64 L2287.03 1485.58 L2265.09 1485.58 L2265.09 1481.64 Q2267.75 1478.89 2272.33 1474.26 Q2276.94 1469.61 2278.12 1468.27 Q2280.37 1465.74 2281.25 1464.01 Q2282.15 1462.25 2282.15 1460.56 Q2282.15 1457.8 2280.2 1456.07 Q2278.28 1454.33 2275.18 1454.33 Q2272.98 1454.33 2270.53 1455.09 Q2268.1 1455.86 2265.32 1457.41 L2265.32 1452.69 Q2268.14 1451.55 2270.6 1450.97 Q2273.05 1450.39 2275.09 1450.39 Q2280.46 1450.39 2283.65 1453.08 Q2286.85 1455.77 2286.85 1460.26 Q2286.85 1462.39 2286.04 1464.31 Q2285.25 1466.2 2283.14 1468.8 Q2282.57 1469.47 2279.46 1472.69 Q2276.36 1475.88 2270.71 1481.64 Z" fill="#000000" fill-rule="nonzero" fill-opacity="1" /><path clip-path="url(#clip940)" d="M2306.85 1454.1 Q2303.24 1454.1 2301.41 1457.66 Q2299.6 1461.2 2299.6 1468.33 Q2299.6 1475.44 2301.41 1479.01 Q2303.24 1482.55 2306.85 1482.55 Q2310.48 1482.55 2312.29 1479.01 Q2314.12 1475.44 2314.12 1468.33 Q2314.12 1461.2 2312.29 1457.66 Q2310.48 1454.1 2306.85 1454.1 M2306.85 1450.39 Q2312.66 1450.39 2315.71 1455 Q2318.79 1459.58 2318.79 1468.33 Q2318.79 1477.06 2315.71 1481.67 Q2312.66 1486.25 2306.85 1486.25 Q2301.04 1486.25 2297.96 1481.67 Q2294.9 1477.06 2294.9 1468.33 Q2294.9 1459.58 2297.96 1455 Q2301.04 1450.39 2306.85 1450.39 Z" fill="#000000" fill-rule="nonzero" fill-opacity="1" /><path clip-path="url(#clip940)" d="M1146.08 1520.52 L1152.51 1520.52 L1152.51 1568.04 L1146.08 1568.04 L1146.08 1520.52 Z" fill="#000000" fill-rule="nonzero" fill-opacity="1" /><path clip-path="url(#clip940)" d="M1170.84 1522.27 L1170.84 1532.4 L1182.91 1532.4 L1182.91 1536.95 L1170.84 1536.95 L1170.84 1556.3 Q1170.84 1560.66 1172.02 1561.9 Q1173.23 1563.14 1176.89 1563.14 L1182.91 1563.14 L1182.91 1568.04 L1176.89 1568.04 Q1170.11 1568.04 1167.53 1565.53 Q1164.95 1562.98 1164.95 1556.3 L1164.95 1536.95 L1160.66 1536.95 L1160.66 1532.4 L1164.95 1532.4 L1164.95 1522.27 L1170.84 1522.27 Z" fill="#000000" fill-rule="nonzero" fill-opacity="1" /><path clip-path="url(#clip940)" d="M1221.1 1548.76 L1221.1 1551.62 L1194.17 1551.62 Q1194.56 1557.67 1197.8 1560.85 Q1201.08 1564 1206.9 1564 Q1210.28 1564 1213.43 1563.17 Q1216.61 1562.35 1219.73 1560.69 L1219.73 1566.23 Q1216.58 1567.57 1213.27 1568.27 Q1209.96 1568.97 1206.55 1568.97 Q1198.02 1568.97 1193.03 1564 Q1188.06 1559.04 1188.06 1550.57 Q1188.06 1541.82 1192.77 1536.69 Q1197.52 1531.54 1205.54 1531.54 Q1212.73 1531.54 1216.9 1536.18 Q1221.1 1540.8 1221.1 1548.76 M1215.24 1547.04 Q1215.18 1542.23 1212.54 1539.37 Q1209.93 1536.5 1205.6 1536.5 Q1200.7 1536.5 1197.74 1539.27 Q1194.81 1542.04 1194.36 1547.07 L1215.24 1547.04 Z" fill="#000000" fill-rule="nonzero" fill-opacity="1" /><path clip-path="url(#clip940)" d="M1251.37 1537.87 Q1250.38 1537.3 1249.2 1537.04 Q1248.06 1536.76 1246.66 1536.76 Q1241.69 1536.76 1239.02 1540 Q1236.38 1543.22 1236.38 1549.27 L1236.38 1568.04 L1230.49 1568.04 L1230.49 1532.4 L1236.38 1532.4 L1236.38 1537.93 Q1238.22 1534.69 1241.18 1533.13 Q1244.14 1531.54 1248.38 1531.54 Q1248.98 1531.54 1249.71 1531.63 Q1250.45 1531.7 1251.34 1531.85 L1251.37 1537.87 Z" fill="#000000" fill-rule="nonzero" fill-opacity="1" /><path clip-path="url(#clip940)" d="M1273.71 1550.12 Q1266.62 1550.12 1263.88 1551.75 Q1261.14 1553.37 1261.14 1557.29 Q1261.14 1560.4 1263.18 1562.25 Q1265.25 1564.07 1268.78 1564.07 Q1273.65 1564.07 1276.58 1560.63 Q1279.54 1557.16 1279.54 1551.43 L1279.54 1550.12 L1273.71 1550.12 M1285.39 1547.71 L1285.39 1568.04 L1279.54 1568.04 L1279.54 1562.63 Q1277.53 1565.88 1274.54 1567.44 Q1271.55 1568.97 1267.22 1568.97 Q1261.75 1568.97 1258.5 1565.91 Q1255.28 1562.82 1255.28 1557.67 Q1255.28 1551.65 1259.29 1548.6 Q1263.34 1545.54 1271.33 1545.54 L1279.54 1545.54 L1279.54 1544.97 Q1279.54 1540.93 1276.86 1538.73 Q1274.22 1536.5 1269.42 1536.5 Q1266.36 1536.5 1263.46 1537.23 Q1260.57 1537.97 1257.89 1539.43 L1257.89 1534.02 Q1261.11 1532.78 1264.13 1532.17 Q1267.16 1531.54 1270.02 1531.54 Q1277.75 1531.54 1281.57 1535.55 Q1285.39 1539.56 1285.39 1547.71 Z" fill="#000000" fill-rule="nonzero" fill-opacity="1" /><path clip-path="url(#clip940)" d="M1303.25 1522.27 L1303.25 1532.4 L1315.31 1532.4 L1315.31 1536.95 L1303.25 1536.95 L1303.25 1556.3 Q1303.25 1560.66 1304.43 1561.9 Q1305.64 1563.14 1309.3 1563.14 L1315.31 1563.14 L1315.31 1568.04 L1309.3 1568.04 Q1302.52 1568.04 1299.94 1565.53 Q1297.36 1562.98 1297.36 1556.3 L1297.36 1536.95 L1293.06 1536.95 L1293.06 1532.4 L1297.36 1532.4 L1297.36 1522.27 L1303.25 1522.27 Z" fill="#000000" fill-rule="nonzero" fill-opacity="1" /><path clip-path="url(#clip940)" d="M1323.02 1532.4 L1328.87 1532.4 L1328.87 1568.04 L1323.02 1568.04 L1323.02 1532.4 M1323.02 1518.52 L1328.87 1518.52 L1328.87 1525.93 L1323.02 1525.93 L1323.02 1518.52 Z" fill="#000000" fill-rule="nonzero" fill-opacity="1" /><path clip-path="url(#clip940)" d="M1354.94 1536.5 Q1350.23 1536.5 1347.49 1540.19 Q1344.75 1543.85 1344.75 1550.25 Q1344.75 1556.65 1347.46 1560.34 Q1350.2 1564 1354.94 1564 Q1359.62 1564 1362.36 1560.31 Q1365.09 1556.62 1365.09 1550.25 Q1365.09 1543.92 1362.36 1540.23 Q1359.62 1536.5 1354.94 1536.5 M1354.94 1531.54 Q1362.58 1531.54 1366.94 1536.5 Q1371.3 1541.47 1371.3 1550.25 Q1371.3 1559 1366.94 1564 Q1362.58 1568.97 1354.94 1568.97 Q1347.27 1568.97 1342.91 1564 Q1338.58 1559 1338.58 1550.25 Q1338.58 1541.47 1342.91 1536.5 Q1347.27 1531.54 1354.94 1531.54 Z" fill="#000000" fill-rule="nonzero" fill-opacity="1" /><path clip-path="url(#clip940)" d="M1410.64 1546.53 L1410.64 1568.04 L1404.78 1568.04 L1404.78 1546.72 Q1404.78 1541.66 1402.81 1539.14 Q1400.84 1536.63 1396.89 1536.63 Q1392.15 1536.63 1389.41 1539.65 Q1386.67 1542.68 1386.67 1547.9 L1386.67 1568.04 L1380.78 1568.04 L1380.78 1532.4 L1386.67 1532.4 L1386.67 1537.93 Q1388.77 1534.72 1391.61 1533.13 Q1394.47 1531.54 1398.19 1531.54 Q1404.34 1531.54 1407.49 1535.36 Q1410.64 1539.14 1410.64 1546.53 Z" fill="#000000" fill-rule="nonzero" fill-opacity="1" /><polyline clip-path="url(#clip940)" style="stroke:#000000; stroke-linecap:round; stroke-linejoin:round; stroke-width:4; stroke-opacity:1; fill:none" points="203.964,1423.18 203.964,47.2441 "/>
<polyline clip-path="url(#clip940)" style="stroke:#000000; stroke-linecap:round; stroke-linejoin:round; stroke-width:4; stroke-opacity:1; fill:none" points="203.964,1402.01 222.861,1402.01 "/>
<polyline clip-path="url(#clip940)" style="stroke:#000000; stroke-linecap:round; stroke-linejoin:round; stroke-width:4; stroke-opacity:1; fill:none" points="203.964,1098.65 222.861,1098.65 "/>
<polyline clip-path="url(#clip940)" style="stroke:#000000; stroke-linecap:round; stroke-linejoin:round; stroke-width:4; stroke-opacity:1; fill:none" points="203.964,795.292 222.861,795.292 "/>
<polyline clip-path="url(#clip940)" style="stroke:#000000; stroke-linecap:round; stroke-linejoin:round; stroke-width:4; stroke-opacity:1; fill:none" points="203.964,491.931 222.861,491.931 "/>
<polyline clip-path="url(#clip940)" style="stroke:#000000; stroke-linecap:round; stroke-linejoin:round; stroke-width:4; stroke-opacity:1; fill:none" points="203.964,188.57 222.861,188.57 "/>
<path clip-path="url(#clip940)" d="M156.019 1387.81 Q152.408 1387.81 150.579 1391.38 Q148.774 1394.92 148.774 1402.05 Q148.774 1409.15 150.579 1412.72 Q152.408 1416.26 156.019 1416.26 Q159.653 1416.26 161.459 1412.72 Q163.288 1409.15 163.288 1402.05 Q163.288 1394.92 161.459 1391.38 Q159.653 1387.81 156.019 1387.81 M156.019 1384.11 Q161.829 1384.11 164.885 1388.71 Q167.964 1393.3 167.964 1402.05 Q167.964 1410.77 164.885 1415.38 Q161.829 1419.96 156.019 1419.96 Q150.209 1419.96 147.13 1415.38 Q144.075 1410.77 144.075 1402.05 Q144.075 1393.3 147.13 1388.71 Q150.209 1384.11 156.019 1384.11 Z" fill="#000000" fill-rule="nonzero" fill-opacity="1" /><path clip-path="url(#clip940)" d="M147.061 1081.37 L165.417 1081.37 L165.417 1085.31 L151.343 1085.31 L151.343 1093.78 Q152.362 1093.43 153.38 1093.27 Q154.399 1093.09 155.417 1093.09 Q161.204 1093.09 164.584 1096.26 Q167.964 1099.43 167.964 1104.84 Q167.964 1110.42 164.491 1113.53 Q161.019 1116.6 154.7 1116.6 Q152.524 1116.6 150.255 1116.23 Q148.01 1115.86 145.603 1115.12 L145.603 1110.42 Q147.686 1111.56 149.908 1112.11 Q152.13 1112.67 154.607 1112.67 Q158.612 1112.67 160.95 1110.56 Q163.288 1108.46 163.288 1104.84 Q163.288 1101.23 160.95 1099.13 Q158.612 1097.02 154.607 1097.02 Q152.732 1097.02 150.857 1097.44 Q149.005 1097.85 147.061 1098.73 L147.061 1081.37 Z" fill="#000000" fill-rule="nonzero" fill-opacity="1" /><path clip-path="url(#clip940)" d="M116.668 808.636 L124.306 808.636 L124.306 782.271 L115.996 783.938 L115.996 779.678 L124.26 778.012 L128.936 778.012 L128.936 808.636 L136.575 808.636 L136.575 812.572 L116.668 812.572 L116.668 808.636 Z" fill="#000000" fill-rule="nonzero" fill-opacity="1" /><path clip-path="url(#clip940)" d="M156.019 781.09 Q152.408 781.09 150.579 784.655 Q148.774 788.197 148.774 795.326 Q148.774 802.433 150.579 805.998 Q152.408 809.539 156.019 809.539 Q159.653 809.539 161.459 805.998 Q163.288 802.433 163.288 795.326 Q163.288 788.197 161.459 784.655 Q159.653 781.09 156.019 781.09 M156.019 777.387 Q161.829 777.387 164.885 781.993 Q167.964 786.576 167.964 795.326 Q167.964 804.053 164.885 808.66 Q161.829 813.243 156.019 813.243 Q150.209 813.243 147.13 808.66 Q144.075 804.053 144.075 795.326 Q144.075 786.576 147.13 781.993 Q150.209 777.387 156.019 777.387 Z" fill="#000000" fill-rule="nonzero" fill-opacity="1" /><path clip-path="url(#clip940)" d="M117.663 505.276 L125.302 505.276 L125.302 478.91 L116.992 480.577 L116.992 476.317 L125.255 474.651 L129.931 474.651 L129.931 505.276 L137.57 505.276 L137.57 509.211 L117.663 509.211 L117.663 505.276 Z" fill="#000000" fill-rule="nonzero" fill-opacity="1" /><path clip-path="url(#clip940)" d="M147.061 474.651 L165.417 474.651 L165.417 478.586 L151.343 478.586 L151.343 487.058 Q152.362 486.711 153.38 486.549 Q154.399 486.364 155.417 486.364 Q161.204 486.364 164.584 489.535 Q167.964 492.706 167.964 498.123 Q167.964 503.702 164.491 506.803 Q161.019 509.882 154.7 509.882 Q152.524 509.882 150.255 509.512 Q148.01 509.141 145.603 508.401 L145.603 503.702 Q147.686 504.836 149.908 505.391 Q152.13 505.947 154.607 505.947 Q158.612 505.947 160.95 503.84 Q163.288 501.734 163.288 498.123 Q163.288 494.512 160.95 492.405 Q158.612 490.299 154.607 490.299 Q152.732 490.299 150.857 490.716 Q149.005 491.132 147.061 492.012 L147.061 474.651 Z" fill="#000000" fill-rule="nonzero" fill-opacity="1" /><path clip-path="url(#clip940)" d="M119.885 201.915 L136.204 201.915 L136.204 205.85 L114.26 205.85 L114.26 201.915 Q116.922 199.16 121.505 194.531 Q126.112 189.878 127.292 188.535 Q129.538 186.012 130.417 184.276 Q131.32 182.517 131.32 180.827 Q131.32 178.072 129.376 176.336 Q127.455 174.6 124.353 174.6 Q122.154 174.6 119.7 175.364 Q117.269 176.128 114.492 177.679 L114.492 172.957 Q117.316 171.822 119.769 171.244 Q122.223 170.665 124.26 170.665 Q129.63 170.665 132.825 173.35 Q136.019 176.035 136.019 180.526 Q136.019 182.656 135.209 184.577 Q134.422 186.475 132.316 189.068 Q131.737 189.739 128.635 192.957 Q125.533 196.151 119.885 201.915 Z" fill="#000000" fill-rule="nonzero" fill-opacity="1" /><path clip-path="url(#clip940)" d="M156.019 174.369 Q152.408 174.369 150.579 177.933 Q148.774 181.475 148.774 188.605 Q148.774 195.711 150.579 199.276 Q152.408 202.818 156.019 202.818 Q159.653 202.818 161.459 199.276 Q163.288 195.711 163.288 188.605 Q163.288 181.475 161.459 177.933 Q159.653 174.369 156.019 174.369 M156.019 170.665 Q161.829 170.665 164.885 175.271 Q167.964 179.855 167.964 188.605 Q167.964 197.331 164.885 201.938 Q161.829 206.521 156.019 206.521 Q150.209 206.521 147.13 201.938 Q144.075 197.331 144.075 188.605 Q144.075 179.855 147.13 175.271 Q150.209 170.665 156.019 170.665 Z" fill="#000000" fill-rule="nonzero" fill-opacity="1" /><path clip-path="url(#clip940)" d="M57.2247 762.378 L44.4614 762.378 L44.4614 772.881 L39.1779 772.881 L39.1779 756.012 L59.58 756.012 Q62.2218 759.736 63.5904 764.224 Q64.9272 768.711 64.9272 773.804 Q64.9272 784.944 58.4342 791.246 Q51.9093 797.516 40.2919 797.516 Q28.6427 797.516 22.1496 791.246 Q15.6248 784.944 15.6248 773.804 Q15.6248 769.157 16.7706 764.988 Q17.9164 760.786 20.1444 757.253 L26.9876 757.253 Q23.9639 760.818 22.4361 764.828 Q20.9083 768.839 20.9083 773.263 Q20.9083 781.984 25.7781 786.376 Q30.6479 790.737 40.2919 790.737 Q49.9041 790.737 54.7739 786.376 Q59.6436 781.984 59.6436 773.263 Q59.6436 769.857 59.0707 767.184 Q58.466 764.51 57.2247 762.378 Z" fill="#000000" fill-rule="nonzero" fill-opacity="1" /><path clip-path="url(#clip940)" d="M46.0847 728.321 Q46.0847 735.419 47.7079 738.156 Q49.3312 740.893 53.2461 740.893 Q56.3653 740.893 58.2114 738.856 Q60.0256 736.787 60.0256 733.255 Q60.0256 728.385 56.5881 725.457 Q53.1188 722.496 47.3897 722.496 L46.0847 722.496 L46.0847 728.321 M43.6657 716.64 L64.0042 716.64 L64.0042 722.496 L58.5933 722.496 Q61.8398 724.502 63.3994 727.494 Q64.9272 730.485 64.9272 734.814 Q64.9272 740.289 61.8716 743.535 Q58.7843 746.75 53.6281 746.75 Q47.6125 746.75 44.5569 742.739 Q41.5014 738.697 41.5014 730.708 L41.5014 722.496 L40.9285 722.496 Q36.8862 722.496 34.6901 725.17 Q32.4621 727.812 32.4621 732.618 Q32.4621 735.673 33.1941 738.57 Q33.9262 741.466 35.3903 744.14 L29.9795 744.14 Q28.7381 740.925 28.1334 737.901 Q27.4968 734.878 27.4968 732.013 Q27.4968 724.279 31.5072 720.459 Q35.5176 716.64 43.6657 716.64 Z" fill="#000000" fill-rule="nonzero" fill-opacity="1" /><path clip-path="url(#clip940)" d="M58.657 698.912 L77.5631 698.912 L77.5631 704.8 L28.3562 704.8 L28.3562 698.912 L33.7671 698.912 Q30.5842 697.065 29.0564 694.265 Q27.4968 691.432 27.4968 687.517 Q27.4968 681.024 32.6531 676.982 Q37.8093 672.908 46.212 672.908 Q54.6147 672.908 59.771 676.982 Q64.9272 681.024 64.9272 687.517 Q64.9272 691.432 63.3994 694.265 Q61.8398 697.065 58.657 698.912 M46.212 678.987 Q39.7508 678.987 36.0905 681.66 Q32.3984 684.302 32.3984 688.949 Q32.3984 693.596 36.0905 696.27 Q39.7508 698.912 46.212 698.912 Q52.6732 698.912 56.3653 696.27 Q60.0256 693.596 60.0256 688.949 Q60.0256 684.302 56.3653 681.66 Q52.6732 678.987 46.212 678.987 Z" fill="#000000" fill-rule="nonzero" fill-opacity="1" /><polyline clip-path="url(#clip942)" style="stroke:#009af9; stroke-linecap:round; stroke-linejoin:round; stroke-width:4; stroke-opacity:1; fill:none" points="264.778,86.1857 371.471,300.434 478.164,300.434 584.857,417.987 691.55,86.1857 798.242,696.699 904.935,780.124 1011.63,732.723 1118.32,1005.04 1225.01,1129.46 1331.71,1159.09 1438.4,1200.56 1545.09,1212.41 1651.78,1289.44 1758.48,1342.76 1865.17,1384.24 1971.86,1366.46 2078.56,1354.61 2185.25,1384.24 2291.94,1366.46 "/>
<polyline clip-path="url(#clip942)" style="stroke:#e26f46; stroke-linecap:round; stroke-linejoin:round; stroke-width:4; stroke-opacity:1; fill:none" points="264.778,530.799 371.471,679.161 478.164,596.211 584.857,744.099 691.55,477.711 798.242,685.323 904.935,679.161 1011.63,601.899 1118.32,1076.14 1225.01,1111.69 1331.71,1070.21 1438.4,1052.44 1545.09,1153.16 1651.78,1129.46 1758.48,1123.54 1865.17,1129.46 1971.86,1129.46 2078.56,1105.76 2185.25,1105.76 2291.94,1105.76 "/>
<path clip-path="url(#clip940)" d="M1956.39 248.629 L2281.13 248.629 L2281.13 93.1086 L1956.39 93.1086  Z" fill="#ffffff" fill-rule="evenodd" fill-opacity="1"/>
<polyline clip-path="url(#clip940)" style="stroke:#000000; stroke-linecap:round; stroke-linejoin:round; stroke-width:4; stroke-opacity:1; fill:none" points="1956.39,248.629 2281.13,248.629 2281.13,93.1086 1956.39,93.1086 1956.39,248.629 "/>
<polyline clip-path="url(#clip940)" style="stroke:#009af9; stroke-linecap:round; stroke-linejoin:round; stroke-width:4; stroke-opacity:1; fill:none" points="1980.27,144.949 2123.52,144.949 "/>
<path clip-path="url(#clip940)" d="M2147.39 127.669 L2176.63 127.669 L2176.63 131.604 L2164.36 131.604 L2164.36 162.229 L2159.66 162.229 L2159.66 131.604 L2147.39 131.604 L2147.39 127.669 Z" fill="#000000" fill-rule="nonzero" fill-opacity="1" /><path clip-path="url(#clip940)" d="M2189.01 140.284 Q2188.3 139.868 2187.44 139.682 Q2186.61 139.474 2185.59 139.474 Q2181.98 139.474 2180.03 141.835 Q2178.11 144.173 2178.11 148.571 L2178.11 162.229 L2173.83 162.229 L2173.83 136.303 L2178.11 136.303 L2178.11 140.331 Q2179.45 137.969 2181.61 136.835 Q2183.76 135.678 2186.84 135.678 Q2187.28 135.678 2187.81 135.747 Q2188.34 135.794 2188.99 135.909 L2189.01 140.284 Z" fill="#000000" fill-rule="nonzero" fill-opacity="1" /><path clip-path="url(#clip940)" d="M2205.26 149.196 Q2200.1 149.196 2198.11 150.377 Q2196.12 151.557 2196.12 154.405 Q2196.12 156.673 2197.6 158.016 Q2199.11 159.335 2201.68 159.335 Q2205.22 159.335 2207.35 156.835 Q2209.5 154.312 2209.5 150.145 L2209.5 149.196 L2205.26 149.196 M2213.76 147.437 L2213.76 162.229 L2209.5 162.229 L2209.5 158.293 Q2208.04 160.655 2205.87 161.789 Q2203.69 162.9 2200.54 162.9 Q2196.56 162.9 2194.2 160.678 Q2191.86 158.432 2191.86 154.682 Q2191.86 150.307 2194.78 148.085 Q2197.72 145.863 2203.53 145.863 L2209.5 145.863 L2209.5 145.446 Q2209.5 142.507 2207.56 140.909 Q2205.63 139.289 2202.14 139.289 Q2199.92 139.289 2197.81 139.821 Q2195.7 140.354 2193.76 141.419 L2193.76 137.483 Q2196.1 136.581 2198.3 136.141 Q2200.5 135.678 2202.58 135.678 Q2208.2 135.678 2210.98 138.594 Q2213.76 141.511 2213.76 147.437 Z" fill="#000000" fill-rule="nonzero" fill-opacity="1" /><path clip-path="url(#clip940)" d="M2222.53 136.303 L2226.79 136.303 L2226.79 162.229 L2222.53 162.229 L2222.53 136.303 M2222.53 126.21 L2226.79 126.21 L2226.79 131.604 L2222.53 131.604 L2222.53 126.21 Z" fill="#000000" fill-rule="nonzero" fill-opacity="1" /><path clip-path="url(#clip940)" d="M2257.25 146.581 L2257.25 162.229 L2252.99 162.229 L2252.99 146.719 Q2252.99 143.039 2251.56 141.21 Q2250.12 139.382 2247.25 139.382 Q2243.81 139.382 2241.81 141.581 Q2239.82 143.78 2239.82 147.576 L2239.82 162.229 L2235.54 162.229 L2235.54 136.303 L2239.82 136.303 L2239.82 140.331 Q2241.35 137.993 2243.41 136.835 Q2245.49 135.678 2248.2 135.678 Q2252.67 135.678 2254.96 138.456 Q2257.25 141.21 2257.25 146.581 Z" fill="#000000" fill-rule="nonzero" fill-opacity="1" /><polyline clip-path="url(#clip940)" style="stroke:#e26f46; stroke-linecap:round; stroke-linejoin:round; stroke-width:4; stroke-opacity:1; fill:none" points="1980.27,196.789 2123.52,196.789 "/>
<path clip-path="url(#clip940)" d="M2147.39 179.509 L2176.63 179.509 L2176.63 183.444 L2164.36 183.444 L2164.36 214.069 L2159.66 214.069 L2159.66 183.444 L2147.39 183.444 L2147.39 179.509 Z" fill="#000000" fill-rule="nonzero" fill-opacity="1" /><path clip-path="url(#clip940)" d="M2195.08 200.041 L2195.08 202.124 L2175.5 202.124 Q2175.77 206.522 2178.13 208.837 Q2180.52 211.129 2184.75 211.129 Q2187.21 211.129 2189.5 210.527 Q2191.81 209.925 2194.08 208.721 L2194.08 212.749 Q2191.79 213.721 2189.38 214.231 Q2186.98 214.74 2184.5 214.74 Q2178.3 214.74 2174.66 211.129 Q2171.05 207.518 2171.05 201.36 Q2171.05 194.995 2174.48 191.268 Q2177.93 187.518 2183.76 187.518 Q2188.99 187.518 2192.02 190.897 Q2195.08 194.254 2195.08 200.041 M2190.82 198.791 Q2190.77 195.296 2188.85 193.212 Q2186.95 191.129 2183.81 191.129 Q2180.24 191.129 2178.09 193.143 Q2175.96 195.157 2175.63 198.814 L2190.82 198.791 Z" fill="#000000" fill-rule="nonzero" fill-opacity="1" /><path clip-path="url(#clip940)" d="M2218.6 188.907 L2218.6 192.934 Q2216.79 192.009 2214.85 191.546 Q2212.9 191.083 2210.82 191.083 Q2207.65 191.083 2206.05 192.055 Q2204.48 193.027 2204.48 194.971 Q2204.48 196.453 2205.61 197.309 Q2206.75 198.143 2210.17 198.907 L2211.63 199.231 Q2216.17 200.203 2218.06 201.985 Q2219.99 203.745 2219.99 206.916 Q2219.99 210.527 2217.12 212.633 Q2214.27 214.74 2209.27 214.74 Q2207.18 214.74 2204.92 214.323 Q2202.67 213.93 2200.17 213.12 L2200.17 208.721 Q2202.53 209.948 2204.82 210.573 Q2207.12 211.175 2209.36 211.175 Q2212.37 211.175 2213.99 210.157 Q2215.61 209.115 2215.61 207.24 Q2215.61 205.504 2214.43 204.578 Q2213.27 203.652 2209.31 202.796 L2207.83 202.448 Q2203.87 201.615 2202.12 199.902 Q2200.36 198.166 2200.36 195.157 Q2200.36 191.499 2202.95 189.509 Q2205.54 187.518 2210.31 187.518 Q2212.67 187.518 2214.75 187.865 Q2216.84 188.212 2218.6 188.907 Z" fill="#000000" fill-rule="nonzero" fill-opacity="1" /><path clip-path="url(#clip940)" d="M2230.98 180.782 L2230.98 188.143 L2239.75 188.143 L2239.75 191.453 L2230.98 191.453 L2230.98 205.527 Q2230.98 208.698 2231.84 209.601 Q2232.72 210.504 2235.38 210.504 L2239.75 210.504 L2239.75 214.069 L2235.38 214.069 Q2230.45 214.069 2228.57 212.24 Q2226.7 210.388 2226.7 205.527 L2226.7 191.453 L2223.57 191.453 L2223.57 188.143 L2226.7 188.143 L2226.7 180.782 L2230.98 180.782 Z" fill="#000000" fill-rule="nonzero" fill-opacity="1" /></svg>
