<?xml version="1.0" encoding="utf-8"?>
<svg xmlns="http://www.w3.org/2000/svg" xmlns:xlink="http://www.w3.org/1999/xlink" width="600" height="400" viewBox="0 0 2400 1600">
<defs>
  <clipPath id="clip980">
    <rect x="0" y="0" width="2400" height="1600"/>
  </clipPath>
</defs>
<path clip-path="url(#clip980)" d="M0 1600 L2400 1600 L2400 0 L0 0  Z" fill="#ffffff" fill-rule="evenodd" fill-opacity="1"/>
<defs>
  <clipPath id="clip981">
    <rect x="480" y="0" width="1681" height="1600"/>
  </clipPath>
</defs>
<path clip-path="url(#clip980)" d="M170.857 1486.45 L2352.76 1486.45 L2352.76 47.2441 L170.857 47.2441  Z" fill="#ffffff" fill-rule="evenodd" fill-opacity="1"/>
<defs>
  <clipPath id="clip982">
    <rect x="170" y="47" width="2183" height="1440"/>
  </clipPath>
</defs>
<polyline clip-path="url(#clip982)" style="stroke:#000000; stroke-linecap:round; stroke-linejoin:round; stroke-width:2; stroke-opacity:0.1; fill:none" points="665.956,1486.45 665.956,47.2441 "/>
<polyline clip-path="url(#clip982)" style="stroke:#000000; stroke-linecap:round; stroke-linejoin:round; stroke-width:2; stroke-opacity:0.1; fill:none" points="1207.64,1486.45 1207.64,47.2441 "/>
<polyline clip-path="url(#clip982)" style="stroke:#000000; stroke-linecap:round; stroke-linejoin:round; stroke-width:2; stroke-opacity:0.1; fill:none" points="1749.32,1486.45 1749.32,47.2441 "/>
<polyline clip-path="url(#clip982)" style="stroke:#000000; stroke-linecap:round; stroke-linejoin:round; stroke-width:2; stroke-opacity:0.1; fill:none" points="2291,1486.45 2291,47.2441 "/>
<polyline clip-path="url(#clip982)" style="stroke:#000000; stroke-linecap:round; stroke-linejoin:round; stroke-width:2; stroke-opacity:0.1; fill:none" points="170.857,1451.74 2352.76,1451.74 "/>
<polyline clip-path="url(#clip982)" style="stroke:#000000; stroke-linecap:round; stroke-linejoin:round; stroke-width:2; stroke-opacity:0.1; fill:none" points="170.857,1109.05 2352.76,1109.05 "/>
<polyline clip-path="url(#clip982)" style="stroke:#000000; stroke-linecap:round; stroke-linejoin:round; stroke-width:2; stroke-opacity:0.1; fill:none" points="170.857,766.368 2352.76,766.368 "/>
<polyline clip-path="url(#clip982)" style="stroke:#000000; stroke-linecap:round; stroke-linejoin:round; stroke-width:2; stroke-opacity:0.1; fill:none" points="170.857,423.683 2352.76,423.683 "/>
<polyline clip-path="url(#clip982)" style="stroke:#000000; stroke-linecap:round; stroke-linejoin:round; stroke-width:2; stroke-opacity:0.1; fill:none" points="170.857,80.998 2352.76,80.998 "/>
<polyline clip-path="url(#clip980)" style="stroke:#000000; stroke-linecap:round; stroke-linejoin:round; stroke-width:4; stroke-opacity:1; fill:none" points="170.857,1486.45 2352.76,1486.45 "/>
<polyline clip-path="url(#clip980)" style="stroke:#000000; stroke-linecap:round; stroke-linejoin:round; stroke-width:4; stroke-opacity:1; fill:none" points="665.956,1486.45 665.956,1467.55 "/>
<polyline clip-path="url(#clip980)" style="stroke:#000000; stroke-linecap:round; stroke-linejoin:round; stroke-width:4; stroke-opacity:1; fill:none" points="1207.64,1486.45 1207.64,1467.55 "/>
<polyline clip-path="url(#clip980)" style="stroke:#000000; stroke-linecap:round; stroke-linejoin:round; stroke-width:4; stroke-opacity:1; fill:none" points="1749.32,1486.45 1749.32,1467.55 "/>
<polyline clip-path="url(#clip980)" style="stroke:#000000; stroke-linecap:round; stroke-linejoin:round; stroke-width:4; stroke-opacity:1; fill:none" points="2291,1486.45 2291,1467.55 "/>
<path clip-path="url(#clip980)" d="M656.233 1514.29 L674.59 1514.29 L674.59 1518.22 L660.516 1518.22 L660.516 1526.7 Q661.534 1526.35 662.553 1526.19 Q663.571 1526 664.59 1526 Q670.377 1526 673.756 1529.17 Q677.136 1532.34 677.136 1537.76 Q677.136 1543.34 673.664 1546.44 Q670.192 1549.52 663.872 1549.52 Q661.696 1549.52 659.428 1549.15 Q657.182 1548.78 654.775 1548.04 L654.775 1543.34 Q656.858 1544.47 659.081 1545.03 Q661.303 1545.58 663.78 1545.58 Q667.784 1545.58 670.122 1543.48 Q672.46 1541.37 672.46 1537.76 Q672.46 1534.15 670.122 1532.04 Q667.784 1529.94 663.78 1529.94 Q661.905 1529.94 660.03 1530.35 Q658.178 1530.77 656.233 1531.65 L656.233 1514.29 Z" fill="#000000" fill-rule="nonzero" fill-opacity="1" /><path clip-path="url(#clip980)" d="M1182.33 1544.91 L1189.96 1544.91 L1189.96 1518.55 L1181.65 1520.21 L1181.65 1515.95 L1189.92 1514.29 L1194.59 1514.29 L1194.59 1544.91 L1202.23 1544.91 L1202.23 1548.85 L1182.33 1548.85 L1182.33 1544.91 Z" fill="#000000" fill-rule="nonzero" fill-opacity="1" /><path clip-path="url(#clip980)" d="M1221.68 1517.37 Q1218.07 1517.37 1216.24 1520.93 Q1214.43 1524.47 1214.43 1531.6 Q1214.43 1538.71 1216.24 1542.27 Q1218.07 1545.82 1221.68 1545.82 Q1225.31 1545.82 1227.12 1542.27 Q1228.95 1538.71 1228.95 1531.6 Q1228.95 1524.47 1227.12 1520.93 Q1225.31 1517.37 1221.68 1517.37 M1221.68 1513.66 Q1227.49 1513.66 1230.54 1518.27 Q1233.62 1522.85 1233.62 1531.6 Q1233.62 1540.33 1230.54 1544.94 Q1227.49 1549.52 1221.68 1549.52 Q1215.87 1549.52 1212.79 1544.94 Q1209.73 1540.33 1209.73 1531.6 Q1209.73 1522.85 1212.79 1518.27 Q1215.87 1513.66 1221.68 1513.66 Z" fill="#000000" fill-rule="nonzero" fill-opacity="1" /><path clip-path="url(#clip980)" d="M1724.51 1544.91 L1732.15 1544.91 L1732.15 1518.55 L1723.84 1520.21 L1723.84 1515.95 L1732.1 1514.29 L1736.77 1514.29 L1736.77 1544.91 L1744.41 1544.91 L1744.41 1548.85 L1724.51 1548.85 L1724.51 1544.91 Z" fill="#000000" fill-rule="nonzero" fill-opacity="1" /><path clip-path="url(#clip980)" d="M1753.9 1514.29 L1772.26 1514.29 L1772.26 1518.22 L1758.19 1518.22 L1758.19 1526.7 Q1759.21 1526.35 1760.22 1526.19 Q1761.24 1526 1762.26 1526 Q1768.05 1526 1771.43 1529.17 Q1774.81 1532.34 1774.81 1537.76 Q1774.81 1543.34 1771.33 1546.44 Q1767.86 1549.52 1761.54 1549.52 Q1759.37 1549.52 1757.1 1549.15 Q1754.85 1548.78 1752.45 1548.04 L1752.45 1543.34 Q1754.53 1544.47 1756.75 1545.03 Q1758.97 1545.58 1761.45 1545.58 Q1765.46 1545.58 1767.79 1543.48 Q1770.13 1541.37 1770.13 1537.76 Q1770.13 1534.15 1767.79 1532.04 Q1765.46 1529.94 1761.45 1529.94 Q1759.58 1529.94 1757.7 1530.35 Q1755.85 1530.77 1753.9 1531.65 L1753.9 1514.29 Z" fill="#000000" fill-rule="nonzero" fill-opacity="1" /><path clip-path="url(#clip980)" d="M2269.78 1544.91 L2286.1 1544.91 L2286.1 1548.85 L2264.15 1548.85 L2264.15 1544.91 Q2266.81 1542.16 2271.4 1537.53 Q2276 1532.88 2277.18 1531.53 Q2279.43 1529.01 2280.31 1527.27 Q2281.21 1525.51 2281.21 1523.82 Q2281.21 1521.07 2279.27 1519.33 Q2277.35 1517.6 2274.24 1517.6 Q2272.05 1517.6 2269.59 1518.36 Q2267.16 1519.13 2264.38 1520.68 L2264.38 1515.95 Q2267.21 1514.82 2269.66 1514.24 Q2272.12 1513.66 2274.15 1513.66 Q2279.52 1513.66 2282.72 1516.35 Q2285.91 1519.03 2285.91 1523.52 Q2285.91 1525.65 2285.1 1527.57 Q2284.31 1529.47 2282.21 1532.07 Q2281.63 1532.74 2278.53 1535.95 Q2275.43 1539.15 2269.78 1544.91 Z" fill="#000000" fill-rule="nonzero" fill-opacity="1" /><path clip-path="url(#clip980)" d="M2305.91 1517.37 Q2302.3 1517.37 2300.47 1520.93 Q2298.67 1524.47 2298.67 1531.6 Q2298.67 1538.71 2300.47 1542.27 Q2302.3 1545.82 2305.91 1545.82 Q2309.55 1545.82 2311.35 1542.27 Q2313.18 1538.71 2313.18 1531.6 Q2313.18 1524.47 2311.35 1520.93 Q2309.55 1517.37 2305.91 1517.37 M2305.91 1513.66 Q2311.72 1513.66 2314.78 1518.27 Q2317.86 1522.85 2317.86 1531.6 Q2317.86 1540.33 2314.78 1544.94 Q2311.72 1549.52 2305.91 1549.52 Q2300.1 1549.52 2297.02 1544.94 Q2293.97 1540.33 2293.97 1531.6 Q2293.97 1522.85 2297.02 1518.27 Q2300.1 1513.66 2305.91 1513.66 Z" fill="#000000" fill-rule="nonzero" fill-opacity="1" /><polyline clip-path="url(#clip980)" style="stroke:#000000; stroke-linecap:round; stroke-linejoin:round; stroke-width:4; stroke-opacity:1; fill:none" points="170.857,1486.45 170.857,47.2441 "/>
<polyline clip-path="url(#clip980)" style="stroke:#000000; stroke-linecap:round; stroke-linejoin:round; stroke-width:4; stroke-opacity:1; fill:none" points="170.857,1451.74 189.755,1451.74 "/>
<polyline clip-path="url(#clip980)" style="stroke:#000000; stroke-linecap:round; stroke-linejoin:round; stroke-width:4; stroke-opacity:1; fill:none" points="170.857,1109.05 189.755,1109.05 "/>
<polyline clip-path="url(#clip980)" style="stroke:#000000; stroke-linecap:round; stroke-linejoin:round; stroke-width:4; stroke-opacity:1; fill:none" points="170.857,766.368 189.755,766.368 "/>
<polyline clip-path="url(#clip980)" style="stroke:#000000; stroke-linecap:round; stroke-linejoin:round; stroke-width:4; stroke-opacity:1; fill:none" points="170.857,423.683 189.755,423.683 "/>
<polyline clip-path="url(#clip980)" style="stroke:#000000; stroke-linecap:round; stroke-linejoin:round; stroke-width:4; stroke-opacity:1; fill:none" points="170.857,80.998 189.755,80.998 "/>
<path clip-path="url(#clip980)" d="M122.913 1437.54 Q119.302 1437.54 117.473 1441.1 Q115.668 1444.64 115.668 1451.77 Q115.668 1458.88 117.473 1462.44 Q119.302 1465.99 122.913 1465.99 Q126.547 1465.99 128.353 1462.44 Q130.182 1458.88 130.182 1451.77 Q130.182 1444.64 128.353 1441.1 Q126.547 1437.54 122.913 1437.54 M122.913 1433.83 Q128.723 1433.83 131.779 1438.44 Q134.857 1443.02 134.857 1451.77 Q134.857 1460.5 131.779 1465.11 Q128.723 1469.69 122.913 1469.69 Q117.103 1469.69 114.024 1465.11 Q110.969 1460.5 110.969 1451.77 Q110.969 1443.02 114.024 1438.44 Q117.103 1433.83 122.913 1433.83 Z" fill="#000000" fill-rule="nonzero" fill-opacity="1" /><path clip-path="url(#clip980)" d="M82.7975 1091.77 L101.154 1091.77 L101.154 1095.71 L87.0799 1095.71 L87.0799 1104.18 Q88.0984 1103.83 89.1169 1103.67 Q90.1354 1103.49 91.1539 1103.49 Q96.941 1103.49 100.321 1106.66 Q103.7 1109.83 103.7 1115.24 Q103.7 1120.82 100.228 1123.93 Q96.7558 1127 90.4364 1127 Q88.2604 1127 85.9919 1126.63 Q83.7466 1126.26 81.3392 1125.52 L81.3392 1120.82 Q83.4225 1121.96 85.6447 1122.51 Q87.8669 1123.07 90.3438 1123.07 Q94.3484 1123.07 96.6863 1120.96 Q99.0243 1118.86 99.0243 1115.24 Q99.0243 1111.63 96.6863 1109.53 Q94.3484 1107.42 90.3438 1107.42 Q88.4688 1107.42 86.5938 1107.84 Q84.7419 1108.25 82.7975 1109.13 L82.7975 1091.77 Z" fill="#000000" fill-rule="nonzero" fill-opacity="1" /><path clip-path="url(#clip980)" d="M122.913 1094.85 Q119.302 1094.85 117.473 1098.42 Q115.668 1101.96 115.668 1109.09 Q115.668 1116.19 117.473 1119.76 Q119.302 1123.3 122.913 1123.3 Q126.547 1123.3 128.353 1119.76 Q130.182 1116.19 130.182 1109.09 Q130.182 1101.96 128.353 1098.42 Q126.547 1094.85 122.913 1094.85 M122.913 1091.15 Q128.723 1091.15 131.779 1095.75 Q134.857 1100.34 134.857 1109.09 Q134.857 1117.81 131.779 1122.42 Q128.723 1127 122.913 1127 Q117.103 1127 114.024 1122.42 Q110.969 1117.81 110.969 1109.09 Q110.969 1100.34 114.024 1095.75 Q117.103 1091.15 122.913 1091.15 Z" fill="#000000" fill-rule="nonzero" fill-opacity="1" /><path clip-path="url(#clip980)" d="M53.3995 779.713 L61.0384 779.713 L61.0384 753.347 L52.7282 755.014 L52.7282 750.755 L60.9921 749.088 L65.668 749.088 L65.668 779.713 L73.3068 779.713 L73.3068 783.648 L53.3995 783.648 L53.3995 779.713 Z" fill="#000000" fill-rule="nonzero" fill-opacity="1" /><path clip-path="url(#clip980)" d="M92.7512 752.167 Q89.1401 752.167 87.3114 755.731 Q85.5058 759.273 85.5058 766.403 Q85.5058 773.509 87.3114 777.074 Q89.1401 780.615 92.7512 780.615 Q96.3854 780.615 98.1909 777.074 Q100.02 773.509 100.02 766.403 Q100.02 759.273 98.1909 755.731 Q96.3854 752.167 92.7512 752.167 M92.7512 748.463 Q98.5613 748.463 101.617 753.069 Q104.696 757.653 104.696 766.403 Q104.696 775.129 101.617 779.736 Q98.5613 784.319 92.7512 784.319 Q86.941 784.319 83.8623 779.736 Q80.8068 775.129 80.8068 766.403 Q80.8068 757.653 83.8623 753.069 Q86.941 748.463 92.7512 748.463 Z" fill="#000000" fill-rule="nonzero" fill-opacity="1" /><path clip-path="url(#clip980)" d="M122.913 752.167 Q119.302 752.167 117.473 755.731 Q115.668 759.273 115.668 766.403 Q115.668 773.509 117.473 777.074 Q119.302 780.615 122.913 780.615 Q126.547 780.615 128.353 777.074 Q130.182 773.509 130.182 766.403 Q130.182 759.273 128.353 755.731 Q126.547 752.167 122.913 752.167 M122.913 748.463 Q128.723 748.463 131.779 753.069 Q134.857 757.653 134.857 766.403 Q134.857 775.129 131.779 779.736 Q128.723 784.319 122.913 784.319 Q117.103 784.319 114.024 779.736 Q110.969 775.129 110.969 766.403 Q110.969 757.653 114.024 753.069 Q117.103 748.463 122.913 748.463 Z" fill="#000000" fill-rule="nonzero" fill-opacity="1" /><path clip-path="url(#clip980)" d="M53.3995 437.028 L61.0384 437.028 L61.0384 410.662 L52.7282 412.329 L52.7282 408.07 L60.9921 406.403 L65.668 406.403 L65.668 437.028 L73.3068 437.028 L73.3068 440.963 L53.3995 440.963 L53.3995 437.028 Z" fill="#000000" fill-rule="nonzero" fill-opacity="1" /><path clip-path="url(#clip980)" d="M82.7975 406.403 L101.154 406.403 L101.154 410.338 L87.0799 410.338 L87.0799 418.81 Q88.0984 418.463 89.1169 418.301 Q90.1354 418.116 91.1539 418.116 Q96.941 418.116 100.321 421.287 Q103.7 424.458 103.7 429.875 Q103.7 435.454 100.228 438.556 Q96.7558 441.634 90.4364 441.634 Q88.2604 441.634 85.9919 441.264 Q83.7466 440.893 81.3392 440.153 L81.3392 435.454 Q83.4225 436.588 85.6447 437.143 Q87.8669 437.699 90.3438 437.699 Q94.3484 437.699 96.6863 435.593 Q99.0243 433.486 99.0243 429.875 Q99.0243 426.264 96.6863 424.157 Q94.3484 422.051 90.3438 422.051 Q88.4688 422.051 86.5938 422.468 Q84.7419 422.884 82.7975 423.764 L82.7975 406.403 Z" fill="#000000" fill-rule="nonzero" fill-opacity="1" /><path clip-path="url(#clip980)" d="M122.913 409.482 Q119.302 409.482 117.473 413.046 Q115.668 416.588 115.668 423.718 Q115.668 430.824 117.473 434.389 Q119.302 437.931 122.913 437.931 Q126.547 437.931 128.353 434.389 Q130.182 430.824 130.182 423.718 Q130.182 416.588 128.353 413.046 Q126.547 409.482 122.913 409.482 M122.913 405.778 Q128.723 405.778 131.779 410.384 Q134.857 414.968 134.857 423.718 Q134.857 432.444 131.779 437.051 Q128.723 441.634 122.913 441.634 Q117.103 441.634 114.024 437.051 Q110.969 432.444 110.969 423.718 Q110.969 414.968 114.024 410.384 Q117.103 405.778 122.913 405.778 Z" fill="#000000" fill-rule="nonzero" fill-opacity="1" /><path clip-path="url(#clip980)" d="M56.6171 94.3428 L72.9365 94.3428 L72.9365 98.278 L50.9921 98.278 L50.9921 94.3428 Q53.6541 91.5882 58.2375 86.9586 Q62.8439 82.3058 64.0245 80.9633 Q66.2698 78.4401 67.1494 76.704 Q68.0522 74.9448 68.0522 73.255 Q68.0522 70.5004 66.1078 68.7643 Q64.1865 67.0282 61.0847 67.0282 Q58.8856 67.0282 56.4319 67.792 Q54.0014 68.5559 51.2236 70.1068 L51.2236 65.3846 Q54.0477 64.2504 56.5014 63.6717 Q58.955 63.093 60.9921 63.093 Q66.3624 63.093 69.5568 65.7782 Q72.7513 68.4633 72.7513 72.954 Q72.7513 75.0837 71.9411 77.005 Q71.1541 78.9031 69.0476 81.4957 Q68.4689 82.167 65.367 85.3845 Q62.2652 88.579 56.6171 94.3428 Z" fill="#000000" fill-rule="nonzero" fill-opacity="1" /><path clip-path="url(#clip980)" d="M92.7512 66.7967 Q89.1401 66.7967 87.3114 70.3615 Q85.5058 73.9031 85.5058 81.0327 Q85.5058 88.1392 87.3114 91.7039 Q89.1401 95.2456 92.7512 95.2456 Q96.3854 95.2456 98.1909 91.7039 Q100.02 88.1392 100.02 81.0327 Q100.02 73.9031 98.1909 70.3615 Q96.3854 66.7967 92.7512 66.7967 M92.7512 63.093 Q98.5613 63.093 101.617 67.6994 Q104.696 72.2828 104.696 81.0327 Q104.696 89.7595 101.617 94.366 Q98.5613 98.9493 92.7512 98.9493 Q86.941 98.9493 83.8623 94.366 Q80.8068 89.7595 80.8068 81.0327 Q80.8068 72.2828 83.8623 67.6994 Q86.941 63.093 92.7512 63.093 Z" fill="#000000" fill-rule="nonzero" fill-opacity="1" /><path clip-path="url(#clip980)" d="M122.913 66.7967 Q119.302 66.7967 117.473 70.3615 Q115.668 73.9031 115.668 81.0327 Q115.668 88.1392 117.473 91.7039 Q119.302 95.2456 122.913 95.2456 Q126.547 95.2456 128.353 91.7039 Q130.182 88.1392 130.182 81.0327 Q130.182 73.9031 128.353 70.3615 Q126.547 66.7967 122.913 66.7967 M122.913 63.093 Q128.723 63.093 131.779 67.6994 Q134.857 72.2828 134.857 81.0327 Q134.857 89.7595 131.779 94.366 Q128.723 98.9493 122.913 98.9493 Q117.103 98.9493 114.024 94.366 Q110.969 89.7595 110.969 81.0327 Q110.969 72.2828 114.024 67.6994 Q117.103 63.093 122.913 63.093 Z" fill="#000000" fill-rule="nonzero" fill-opacity="1" /><polyline clip-path="url(#clip982)" style="stroke:#009af9; stroke-linecap:round; stroke-linejoin:round; stroke-width:4; stroke-opacity:1; fill:none" points="232.609,87.9763 340.946,820.553 449.282,1015.96 557.619,1155.67 665.956,1171.81 774.292,1248.15 882.629,1282.83 990.965,1317.44 1099.3,1331.24 1207.64,1374.63 1315.97,1347.37 1424.31,1363.79 1532.65,1356.46 1640.98,1401.33 1749.32,1424.9 1857.66,1432.3 1965.99,1436.43 2074.33,1445.72 2182.67,1442.99 2291,1445.09 "/>
<path clip-path="url(#clip980)" d="M2009.41 198.898 L2280.03 198.898 L2280.03 95.2176 L2009.41 95.2176  Z" fill="#ffffff" fill-rule="evenodd" fill-opacity="1"/>
<polyline clip-path="url(#clip980)" style="stroke:#000000; stroke-linecap:round; stroke-linejoin:round; stroke-width:4; stroke-opacity:1; fill:none" points="2009.41,198.898 2280.03,198.898 2280.03,95.2176 2009.41,95.2176 2009.41,198.898 "/>
<polyline clip-path="url(#clip980)" style="stroke:#009af9; stroke-linecap:round; stroke-linejoin:round; stroke-width:4; stroke-opacity:1; fill:none" points="2033.65,147.058 2179.11,147.058 "/>
<path clip-path="url(#clip980)" d="M2217.19 166.745 Q2215.39 171.375 2213.68 172.787 Q2211.96 174.199 2209.09 174.199 L2205.69 174.199 L2205.69 170.634 L2208.19 170.634 Q2209.95 170.634 2210.92 169.8 Q2211.89 168.967 2213.07 165.865 L2213.84 163.921 L2203.35 138.412 L2207.87 138.412 L2215.97 158.689 L2224.07 138.412 L2228.58 138.412 L2217.19 166.745 Z" fill="#000000" fill-rule="nonzero" fill-opacity="1" /><path clip-path="url(#clip980)" d="M2235.88 160.402 L2243.51 160.402 L2243.51 134.037 L2235.2 135.703 L2235.2 131.444 L2243.47 129.778 L2248.14 129.778 L2248.14 160.402 L2255.78 160.402 L2255.78 164.338 L2235.88 164.338 L2235.88 160.402 Z" fill="#000000" fill-rule="nonzero" fill-opacity="1" /></svg>
