<?xml version="1.0" encoding="utf-8"?>
<svg xmlns="http://www.w3.org/2000/svg" xmlns:xlink="http://www.w3.org/1999/xlink" width="600" height="400" viewBox="0 0 2400 1600">
<defs>
  <clipPath id="clip420">
    <rect x="0" y="0" width="2400" height="1600"/>
  </clipPath>
</defs>
<path clip-path="url(#clip420)" d="M0 1600 L2400 1600 L2400 0 L0 0  Z" fill="#ffffff" fill-rule="evenodd" fill-opacity="1"/>
<defs>
  <clipPath id="clip421">
    <rect x="480" y="0" width="1681" height="1600"/>
  </clipPath>
</defs>
<path clip-path="url(#clip420)" d="M205.121 1423.18 L2352.76 1423.18 L2352.76 123.472 L205.121 123.472  Z" fill="#ffffff" fill-rule="evenodd" fill-opacity="1"/>
<defs>
  <clipPath id="clip422">
    <rect x="205" y="123" width="2149" height="1301"/>
  </clipPath>
</defs>
<polyline clip-path="url(#clip422)" style="stroke:#000000; stroke-linecap:round; stroke-linejoin:round; stroke-width:2; stroke-opacity:0.1; fill:none" points="692.444,1423.18 692.444,123.472 "/>
<polyline clip-path="url(#clip422)" style="stroke:#000000; stroke-linecap:round; stroke-linejoin:round; stroke-width:2; stroke-opacity:0.1; fill:none" points="1225.62,1423.18 1225.62,123.472 "/>
<polyline clip-path="url(#clip422)" style="stroke:#000000; stroke-linecap:round; stroke-linejoin:round; stroke-width:2; stroke-opacity:0.1; fill:none" points="1758.8,1423.18 1758.8,123.472 "/>
<polyline clip-path="url(#clip422)" style="stroke:#000000; stroke-linecap:round; stroke-linejoin:round; stroke-width:2; stroke-opacity:0.1; fill:none" points="2291.97,1423.18 2291.97,123.472 "/>
<polyline clip-path="url(#clip422)" style="stroke:#000000; stroke-linecap:round; stroke-linejoin:round; stroke-width:2; stroke-opacity:0.1; fill:none" points="205.121,1390.82 2352.76,1390.82 "/>
<polyline clip-path="url(#clip422)" style="stroke:#000000; stroke-linecap:round; stroke-linejoin:round; stroke-width:2; stroke-opacity:0.1; fill:none" points="205.121,1089.07 2352.76,1089.07 "/>
<polyline clip-path="url(#clip422)" style="stroke:#000000; stroke-linecap:round; stroke-linejoin:round; stroke-width:2; stroke-opacity:0.1; fill:none" points="205.121,787.323 2352.76,787.323 "/>
<polyline clip-path="url(#clip422)" style="stroke:#000000; stroke-linecap:round; stroke-linejoin:round; stroke-width:2; stroke-opacity:0.1; fill:none" points="205.121,485.577 2352.76,485.577 "/>
<polyline clip-path="url(#clip422)" style="stroke:#000000; stroke-linecap:round; stroke-linejoin:round; stroke-width:2; stroke-opacity:0.1; fill:none" points="205.121,183.83 2352.76,183.83 "/>
<polyline clip-path="url(#clip420)" style="stroke:#000000; stroke-linecap:round; stroke-linejoin:round; stroke-width:4; stroke-opacity:1; fill:none" points="205.121,1423.18 2352.76,1423.18 "/>
<polyline clip-path="url(#clip420)" style="stroke:#000000; stroke-linecap:round; stroke-linejoin:round; stroke-width:4; stroke-opacity:1; fill:none" points="692.444,1423.18 692.444,1404.28 "/>
<polyline clip-path="url(#clip420)" style="stroke:#000000; stroke-linecap:round; stroke-linejoin:round; stroke-width:4; stroke-opacity:1; fill:none" points="1225.62,1423.18 1225.62,1404.28 "/>
<polyline clip-path="url(#clip420)" style="stroke:#000000; stroke-linecap:round; stroke-linejoin:round; stroke-width:4; stroke-opacity:1; fill:none" points="1758.8,1423.18 1758.8,1404.28 "/>
<polyline clip-path="url(#clip420)" style="stroke:#000000; stroke-linecap:round; stroke-linejoin:round; stroke-width:4; stroke-opacity:1; fill:none" points="2291.97,1423.18 2291.97,1404.28 "/>
<path clip-path="url(#clip420)" d="M682.722 1451.02 L701.079 1451.02 L701.079 1454.96 L687.005 1454.96 L687.005 1463.43 Q688.023 1463.08 689.042 1462.92 Q690.06 1462.73 691.079 1462.73 Q696.866 1462.73 700.245 1465.9 Q703.625 1469.08 703.625 1474.49 Q703.625 1480.07 700.153 1483.17 Q696.68 1486.25 690.361 1486.25 Q688.185 1486.25 685.917 1485.88 Q683.671 1485.51 681.264 1484.77 L681.264 1480.07 Q683.347 1481.2 685.569 1481.76 Q687.792 1482.32 690.268 1482.32 Q694.273 1482.32 696.611 1480.21 Q698.949 1478.1 698.949 1474.49 Q698.949 1470.88 696.611 1468.77 Q694.273 1466.67 690.268 1466.67 Q688.393 1466.67 686.518 1467.08 Q684.667 1467.5 682.722 1468.38 L682.722 1451.02 Z" fill="#000000" fill-rule="nonzero" fill-opacity="1" /><path clip-path="url(#clip420)" d="M1200.31 1481.64 L1207.95 1481.64 L1207.95 1455.28 L1199.64 1456.95 L1199.64 1452.69 L1207.9 1451.02 L1212.58 1451.02 L1212.58 1481.64 L1220.22 1481.64 L1220.22 1485.58 L1200.31 1485.58 L1200.31 1481.64 Z" fill="#000000" fill-rule="nonzero" fill-opacity="1" /><path clip-path="url(#clip420)" d="M1239.66 1454.1 Q1236.05 1454.1 1234.22 1457.66 Q1232.41 1461.2 1232.41 1468.33 Q1232.41 1475.44 1234.22 1479.01 Q1236.05 1482.55 1239.66 1482.55 Q1243.29 1482.55 1245.1 1479.01 Q1246.93 1475.44 1246.93 1468.33 Q1246.93 1461.2 1245.1 1457.66 Q1243.29 1454.1 1239.66 1454.1 M1239.66 1450.39 Q1245.47 1450.39 1248.53 1455 Q1251.6 1459.58 1251.6 1468.33 Q1251.6 1477.06 1248.53 1481.67 Q1245.47 1486.25 1239.66 1486.25 Q1233.85 1486.25 1230.77 1481.67 Q1227.72 1477.06 1227.72 1468.33 Q1227.72 1459.58 1230.77 1455 Q1233.85 1450.39 1239.66 1450.39 Z" fill="#000000" fill-rule="nonzero" fill-opacity="1" /><path clip-path="url(#clip420)" d="M1733.98 1481.64 L1741.62 1481.64 L1741.62 1455.28 L1733.31 1456.95 L1733.31 1452.69 L1741.58 1451.02 L1746.25 1451.02 L1746.25 1481.64 L1753.89 1481.64 L1753.89 1485.58 L1733.98 1485.58 L1733.98 1481.64 Z" fill="#000000" fill-rule="nonzero" fill-opacity="1" /><path clip-path="url(#clip420)" d="M1763.38 1451.02 L1781.74 1451.02 L1781.74 1454.96 L1767.66 1454.96 L1767.66 1463.43 Q1768.68 1463.08 1769.7 1462.92 Q1770.72 1462.73 1771.74 1462.73 Q1777.52 1462.73 1780.9 1465.9 Q1784.28 1469.08 1784.28 1474.49 Q1784.28 1480.07 1780.81 1483.17 Q1777.34 1486.25 1771.02 1486.25 Q1768.84 1486.25 1766.58 1485.88 Q1764.33 1485.51 1761.92 1484.77 L1761.92 1480.07 Q1764.01 1481.2 1766.23 1481.76 Q1768.45 1482.32 1770.93 1482.32 Q1774.93 1482.32 1777.27 1480.21 Q1779.61 1478.1 1779.61 1474.49 Q1779.61 1470.88 1777.27 1468.77 Q1774.93 1466.67 1770.93 1466.67 Q1769.05 1466.67 1767.18 1467.08 Q1765.33 1467.5 1763.38 1468.38 L1763.38 1451.02 Z" fill="#000000" fill-rule="nonzero" fill-opacity="1" /><path clip-path="url(#clip420)" d="M2270.75 1481.64 L2287.07 1481.64 L2287.07 1485.58 L2265.12 1485.58 L2265.12 1481.64 Q2267.78 1478.89 2272.37 1474.26 Q2276.97 1469.61 2278.15 1468.27 Q2280.4 1465.74 2281.28 1464.01 Q2282.18 1462.25 2282.18 1460.56 Q2282.18 1457.8 2280.24 1456.07 Q2278.32 1454.33 2275.21 1454.33 Q2273.02 1454.33 2270.56 1455.09 Q2268.13 1455.86 2265.35 1457.41 L2265.35 1452.69 Q2268.18 1451.55 2270.63 1450.97 Q2273.08 1450.39 2275.12 1450.39 Q2280.49 1450.39 2283.69 1453.08 Q2286.88 1455.77 2286.88 1460.26 Q2286.88 1462.39 2286.07 1464.31 Q2285.28 1466.2 2283.18 1468.8 Q2282.6 1469.47 2279.5 1472.69 Q2276.4 1475.88 2270.75 1481.64 Z" fill="#000000" fill-rule="nonzero" fill-opacity="1" /><path clip-path="url(#clip420)" d="M2306.88 1454.1 Q2303.27 1454.1 2301.44 1457.66 Q2299.64 1461.2 2299.64 1468.33 Q2299.64 1475.44 2301.44 1479.01 Q2303.27 1482.55 2306.88 1482.55 Q2310.52 1482.55 2312.32 1479.01 Q2314.15 1475.44 2314.15 1468.33 Q2314.15 1461.2 2312.32 1457.66 Q2310.52 1454.1 2306.88 1454.1 M2306.88 1450.39 Q2312.69 1450.39 2315.75 1455 Q2318.83 1459.58 2318.83 1468.33 Q2318.83 1477.06 2315.75 1481.67 Q2312.69 1486.25 2306.88 1486.25 Q2301.07 1486.25 2297.99 1481.67 Q2294.94 1477.06 2294.94 1468.33 Q2294.94 1459.58 2297.99 1455 Q2301.07 1450.39 2306.88 1450.39 Z" fill="#000000" fill-rule="nonzero" fill-opacity="1" /><path clip-path="url(#clip420)" d="M1128.5 1520.52 L1134.93 1520.52 L1134.93 1568.04 L1128.5 1568.04 L1128.5 1520.52 Z" fill="#000000" fill-rule="nonzero" fill-opacity="1" /><path clip-path="url(#clip420)" d="M1153.26 1522.27 L1153.26 1532.4 L1165.33 1532.4 L1165.33 1536.95 L1153.26 1536.95 L1153.26 1556.3 Q1153.26 1560.66 1154.44 1561.9 Q1155.65 1563.14 1159.31 1563.14 L1165.33 1563.14 L1165.33 1568.04 L1159.31 1568.04 Q1152.53 1568.04 1149.95 1565.53 Q1147.38 1562.98 1147.38 1556.3 L1147.38 1536.95 L1143.08 1536.95 L1143.08 1532.4 L1147.38 1532.4 L1147.38 1522.27 L1153.26 1522.27 Z" fill="#000000" fill-rule="nonzero" fill-opacity="1" /><path clip-path="url(#clip420)" d="M1203.52 1548.76 L1203.52 1551.62 L1176.59 1551.62 Q1176.98 1557.67 1180.22 1560.85 Q1183.5 1564 1189.33 1564 Q1192.7 1564 1195.85 1563.17 Q1199.03 1562.35 1202.15 1560.69 L1202.15 1566.23 Q1199 1567.57 1195.69 1568.27 Q1192.38 1568.97 1188.98 1568.97 Q1180.45 1568.97 1175.45 1564 Q1170.48 1559.04 1170.48 1550.57 Q1170.48 1541.82 1175.19 1536.69 Q1179.94 1531.54 1187.96 1531.54 Q1195.15 1531.54 1199.32 1536.18 Q1203.52 1540.8 1203.52 1548.76 M1197.66 1547.04 Q1197.6 1542.23 1194.96 1539.37 Q1192.35 1536.5 1188.02 1536.5 Q1183.12 1536.5 1180.16 1539.27 Q1177.23 1542.04 1176.78 1547.07 L1197.66 1547.04 Z" fill="#000000" fill-rule="nonzero" fill-opacity="1" /><path clip-path="url(#clip420)" d="M1233.79 1537.87 Q1232.8 1537.3 1231.63 1537.04 Q1230.48 1536.76 1229.08 1536.76 Q1224.11 1536.76 1221.44 1540 Q1218.8 1543.22 1218.8 1549.27 L1218.8 1568.04 L1212.91 1568.04 L1212.91 1532.4 L1218.8 1532.4 L1218.8 1537.93 Q1220.64 1534.69 1223.6 1533.13 Q1226.56 1531.54 1230.8 1531.54 Q1231.4 1531.54 1232.13 1531.63 Q1232.87 1531.7 1233.76 1531.85 L1233.79 1537.87 Z" fill="#000000" fill-rule="nonzero" fill-opacity="1" /><path clip-path="url(#clip420)" d="M1256.13 1550.12 Q1249.04 1550.12 1246.3 1551.75 Q1243.56 1553.37 1243.56 1557.29 Q1243.56 1560.4 1245.6 1562.25 Q1247.67 1564.07 1251.2 1564.07 Q1256.07 1564.07 1259 1560.63 Q1261.96 1557.16 1261.96 1551.43 L1261.96 1550.12 L1256.13 1550.12 M1267.81 1547.71 L1267.81 1568.04 L1261.96 1568.04 L1261.96 1562.63 Q1259.95 1565.88 1256.96 1567.44 Q1253.97 1568.97 1249.64 1568.97 Q1244.17 1568.97 1240.92 1565.91 Q1237.7 1562.82 1237.7 1557.67 Q1237.7 1551.65 1241.71 1548.6 Q1245.76 1545.54 1253.75 1545.54 L1261.96 1545.54 L1261.96 1544.97 Q1261.96 1540.93 1259.28 1538.73 Q1256.64 1536.5 1251.84 1536.5 Q1248.78 1536.5 1245.88 1537.23 Q1242.99 1537.97 1240.31 1539.43 L1240.31 1534.02 Q1243.53 1532.78 1246.55 1532.17 Q1249.58 1531.54 1252.44 1531.54 Q1260.18 1531.54 1263.99 1535.55 Q1267.81 1539.56 1267.81 1547.71 Z" fill="#000000" fill-rule="nonzero" fill-opacity="1" /><path clip-path="url(#clip420)" d="M1285.67 1522.27 L1285.67 1532.4 L1297.73 1532.4 L1297.73 1536.95 L1285.67 1536.95 L1285.67 1556.3 Q1285.67 1560.66 1286.85 1561.9 Q1288.06 1563.14 1291.72 1563.14 L1297.73 1563.14 L1297.73 1568.04 L1291.72 1568.04 Q1284.94 1568.04 1282.36 1565.53 Q1279.78 1562.98 1279.78 1556.3 L1279.78 1536.95 L1275.49 1536.95 L1275.49 1532.4 L1279.78 1532.4 L1279.78 1522.27 L1285.67 1522.27 Z" fill="#000000" fill-rule="nonzero" fill-opacity="1" /><path clip-path="url(#clip420)" d="M1305.44 1532.4 L1311.29 1532.4 L1311.29 1568.04 L1305.44 1568.04 L1305.44 1532.4 M1305.44 1518.52 L1311.29 1518.52 L1311.29 1525.93 L1305.44 1525.93 L1305.44 1518.52 Z" fill="#000000" fill-rule="nonzero" fill-opacity="1" /><path clip-path="url(#clip420)" d="M1337.36 1536.5 Q1332.65 1536.5 1329.91 1540.19 Q1327.17 1543.85 1327.17 1550.25 Q1327.17 1556.65 1329.88 1560.34 Q1332.62 1564 1337.36 1564 Q1342.04 1564 1344.78 1560.31 Q1347.51 1556.62 1347.51 1550.25 Q1347.51 1543.92 1344.78 1540.23 Q1342.04 1536.5 1337.36 1536.5 M1337.36 1531.54 Q1345 1531.54 1349.36 1536.5 Q1353.72 1541.47 1353.72 1550.25 Q1353.72 1559 1349.36 1564 Q1345 1568.97 1337.36 1568.97 Q1329.69 1568.97 1325.33 1564 Q1321 1559 1321 1550.25 Q1321 1541.47 1325.33 1536.5 Q1329.69 1531.54 1337.36 1531.54 Z" fill="#000000" fill-rule="nonzero" fill-opacity="1" /><path clip-path="url(#clip420)" d="M1393.06 1546.53 L1393.06 1568.04 L1387.2 1568.04 L1387.2 1546.72 Q1387.2 1541.66 1385.23 1539.14 Q1383.26 1536.63 1379.31 1536.63 Q1374.57 1536.63 1371.83 1539.65 Q1369.09 1542.68 1369.09 1547.9 L1369.09 1568.04 L1363.2 1568.04 L1363.2 1532.4 L1369.09 1532.4 L1369.09 1537.93 Q1371.19 1534.72 1374.03 1533.13 Q1376.89 1531.54 1380.61 1531.54 Q1386.76 1531.54 1389.91 1535.36 Q1393.06 1539.14 1393.06 1546.53 Z" fill="#000000" fill-rule="nonzero" fill-opacity="1" /><path clip-path="url(#clip420)" d="M1427.47 1533.45 L1427.47 1538.98 Q1424.98 1537.71 1422.31 1537.07 Q1419.64 1536.44 1416.77 1536.44 Q1412.41 1536.44 1410.22 1537.77 Q1408.05 1539.11 1408.05 1541.79 Q1408.05 1543.82 1409.61 1545 Q1411.17 1546.15 1415.88 1547.2 L1417.89 1547.64 Q1424.12 1548.98 1426.73 1551.43 Q1429.38 1553.85 1429.38 1558.21 Q1429.38 1563.17 1425.43 1566.07 Q1421.51 1568.97 1414.64 1568.97 Q1411.77 1568.97 1408.66 1568.39 Q1405.57 1567.85 1402.13 1566.74 L1402.13 1560.69 Q1405.38 1562.38 1408.53 1563.24 Q1411.68 1564.07 1414.77 1564.07 Q1418.9 1564.07 1421.13 1562.66 Q1423.36 1561.23 1423.36 1558.65 Q1423.36 1556.27 1421.74 1554.99 Q1420.15 1553.72 1414.7 1552.54 L1412.67 1552.07 Q1407.22 1550.92 1404.8 1548.56 Q1402.39 1546.18 1402.39 1542.04 Q1402.39 1537.01 1405.95 1534.27 Q1409.51 1531.54 1416.07 1531.54 Q1419.32 1531.54 1422.18 1532.01 Q1425.05 1532.49 1427.47 1533.45 Z" fill="#000000" fill-rule="nonzero" fill-opacity="1" /><polyline clip-path="url(#clip420)" style="stroke:#000000; stroke-linecap:round; stroke-linejoin:round; stroke-width:4; stroke-opacity:1; fill:none" points="205.121,1423.18 205.121,123.472 "/>
<polyline clip-path="url(#clip420)" style="stroke:#000000; stroke-linecap:round; stroke-linejoin:round; stroke-width:4; stroke-opacity:1; fill:none" points="205.121,1390.82 224.019,1390.82 "/>
<polyline clip-path="url(#clip420)" style="stroke:#000000; stroke-linecap:round; stroke-linejoin:round; stroke-width:4; stroke-opacity:1; fill:none" points="205.121,1089.07 224.019,1089.07 "/>
<polyline clip-path="url(#clip420)" style="stroke:#000000; stroke-linecap:round; stroke-linejoin:round; stroke-width:4; stroke-opacity:1; fill:none" points="205.121,787.323 224.019,787.323 "/>
<polyline clip-path="url(#clip420)" style="stroke:#000000; stroke-linecap:round; stroke-linejoin:round; stroke-width:4; stroke-opacity:1; fill:none" points="205.121,485.577 224.019,485.577 "/>
<polyline clip-path="url(#clip420)" style="stroke:#000000; stroke-linecap:round; stroke-linejoin:round; stroke-width:4; stroke-opacity:1; fill:none" points="205.121,183.83 224.019,183.83 "/>
<path clip-path="url(#clip420)" d="M157.177 1376.61 Q153.566 1376.61 151.737 1380.18 Q149.931 1383.72 149.931 1390.85 Q149.931 1397.96 151.737 1401.52 Q153.566 1405.06 157.177 1405.06 Q160.811 1405.06 162.616 1401.52 Q164.445 1397.96 164.445 1390.85 Q164.445 1383.72 162.616 1380.18 Q160.811 1376.61 157.177 1376.61 M157.177 1372.91 Q162.987 1372.91 166.042 1377.52 Q169.121 1382.1 169.121 1390.85 Q169.121 1399.58 166.042 1404.18 Q162.987 1408.77 157.177 1408.77 Q151.366 1408.77 148.288 1404.18 Q145.232 1399.58 145.232 1390.85 Q145.232 1382.1 148.288 1377.52 Q151.366 1372.91 157.177 1372.91 Z" fill="#000000" fill-rule="nonzero" fill-opacity="1" /><path clip-path="url(#clip420)" d="M121.043 1102.41 L137.362 1102.41 L137.362 1106.35 L115.418 1106.35 L115.418 1102.41 Q118.08 1099.66 122.663 1095.03 Q127.269 1090.38 128.45 1089.03 Q130.695 1086.51 131.575 1084.78 Q132.478 1083.02 132.478 1081.33 Q132.478 1078.57 130.533 1076.84 Q128.612 1075.1 125.51 1075.1 Q123.311 1075.1 120.857 1075.86 Q118.427 1076.63 115.649 1078.18 L115.649 1073.46 Q118.473 1072.32 120.927 1071.74 Q123.38 1071.16 125.418 1071.16 Q130.788 1071.16 133.982 1073.85 Q137.177 1076.53 137.177 1081.03 Q137.177 1083.16 136.367 1085.08 Q135.579 1086.97 133.473 1089.57 Q132.894 1090.24 129.792 1093.46 Q126.691 1096.65 121.043 1102.41 Z" fill="#000000" fill-rule="nonzero" fill-opacity="1" /><path clip-path="url(#clip420)" d="M157.177 1074.87 Q153.566 1074.87 151.737 1078.43 Q149.931 1081.97 149.931 1089.1 Q149.931 1096.21 151.737 1099.78 Q153.566 1103.32 157.177 1103.32 Q160.811 1103.32 162.616 1099.78 Q164.445 1096.21 164.445 1089.1 Q164.445 1081.97 162.616 1078.43 Q160.811 1074.87 157.177 1074.87 M157.177 1071.16 Q162.987 1071.16 166.042 1075.77 Q169.121 1080.35 169.121 1089.1 Q169.121 1097.83 166.042 1102.44 Q162.987 1107.02 157.177 1107.02 Q151.366 1107.02 148.288 1102.44 Q145.232 1097.83 145.232 1089.1 Q145.232 1080.35 148.288 1075.77 Q151.366 1071.16 157.177 1071.16 Z" fill="#000000" fill-rule="nonzero" fill-opacity="1" /><path clip-path="url(#clip420)" d="M129.862 774.117 L118.056 792.566 L129.862 792.566 L129.862 774.117 M128.635 770.043 L134.515 770.043 L134.515 792.566 L139.445 792.566 L139.445 796.455 L134.515 796.455 L134.515 804.603 L129.862 804.603 L129.862 796.455 L114.26 796.455 L114.26 791.941 L128.635 770.043 Z" fill="#000000" fill-rule="nonzero" fill-opacity="1" /><path clip-path="url(#clip420)" d="M157.177 773.122 Q153.566 773.122 151.737 776.686 Q149.931 780.228 149.931 787.358 Q149.931 794.464 151.737 798.029 Q153.566 801.571 157.177 801.571 Q160.811 801.571 162.616 798.029 Q164.445 794.464 164.445 787.358 Q164.445 780.228 162.616 776.686 Q160.811 773.122 157.177 773.122 M157.177 769.418 Q162.987 769.418 166.042 774.024 Q169.121 778.608 169.121 787.358 Q169.121 796.085 166.042 800.691 Q162.987 805.274 157.177 805.274 Q151.366 805.274 148.288 800.691 Q145.232 796.085 145.232 787.358 Q145.232 778.608 148.288 774.024 Q151.366 769.418 157.177 769.418 Z" fill="#000000" fill-rule="nonzero" fill-opacity="1" /><path clip-path="url(#clip420)" d="M127.593 483.713 Q124.445 483.713 122.593 485.866 Q120.765 488.019 120.765 491.769 Q120.765 495.496 122.593 497.671 Q124.445 499.824 127.593 499.824 Q130.742 499.824 132.57 497.671 Q134.422 495.496 134.422 491.769 Q134.422 488.019 132.57 485.866 Q130.742 483.713 127.593 483.713 M136.876 469.061 L136.876 473.32 Q135.117 472.486 133.311 472.047 Q131.529 471.607 129.769 471.607 Q125.14 471.607 122.686 474.732 Q120.255 477.857 119.908 484.176 Q121.274 482.162 123.334 481.097 Q125.394 480.01 127.871 480.01 Q133.08 480.01 136.089 483.181 Q139.121 486.329 139.121 491.769 Q139.121 497.093 135.973 500.31 Q132.825 503.528 127.593 503.528 Q121.598 503.528 118.427 498.945 Q115.256 494.338 115.256 485.611 Q115.256 477.417 119.144 472.556 Q123.033 467.672 129.584 467.672 Q131.343 467.672 133.126 468.019 Q134.931 468.366 136.876 469.061 Z" fill="#000000" fill-rule="nonzero" fill-opacity="1" /><path clip-path="url(#clip420)" d="M157.177 471.375 Q153.566 471.375 151.737 474.94 Q149.931 478.482 149.931 485.611 Q149.931 492.718 151.737 496.283 Q153.566 499.824 157.177 499.824 Q160.811 499.824 162.616 496.283 Q164.445 492.718 164.445 485.611 Q164.445 478.482 162.616 474.94 Q160.811 471.375 157.177 471.375 M157.177 467.672 Q162.987 467.672 166.042 472.278 Q169.121 476.861 169.121 485.611 Q169.121 494.338 166.042 498.945 Q162.987 503.528 157.177 503.528 Q151.366 503.528 148.288 498.945 Q145.232 494.338 145.232 485.611 Q145.232 476.861 148.288 472.278 Q151.366 467.672 157.177 467.672 Z" fill="#000000" fill-rule="nonzero" fill-opacity="1" /><path clip-path="url(#clip420)" d="M127.015 184.698 Q123.681 184.698 121.76 186.481 Q119.862 188.263 119.862 191.388 Q119.862 194.513 121.76 196.295 Q123.681 198.078 127.015 198.078 Q130.348 198.078 132.269 196.295 Q134.191 194.49 134.191 191.388 Q134.191 188.263 132.269 186.481 Q130.371 184.698 127.015 184.698 M122.339 182.708 Q119.33 181.967 117.64 179.907 Q115.973 177.846 115.973 174.884 Q115.973 170.74 118.913 168.333 Q121.876 165.925 127.015 165.925 Q132.177 165.925 135.117 168.333 Q138.056 170.74 138.056 174.884 Q138.056 177.846 136.367 179.907 Q134.7 181.967 131.714 182.708 Q135.093 183.495 136.968 185.786 Q138.867 188.078 138.867 191.388 Q138.867 196.411 135.788 199.096 Q132.732 201.782 127.015 201.782 Q121.297 201.782 118.218 199.096 Q115.163 196.411 115.163 191.388 Q115.163 188.078 117.061 185.786 Q118.959 183.495 122.339 182.708 M120.626 175.323 Q120.626 178.009 122.293 179.513 Q123.982 181.018 127.015 181.018 Q130.024 181.018 131.714 179.513 Q133.427 178.009 133.427 175.323 Q133.427 172.638 131.714 171.134 Q130.024 169.629 127.015 169.629 Q123.982 169.629 122.293 171.134 Q120.626 172.638 120.626 175.323 Z" fill="#000000" fill-rule="nonzero" fill-opacity="1" /><path clip-path="url(#clip420)" d="M157.177 169.629 Q153.566 169.629 151.737 173.194 Q149.931 176.735 149.931 183.865 Q149.931 190.971 151.737 194.536 Q153.566 198.078 157.177 198.078 Q160.811 198.078 162.616 194.536 Q164.445 190.971 164.445 183.865 Q164.445 176.735 162.616 173.194 Q160.811 169.629 157.177 169.629 M157.177 165.925 Q162.987 165.925 166.042 170.532 Q169.121 175.115 169.121 183.865 Q169.121 192.592 166.042 197.198 Q162.987 201.782 157.177 201.782 Q151.366 201.782 148.288 197.198 Q145.232 192.592 145.232 183.865 Q145.232 175.115 148.288 170.532 Q151.366 165.925 157.177 165.925 Z" fill="#000000" fill-rule="nonzero" fill-opacity="1" /><path clip-path="url(#clip420)" d="M57.2247 800.492 L44.4614 800.492 L44.4614 810.995 L39.1779 810.995 L39.1779 794.126 L59.58 794.126 Q62.2218 797.85 63.5904 802.338 Q64.9272 806.826 64.9272 811.918 Q64.9272 823.058 58.4342 829.36 Q51.9093 835.63 40.2919 835.63 Q28.6427 835.63 22.1496 829.36 Q15.6248 823.058 15.6248 811.918 Q15.6248 807.271 16.7706 803.102 Q17.9164 798.9 20.1444 795.367 L26.9876 795.367 Q23.9639 798.932 22.4361 802.942 Q20.9083 806.953 20.9083 811.377 Q20.9083 820.098 25.7781 824.49 Q30.6479 828.851 40.2919 828.851 Q49.9041 828.851 54.7739 824.49 Q59.6436 820.098 59.6436 811.377 Q59.6436 807.971 59.0707 805.298 Q58.466 802.624 57.2247 800.492 Z" fill="#000000" fill-rule="nonzero" fill-opacity="1" /><path clip-path="url(#clip420)" d="M46.0847 766.435 Q46.0847 773.533 47.7079 776.27 Q49.3312 779.007 53.2461 779.007 Q56.3653 779.007 58.2114 776.97 Q60.0256 774.901 60.0256 771.369 Q60.0256 766.499 56.5881 763.571 Q53.1188 760.61 47.3897 760.61 L46.0847 760.61 L46.0847 766.435 M43.6657 754.754 L64.0042 754.754 L64.0042 760.61 L58.5933 760.61 Q61.8398 762.616 63.3994 765.608 Q64.9272 768.599 64.9272 772.928 Q64.9272 778.403 61.8716 781.649 Q58.7843 784.864 53.6281 784.864 Q47.6125 784.864 44.5569 780.853 Q41.5014 776.811 41.5014 768.822 L41.5014 760.61 L40.9285 760.61 Q36.8862 760.61 34.6901 763.284 Q32.4621 765.926 32.4621 770.732 Q32.4621 773.787 33.1941 776.684 Q33.9262 779.58 35.3903 782.254 L29.9795 782.254 Q28.7381 779.039 28.1334 776.015 Q27.4968 772.992 27.4968 770.127 Q27.4968 762.393 31.5072 758.573 Q35.5176 754.754 43.6657 754.754 Z" fill="#000000" fill-rule="nonzero" fill-opacity="1" /><path clip-path="url(#clip420)" d="M58.657 737.026 L77.5631 737.026 L77.5631 742.914 L28.3562 742.914 L28.3562 737.026 L33.7671 737.026 Q30.5842 735.179 29.0564 732.379 Q27.4968 729.546 27.4968 725.631 Q27.4968 719.138 32.6531 715.096 Q37.8093 711.022 46.212 711.022 Q54.6147 711.022 59.771 715.096 Q64.9272 719.138 64.9272 725.631 Q64.9272 729.546 63.3994 732.379 Q61.8398 735.179 58.657 737.026 M46.212 717.101 Q39.7508 717.101 36.0905 719.774 Q32.3984 722.416 32.3984 727.063 Q32.3984 731.71 36.0905 734.384 Q39.7508 737.026 46.212 737.026 Q52.6732 737.026 56.3653 734.384 Q60.0256 731.71 60.0256 727.063 Q60.0256 722.416 56.3653 719.774 Q52.6732 717.101 46.212 717.101 Z" fill="#000000" fill-rule="nonzero" fill-opacity="1" /><path clip-path="url(#clip420)" d="M1026.14 12.096 L1077.3 12.096 L1077.3 18.9825 L1055.83 18.9825 L1055.83 72.576 L1047.61 72.576 L1047.61 18.9825 L1026.14 18.9825 L1026.14 12.096 Z" fill="#000000" fill-rule="nonzero" fill-opacity="1" /><path clip-path="url(#clip420)" d="M1098.98 34.1734 Q1097.72 33.4443 1096.22 33.1202 Q1094.76 32.7556 1092.98 32.7556 Q1086.66 32.7556 1083.26 36.8875 Q1079.9 40.9789 1079.9 48.6757 L1079.9 72.576 L1072.4 72.576 L1072.4 27.2059 L1079.9 27.2059 L1079.9 34.2544 Q1082.25 30.1225 1086.01 28.1376 Q1089.78 26.1121 1095.17 26.1121 Q1095.94 26.1121 1096.87 26.2337 Q1097.8 26.3147 1098.94 26.5172 L1098.98 34.1734 Z" fill="#000000" fill-rule="nonzero" fill-opacity="1" /><path clip-path="url(#clip420)" d="M1127.41 49.7694 Q1118.38 49.7694 1114.9 51.8354 Q1111.41 53.9013 1111.41 58.8839 Q1111.41 62.8538 1114.01 65.2034 Q1116.64 67.5124 1121.14 67.5124 Q1127.33 67.5124 1131.06 63.1374 Q1134.83 58.7219 1134.83 51.4303 L1134.83 49.7694 L1127.41 49.7694 M1142.28 46.6907 L1142.28 72.576 L1134.83 72.576 L1134.83 65.6895 Q1132.28 69.8214 1128.47 71.8063 Q1124.66 73.7508 1119.15 73.7508 Q1112.18 73.7508 1108.05 69.8619 Q1103.96 65.9325 1103.96 59.3701 Q1103.96 51.7138 1109.06 47.825 Q1114.21 43.9361 1124.38 43.9361 L1134.83 43.9361 L1134.83 43.2069 Q1134.83 38.0623 1131.42 35.2672 Q1128.06 32.4315 1121.95 32.4315 Q1118.06 32.4315 1114.37 33.3632 Q1110.68 34.295 1107.28 36.1584 L1107.28 29.2718 Q1111.37 27.692 1115.22 26.9223 Q1119.07 26.1121 1122.72 26.1121 Q1132.56 26.1121 1137.42 31.2163 Q1142.28 36.3204 1142.28 46.6907 Z" fill="#000000" fill-rule="nonzero" fill-opacity="1" /><path clip-path="url(#clip420)" d="M1157.63 27.2059 L1165.09 27.2059 L1165.09 72.576 L1157.63 72.576 L1157.63 27.2059 M1157.63 9.54393 L1165.09 9.54393 L1165.09 18.9825 L1157.63 18.9825 L1157.63 9.54393 Z" fill="#000000" fill-rule="nonzero" fill-opacity="1" /><path clip-path="url(#clip420)" d="M1218.4 45.1919 L1218.4 72.576 L1210.94 72.576 L1210.94 45.4349 Q1210.94 38.994 1208.43 35.7938 Q1205.92 32.5936 1200.9 32.5936 Q1194.86 32.5936 1191.38 36.4419 Q1187.89 40.2903 1187.89 46.9338 L1187.89 72.576 L1180.4 72.576 L1180.4 27.2059 L1187.89 27.2059 L1187.89 34.2544 Q1190.57 30.163 1194.17 28.1376 Q1197.82 26.1121 1202.56 26.1121 Q1210.38 26.1121 1214.39 30.9732 Q1218.4 35.7938 1218.4 45.1919 Z" fill="#000000" fill-rule="nonzero" fill-opacity="1" /><path clip-path="url(#clip420)" d="M1233.26 27.2059 L1240.72 27.2059 L1240.72 72.576 L1233.26 72.576 L1233.26 27.2059 M1233.26 9.54393 L1240.72 9.54393 L1240.72 18.9825 L1233.26 18.9825 L1233.26 9.54393 Z" fill="#000000" fill-rule="nonzero" fill-opacity="1" /><path clip-path="url(#clip420)" d="M1294.03 45.1919 L1294.03 72.576 L1286.57 72.576 L1286.57 45.4349 Q1286.57 38.994 1284.06 35.7938 Q1281.55 32.5936 1276.53 32.5936 Q1270.49 32.5936 1267.01 36.4419 Q1263.52 40.2903 1263.52 46.9338 L1263.52 72.576 L1256.03 72.576 L1256.03 27.2059 L1263.52 27.2059 L1263.52 34.2544 Q1266.2 30.163 1269.8 28.1376 Q1273.45 26.1121 1278.19 26.1121 Q1286.01 26.1121 1290.02 30.9732 Q1294.03 35.7938 1294.03 45.1919 Z" fill="#000000" fill-rule="nonzero" fill-opacity="1" /><path clip-path="url(#clip420)" d="M1338.75 49.3643 Q1338.75 41.2625 1335.39 36.8065 Q1332.07 32.3505 1326.03 32.3505 Q1320.03 32.3505 1316.67 36.8065 Q1313.35 41.2625 1313.35 49.3643 Q1313.35 57.4256 1316.67 61.8816 Q1320.03 66.3376 1326.03 66.3376 Q1332.07 66.3376 1335.39 61.8816 Q1338.75 57.4256 1338.75 49.3643 M1346.2 66.9452 Q1346.2 78.5308 1341.06 84.1616 Q1335.91 89.8329 1325.3 89.8329 Q1321.37 89.8329 1317.89 89.2252 Q1314.4 88.6581 1311.12 87.4428 L1311.12 80.1917 Q1314.4 81.9741 1317.6 82.8248 Q1320.8 83.6755 1324.13 83.6755 Q1331.46 83.6755 1335.1 79.8271 Q1338.75 76.0193 1338.75 68.282 L1338.75 64.5957 Q1336.44 68.6061 1332.84 70.5911 Q1329.23 72.576 1324.21 72.576 Q1315.86 72.576 1310.76 66.2161 Q1305.65 59.8562 1305.65 49.3643 Q1305.65 38.832 1310.76 32.472 Q1315.86 26.1121 1324.21 26.1121 Q1329.23 26.1121 1332.84 28.0971 Q1336.44 30.082 1338.75 34.0924 L1338.75 27.2059 L1346.2 27.2059 L1346.2 66.9452 Z" fill="#000000" fill-rule="nonzero" fill-opacity="1" /><path clip-path="url(#clip420)" d="M1417.78 49.3643 Q1417.78 41.2625 1414.42 36.8065 Q1411.1 32.3505 1405.06 32.3505 Q1399.07 32.3505 1395.71 36.8065 Q1392.38 41.2625 1392.38 49.3643 Q1392.38 57.4256 1395.71 61.8816 Q1399.07 66.3376 1405.06 66.3376 Q1411.1 66.3376 1414.42 61.8816 Q1417.78 57.4256 1417.78 49.3643 M1425.24 66.9452 Q1425.24 78.5308 1420.09 84.1616 Q1414.95 89.8329 1404.33 89.8329 Q1400.4 89.8329 1396.92 89.2252 Q1393.44 88.6581 1390.16 87.4428 L1390.16 80.1917 Q1393.44 81.9741 1396.64 82.8248 Q1399.84 83.6755 1403.16 83.6755 Q1410.49 83.6755 1414.14 79.8271 Q1417.78 76.0193 1417.78 68.282 L1417.78 64.5957 Q1415.47 68.6061 1411.87 70.5911 Q1408.26 72.576 1403.24 72.576 Q1394.9 72.576 1389.79 66.2161 Q1384.69 59.8562 1384.69 49.3643 Q1384.69 38.832 1389.79 32.472 Q1394.9 26.1121 1403.24 26.1121 Q1408.26 26.1121 1411.87 28.0971 Q1415.47 30.082 1417.78 34.0924 L1417.78 27.2059 L1425.24 27.2059 L1425.24 66.9452 Z" fill="#000000" fill-rule="nonzero" fill-opacity="1" /><path clip-path="url(#clip420)" d="M1461.21 49.7694 Q1452.18 49.7694 1448.69 51.8354 Q1445.21 53.9013 1445.21 58.8839 Q1445.21 62.8538 1447.8 65.2034 Q1450.43 67.5124 1454.93 67.5124 Q1461.13 67.5124 1464.85 63.1374 Q1468.62 58.7219 1468.62 51.4303 L1468.62 49.7694 L1461.21 49.7694 M1476.08 46.6907 L1476.08 72.576 L1468.62 72.576 L1468.62 65.6895 Q1466.07 69.8214 1462.26 71.8063 Q1458.45 73.7508 1452.95 73.7508 Q1445.98 73.7508 1441.85 69.8619 Q1437.75 65.9325 1437.75 59.3701 Q1437.75 51.7138 1442.86 47.825 Q1448 43.9361 1458.17 43.9361 L1468.62 43.9361 L1468.62 43.2069 Q1468.62 38.0623 1465.22 35.2672 Q1461.86 32.4315 1455.74 32.4315 Q1451.85 32.4315 1448.16 33.3632 Q1444.48 34.295 1441.08 36.1584 L1441.08 29.2718 Q1445.17 27.692 1449.02 26.9223 Q1452.86 26.1121 1456.51 26.1121 Q1466.35 26.1121 1471.21 31.2163 Q1476.08 36.3204 1476.08 46.6907 Z" fill="#000000" fill-rule="nonzero" fill-opacity="1" /><path clip-path="url(#clip420)" d="M1498.64 65.7705 L1498.64 89.8329 L1491.15 89.8329 L1491.15 27.2059 L1498.64 27.2059 L1498.64 34.0924 Q1500.99 30.0415 1504.55 28.0971 Q1508.16 26.1121 1513.14 26.1121 Q1521.41 26.1121 1526.55 32.6746 Q1531.74 39.2371 1531.74 49.9314 Q1531.74 60.6258 1526.55 67.1883 Q1521.41 73.7508 1513.14 73.7508 Q1508.16 73.7508 1504.55 71.8063 Q1500.99 69.8214 1498.64 65.7705 M1524 49.9314 Q1524 41.7081 1520.6 37.0496 Q1517.23 32.3505 1511.32 32.3505 Q1505.4 32.3505 1502 37.0496 Q1498.64 41.7081 1498.64 49.9314 Q1498.64 58.1548 1502 62.8538 Q1505.4 67.5124 1511.32 67.5124 Q1517.23 67.5124 1520.6 62.8538 Q1524 58.1548 1524 49.9314 Z" fill="#000000" fill-rule="nonzero" fill-opacity="1" /><polyline clip-path="url(#clip422)" style="stroke:#009af9; stroke-linecap:round; stroke-linejoin:round; stroke-width:4; stroke-opacity:1; fill:none" points="265.903,1063.61 372.538,1116.89 479.174,1116.89 585.809,1146.12 692.444,1063.61 799.08,1215.43 905.715,1236.17 1012.35,1224.38 1118.99,1292.1 1225.62,1323.04 1332.26,1330.41 1438.89,1340.72 1545.53,1343.67 1652.16,1362.82 1758.8,1376.08 1865.43,1386.4 1972.07,1381.98 2078.7,1379.03 2185.34,1386.4 2291.97,1381.98 "/>
<polyline clip-path="url(#clip422)" style="stroke:#e26f46; stroke-linecap:round; stroke-linejoin:round; stroke-width:4; stroke-opacity:1; fill:none" points="265.903,1066.67 372.538,1105.1 479.174,1085.77 585.809,1040.04 692.444,1181.6 799.08,1228.74 905.715,1147.77 1012.35,1237.59 1118.99,1308.31 1225.62,1323.04 1332.26,1339.25 1438.89,1327.46 1545.53,1231.69 1652.16,1348.09 1758.8,1337.77 1865.43,1374.61 1972.07,1386.4 2078.7,1376.08 2185.34,1386.4 2291.97,1383.45 "/>
<polyline clip-path="url(#clip422)" style="stroke:#3da44d; stroke-linecap:round; stroke-linejoin:round; stroke-width:4; stroke-opacity:1; fill:none" points="265.903,1010.8 372.538,1028.25 479.174,1047.58 585.809,1034.38 692.444,1020.94 799.08,1088.83 905.715,972.378 1012.35,1135.98 1118.99,1035.79 1225.62,1091.66 1332.26,1097.56 1438.89,1085.77 1545.53,1125.61 1652.16,1199.28 1758.8,1224.38 1865.43,1227.21 1972.07,1262.57 2078.7,1118.3 2185.34,1264.11 2291.97,1246.43 "/>
<polyline clip-path="url(#clip422)" style="stroke:#c271d2; stroke-linecap:round; stroke-linejoin:round; stroke-width:4; stroke-opacity:1; fill:none" points="265.903,160.256 372.538,322.445 479.174,580.344 585.809,605.332 692.444,646.822 799.08,782.137 905.715,712.829 1012.35,910.379 1118.99,717.544 1225.62,574.686 1332.26,770.35 1438.89,773.65 1545.53,851.444 1652.16,932.538 1758.8,913.444 1865.43,999.017 1972.07,935.603 2078.7,962.006 2185.34,916.508 2291.97,931.124 "/>
<path clip-path="url(#clip420)" d="M1433.12 425.996 L2281.17 425.996 L2281.17 166.796 L1433.12 166.796  Z" fill="#ffffff" fill-rule="evenodd" fill-opacity="1"/>
<polyline clip-path="url(#clip420)" style="stroke:#000000; stroke-linecap:round; stroke-linejoin:round; stroke-width:4; stroke-opacity:1; fill:none" points="1433.12,425.996 2281.17,425.996 2281.17,166.796 1433.12,166.796 1433.12,425.996 "/>
<polyline clip-path="url(#clip420)" style="stroke:#009af9; stroke-linecap:round; stroke-linejoin:round; stroke-width:4; stroke-opacity:1; fill:none" points="1456.98,218.636 1600.16,218.636 "/>
<path clip-path="url(#clip420)" d="M1624.02 201.356 L1643.88 201.356 L1643.88 205.291 L1628.7 205.291 L1628.7 215.476 L1642.4 215.476 L1642.4 219.411 L1628.7 219.411 L1628.7 235.916 L1624.02 235.916 L1624.02 201.356 Z" fill="#000000" fill-rule="nonzero" fill-opacity="1" /><path clip-path="url(#clip420)" d="M1646.54 201.356 L1651.57 201.356 L1661.15 215.569 L1670.67 201.356 L1675.69 201.356 L1663.47 219.457 L1663.47 235.916 L1658.77 235.916 L1658.77 219.457 L1646.54 201.356 Z" fill="#000000" fill-rule="nonzero" fill-opacity="1" /><path clip-path="url(#clip420)" d="M1680.25 201.356 L1684.92 201.356 L1684.92 231.981 L1701.75 231.981 L1701.75 235.916 L1680.25 235.916 L1680.25 201.356 Z" fill="#000000" fill-rule="nonzero" fill-opacity="1" /><path clip-path="url(#clip420)" d="M1719.39 221.032 L1731.87 221.032 L1731.87 224.828 L1719.39 224.828 L1719.39 221.032 Z" fill="#000000" fill-rule="nonzero" fill-opacity="1" /><path clip-path="url(#clip420)" d="M1765.46 205.962 L1759.11 223.161 L1771.82 223.161 L1765.46 205.962 M1762.82 201.356 L1768.12 201.356 L1781.29 235.916 L1776.43 235.916 L1773.28 227.05 L1757.7 227.05 L1754.55 235.916 L1749.62 235.916 L1762.82 201.356 Z" fill="#000000" fill-rule="nonzero" fill-opacity="1" /><path clip-path="url(#clip420)" d="M1802.38 213.925 L1802.38 199.897 L1806.64 199.897 L1806.64 235.916 L1802.38 235.916 L1802.38 232.027 Q1801.03 234.342 1798.97 235.476 Q1796.94 236.587 1794.07 236.587 Q1789.37 236.587 1786.41 232.837 Q1783.47 229.087 1783.47 222.976 Q1783.47 216.865 1786.41 213.115 Q1789.37 209.365 1794.07 209.365 Q1796.94 209.365 1798.97 210.499 Q1801.03 211.61 1802.38 213.925 M1787.86 222.976 Q1787.86 227.675 1789.78 230.36 Q1791.73 233.022 1795.11 233.022 Q1798.49 233.022 1800.43 230.36 Q1802.38 227.675 1802.38 222.976 Q1802.38 218.277 1800.43 215.615 Q1798.49 212.93 1795.11 212.93 Q1791.73 212.93 1789.78 215.615 Q1787.86 218.277 1787.86 222.976 Z" fill="#000000" fill-rule="nonzero" fill-opacity="1" /><path clip-path="url(#clip420)" d="M1832.47 213.925 L1832.47 199.897 L1836.73 199.897 L1836.73 235.916 L1832.47 235.916 L1832.47 232.027 Q1831.13 234.342 1829.07 235.476 Q1827.03 236.587 1824.16 236.587 Q1819.46 236.587 1816.5 232.837 Q1813.56 229.087 1813.56 222.976 Q1813.56 216.865 1816.5 213.115 Q1819.46 209.365 1824.16 209.365 Q1827.03 209.365 1829.07 210.499 Q1831.13 211.61 1832.47 213.925 M1817.96 222.976 Q1817.96 227.675 1819.88 230.36 Q1821.82 233.022 1825.2 233.022 Q1828.58 233.022 1830.53 230.36 Q1832.47 227.675 1832.47 222.976 Q1832.47 218.277 1830.53 215.615 Q1828.58 212.93 1825.2 212.93 Q1821.82 212.93 1819.88 215.615 Q1817.96 218.277 1817.96 222.976 Z" fill="#000000" fill-rule="nonzero" fill-opacity="1" /><path clip-path="url(#clip420)" d="M1845.5 209.99 L1849.76 209.99 L1849.76 235.916 L1845.5 235.916 L1845.5 209.99 M1845.5 199.897 L1849.76 199.897 L1849.76 205.291 L1845.5 205.291 L1845.5 199.897 Z" fill="#000000" fill-rule="nonzero" fill-opacity="1" /><path clip-path="url(#clip420)" d="M1862.89 202.629 L1862.89 209.99 L1871.66 209.99 L1871.66 213.3 L1862.89 213.3 L1862.89 227.374 Q1862.89 230.545 1863.74 231.448 Q1864.62 232.351 1867.28 232.351 L1871.66 232.351 L1871.66 235.916 L1867.28 235.916 Q1862.35 235.916 1860.48 234.087 Q1858.6 232.235 1858.6 227.374 L1858.6 213.3 L1855.48 213.3 L1855.48 209.99 L1858.6 209.99 L1858.6 202.629 L1862.89 202.629 Z" fill="#000000" fill-rule="nonzero" fill-opacity="1" /><path clip-path="url(#clip420)" d="M1877.26 209.99 L1881.52 209.99 L1881.52 235.916 L1877.26 235.916 L1877.26 209.99 M1877.26 199.897 L1881.52 199.897 L1881.52 205.291 L1877.26 205.291 L1877.26 199.897 Z" fill="#000000" fill-rule="nonzero" fill-opacity="1" /><path clip-path="url(#clip420)" d="M1887.38 209.99 L1891.89 209.99 L1899.99 231.749 L1908.09 209.99 L1912.61 209.99 L1902.89 235.916 L1897.1 235.916 L1887.38 209.99 Z" fill="#000000" fill-rule="nonzero" fill-opacity="1" /><path clip-path="url(#clip420)" d="M1940.66 221.888 L1940.66 223.971 L1921.08 223.971 Q1921.36 228.369 1923.72 230.684 Q1926.1 232.976 1930.34 232.976 Q1932.79 232.976 1935.08 232.374 Q1937.4 231.772 1939.67 230.569 L1939.67 234.596 Q1937.38 235.568 1934.97 236.078 Q1932.56 236.587 1930.08 236.587 Q1923.88 236.587 1920.25 232.976 Q1916.64 229.365 1916.64 223.207 Q1916.64 216.842 1920.06 213.115 Q1923.51 209.365 1929.34 209.365 Q1934.58 209.365 1937.61 212.745 Q1940.66 216.101 1940.66 221.888 M1936.4 220.638 Q1936.36 217.143 1934.44 215.059 Q1932.54 212.976 1929.39 212.976 Q1925.83 212.976 1923.67 214.99 Q1921.54 217.004 1921.22 220.661 L1936.4 220.638 Z" fill="#000000" fill-rule="nonzero" fill-opacity="1" /><polyline clip-path="url(#clip420)" style="stroke:#e26f46; stroke-linecap:round; stroke-linejoin:round; stroke-width:4; stroke-opacity:1; fill:none" points="1456.98,270.476 1600.16,270.476 "/>
<path clip-path="url(#clip420)" d="M1624.02 253.196 L1643.88 253.196 L1643.88 257.131 L1628.7 257.131 L1628.7 267.316 L1642.4 267.316 L1642.4 271.251 L1628.7 271.251 L1628.7 287.756 L1624.02 287.756 L1624.02 253.196 Z" fill="#000000" fill-rule="nonzero" fill-opacity="1" /><path clip-path="url(#clip420)" d="M1646.54 253.196 L1651.57 253.196 L1661.15 267.409 L1670.67 253.196 L1675.69 253.196 L1663.47 271.297 L1663.47 287.756 L1658.77 287.756 L1658.77 271.297 L1646.54 253.196 Z" fill="#000000" fill-rule="nonzero" fill-opacity="1" /><path clip-path="url(#clip420)" d="M1680.25 253.196 L1684.92 253.196 L1684.92 283.821 L1701.75 283.821 L1701.75 287.756 L1680.25 287.756 L1680.25 253.196 Z" fill="#000000" fill-rule="nonzero" fill-opacity="1" /><path clip-path="url(#clip420)" d="M1719.39 272.872 L1731.87 272.872 L1731.87 276.668 L1719.39 276.668 L1719.39 272.872 Z" fill="#000000" fill-rule="nonzero" fill-opacity="1" /><path clip-path="url(#clip420)" d="M1753.91 253.196 L1760.87 253.196 L1769.69 276.714 L1778.56 253.196 L1785.53 253.196 L1785.53 287.756 L1780.97 287.756 L1780.97 257.409 L1772.05 281.112 L1767.35 281.112 L1758.44 257.409 L1758.44 287.756 L1753.91 287.756 L1753.91 253.196 Z" fill="#000000" fill-rule="nonzero" fill-opacity="1" /><path clip-path="url(#clip420)" d="M1794.18 277.524 L1794.18 261.83 L1798.44 261.83 L1798.44 277.362 Q1798.44 281.043 1799.88 282.895 Q1801.31 284.723 1804.18 284.723 Q1807.63 284.723 1809.62 282.524 Q1811.64 280.325 1811.64 276.529 L1811.64 261.83 L1815.9 261.83 L1815.9 287.756 L1811.64 287.756 L1811.64 283.774 Q1810.09 286.135 1808.03 287.293 Q1805.99 288.427 1803.28 288.427 Q1798.81 288.427 1796.5 285.649 Q1794.18 282.871 1794.18 277.524 M1804.9 261.205 L1804.9 261.205 Z" fill="#000000" fill-rule="nonzero" fill-opacity="1" /><path clip-path="url(#clip420)" d="M1824.67 251.737 L1828.93 251.737 L1828.93 287.756 L1824.67 287.756 L1824.67 251.737 Z" fill="#000000" fill-rule="nonzero" fill-opacity="1" /><path clip-path="url(#clip420)" d="M1842.05 254.469 L1842.05 261.83 L1850.83 261.83 L1850.83 265.14 L1842.05 265.14 L1842.05 279.214 Q1842.05 282.385 1842.91 283.288 Q1843.79 284.191 1846.45 284.191 L1850.83 284.191 L1850.83 287.756 L1846.45 287.756 Q1841.52 287.756 1839.65 285.927 Q1837.77 284.075 1837.77 279.214 L1837.77 265.14 L1834.65 265.14 L1834.65 261.83 L1837.77 261.83 L1837.77 254.469 L1842.05 254.469 Z" fill="#000000" fill-rule="nonzero" fill-opacity="1" /><path clip-path="url(#clip420)" d="M1856.43 261.83 L1860.69 261.83 L1860.69 287.756 L1856.43 287.756 L1856.43 261.83 M1856.43 251.737 L1860.69 251.737 L1860.69 257.131 L1856.43 257.131 L1856.43 251.737 Z" fill="#000000" fill-rule="nonzero" fill-opacity="1" /><path clip-path="url(#clip420)" d="M1873.72 283.867 L1873.72 297.617 L1869.44 297.617 L1869.44 261.83 L1873.72 261.83 L1873.72 265.765 Q1875.06 263.45 1877.1 262.339 Q1879.16 261.205 1882.01 261.205 Q1886.73 261.205 1889.67 264.955 Q1892.63 268.705 1892.63 274.816 Q1892.63 280.927 1889.67 284.677 Q1886.73 288.427 1882.01 288.427 Q1879.16 288.427 1877.1 287.316 Q1875.06 286.182 1873.72 283.867 M1888.21 274.816 Q1888.21 270.117 1886.27 267.455 Q1884.34 264.77 1880.96 264.77 Q1877.59 264.77 1875.64 267.455 Q1873.72 270.117 1873.72 274.816 Q1873.72 279.515 1875.64 282.2 Q1877.59 284.862 1880.96 284.862 Q1884.34 284.862 1886.27 282.2 Q1888.21 279.515 1888.21 274.816 Z" fill="#000000" fill-rule="nonzero" fill-opacity="1" /><path clip-path="url(#clip420)" d="M1899.69 251.737 L1903.95 251.737 L1903.95 287.756 L1899.69 287.756 L1899.69 251.737 Z" fill="#000000" fill-rule="nonzero" fill-opacity="1" /><path clip-path="url(#clip420)" d="M1912.86 261.83 L1917.12 261.83 L1917.12 287.756 L1912.86 287.756 L1912.86 261.83 M1912.86 251.737 L1917.12 251.737 L1917.12 257.131 L1912.86 257.131 L1912.86 251.737 Z" fill="#000000" fill-rule="nonzero" fill-opacity="1" /><path clip-path="url(#clip420)" d="M1944.69 262.825 L1944.69 266.807 Q1942.89 265.811 1941.06 265.325 Q1939.25 264.816 1937.4 264.816 Q1933.26 264.816 1930.96 267.455 Q1928.67 270.071 1928.67 274.816 Q1928.67 279.561 1930.96 282.2 Q1933.26 284.816 1937.4 284.816 Q1939.25 284.816 1941.06 284.33 Q1942.89 283.821 1944.69 282.825 L1944.69 286.76 Q1942.91 287.594 1940.99 288.01 Q1939.09 288.427 1936.94 288.427 Q1931.08 288.427 1927.63 284.746 Q1924.18 281.066 1924.18 274.816 Q1924.18 268.473 1927.65 264.839 Q1931.15 261.205 1937.21 261.205 Q1939.18 261.205 1941.06 261.622 Q1942.93 262.015 1944.69 262.825 Z" fill="#000000" fill-rule="nonzero" fill-opacity="1" /><path clip-path="url(#clip420)" d="M1963.88 274.723 Q1958.72 274.723 1956.73 275.904 Q1954.74 277.084 1954.74 279.932 Q1954.74 282.2 1956.22 283.543 Q1957.72 284.862 1960.29 284.862 Q1963.83 284.862 1965.96 282.362 Q1968.12 279.839 1968.12 275.672 L1968.12 274.723 L1963.88 274.723 M1972.38 272.964 L1972.38 287.756 L1968.12 287.756 L1968.12 283.821 Q1966.66 286.182 1964.48 287.316 Q1962.31 288.427 1959.16 288.427 Q1955.18 288.427 1952.82 286.205 Q1950.48 283.959 1950.48 280.209 Q1950.48 275.834 1953.4 273.612 Q1956.33 271.39 1962.15 271.39 L1968.12 271.39 L1968.12 270.973 Q1968.12 268.034 1966.17 266.436 Q1964.25 264.816 1960.76 264.816 Q1958.53 264.816 1956.43 265.348 Q1954.32 265.881 1952.38 266.946 L1952.38 263.01 Q1954.71 262.108 1956.91 261.668 Q1959.11 261.205 1961.2 261.205 Q1966.82 261.205 1969.6 264.122 Q1972.38 267.038 1972.38 272.964 Z" fill="#000000" fill-rule="nonzero" fill-opacity="1" /><path clip-path="url(#clip420)" d="M1985.36 254.469 L1985.36 261.83 L1994.14 261.83 L1994.14 265.14 L1985.36 265.14 L1985.36 279.214 Q1985.36 282.385 1986.22 283.288 Q1987.1 284.191 1989.76 284.191 L1994.14 284.191 L1994.14 287.756 L1989.76 287.756 Q1984.83 287.756 1982.96 285.927 Q1981.08 284.075 1981.08 279.214 L1981.08 265.14 L1977.96 265.14 L1977.96 261.83 L1981.08 261.83 L1981.08 254.469 L1985.36 254.469 Z" fill="#000000" fill-rule="nonzero" fill-opacity="1" /><path clip-path="url(#clip420)" d="M1999.74 261.83 L2004 261.83 L2004 287.756 L1999.74 287.756 L1999.74 261.83 M1999.74 251.737 L2004 251.737 L2004 257.131 L1999.74 257.131 L1999.74 251.737 Z" fill="#000000" fill-rule="nonzero" fill-opacity="1" /><path clip-path="url(#clip420)" d="M2009.85 261.83 L2014.37 261.83 L2022.47 283.589 L2030.57 261.83 L2035.08 261.83 L2025.36 287.756 L2019.58 287.756 L2009.85 261.83 Z" fill="#000000" fill-rule="nonzero" fill-opacity="1" /><path clip-path="url(#clip420)" d="M2063.14 273.728 L2063.14 275.811 L2043.56 275.811 Q2043.83 280.209 2046.2 282.524 Q2048.58 284.816 2052.82 284.816 Q2055.27 284.816 2057.56 284.214 Q2059.88 283.612 2062.14 282.409 L2062.14 286.436 Q2059.85 287.408 2057.45 287.918 Q2055.04 288.427 2052.56 288.427 Q2046.36 288.427 2042.72 284.816 Q2039.11 281.205 2039.11 275.047 Q2039.11 268.682 2042.54 264.955 Q2045.99 261.205 2051.82 261.205 Q2057.05 261.205 2060.08 264.585 Q2063.14 267.941 2063.14 273.728 M2058.88 272.478 Q2058.83 268.983 2056.91 266.899 Q2055.01 264.816 2051.87 264.816 Q2048.3 264.816 2046.15 266.83 Q2044.02 268.844 2043.7 272.501 L2058.88 272.478 Z" fill="#000000" fill-rule="nonzero" fill-opacity="1" /><polyline clip-path="url(#clip420)" style="stroke:#3da44d; stroke-linecap:round; stroke-linejoin:round; stroke-width:4; stroke-opacity:1; fill:none" points="1456.98,322.316 1600.16,322.316 "/>
<path clip-path="url(#clip420)" d="M1646.27 306.17 L1646.27 310.73 Q1643.61 309.457 1641.24 308.832 Q1638.88 308.207 1636.68 308.207 Q1632.86 308.207 1630.78 309.688 Q1628.72 311.17 1628.72 313.901 Q1628.72 316.193 1630.09 317.374 Q1631.48 318.531 1635.32 319.249 L1638.14 319.827 Q1643.37 320.823 1645.85 323.346 Q1648.35 325.846 1648.35 330.059 Q1648.35 335.082 1644.97 337.674 Q1641.61 340.267 1635.11 340.267 Q1632.66 340.267 1629.88 339.711 Q1627.12 339.156 1624.16 338.068 L1624.16 333.253 Q1627.01 334.85 1629.74 335.661 Q1632.47 336.471 1635.11 336.471 Q1639.11 336.471 1641.29 334.897 Q1643.47 333.323 1643.47 330.406 Q1643.47 327.86 1641.89 326.424 Q1640.34 324.989 1636.78 324.272 L1633.93 323.716 Q1628.7 322.675 1626.36 320.452 Q1624.02 318.23 1624.02 314.272 Q1624.02 309.688 1627.24 307.05 Q1630.48 304.411 1636.15 304.411 Q1638.58 304.411 1641.11 304.851 Q1643.63 305.29 1646.27 306.17 Z" fill="#000000" fill-rule="nonzero" fill-opacity="1" /><path clip-path="url(#clip420)" d="M1660.32 308.878 L1660.32 321.864 L1666.2 321.864 Q1669.46 321.864 1671.24 320.175 Q1673.03 318.485 1673.03 315.36 Q1673.03 312.258 1671.24 310.568 Q1669.46 308.878 1666.2 308.878 L1660.32 308.878 M1655.64 305.036 L1666.2 305.036 Q1672.01 305.036 1674.97 307.675 Q1677.96 310.29 1677.96 315.36 Q1677.96 320.475 1674.97 323.091 Q1672.01 325.707 1666.2 325.707 L1660.32 325.707 L1660.32 339.596 L1655.64 339.596 L1655.64 305.036 Z" fill="#000000" fill-rule="nonzero" fill-opacity="1" /><path clip-path="url(#clip420)" d="M1698.26 308.207 Q1693.16 308.207 1690.16 312.003 Q1687.17 315.8 1687.17 322.35 Q1687.17 328.878 1690.16 332.674 Q1693.16 336.471 1698.26 336.471 Q1703.35 336.471 1706.31 332.674 Q1709.3 328.878 1709.3 322.35 Q1709.3 315.8 1706.31 312.003 Q1703.35 308.207 1698.26 308.207 M1698.26 304.411 Q1705.53 304.411 1709.88 309.295 Q1714.23 314.156 1714.23 322.35 Q1714.23 330.522 1709.88 335.406 Q1705.53 340.267 1698.26 340.267 Q1690.97 340.267 1686.59 335.406 Q1682.24 330.545 1682.24 322.35 Q1682.24 314.156 1686.59 309.295 Q1690.97 304.411 1698.26 304.411 Z" fill="#000000" fill-rule="nonzero" fill-opacity="1" /><path clip-path="url(#clip420)" d="M1726.22 308.878 L1726.22 321.864 L1732.1 321.864 Q1735.36 321.864 1737.15 320.175 Q1738.93 318.485 1738.93 315.36 Q1738.93 312.258 1737.15 310.568 Q1735.36 308.878 1732.1 308.878 L1726.22 308.878 M1721.54 305.036 L1732.1 305.036 Q1737.91 305.036 1740.87 307.675 Q1743.86 310.29 1743.86 315.36 Q1743.86 320.475 1740.87 323.091 Q1737.91 325.707 1732.1 325.707 L1726.22 325.707 L1726.22 339.596 L1721.54 339.596 L1721.54 305.036 Z" fill="#000000" fill-rule="nonzero" fill-opacity="1" /><polyline clip-path="url(#clip420)" style="stroke:#c271d2; stroke-linecap:round; stroke-linejoin:round; stroke-width:4; stroke-opacity:1; fill:none" points="1456.98,374.156 1600.16,374.156 "/>
<path clip-path="url(#clip420)" d="M1624.02 356.876 L1645.87 356.876 L1645.87 360.811 L1628.7 360.811 L1628.7 371.042 L1645.16 371.042 L1645.16 374.977 L1628.7 374.977 L1628.7 387.501 L1646.29 387.501 L1646.29 391.436 L1624.02 391.436 L1624.02 356.876 Z" fill="#000000" fill-rule="nonzero" fill-opacity="1" /><path clip-path="url(#clip420)" d="M1673.98 370.487 Q1675.57 367.616 1677.79 366.251 Q1680.02 364.885 1683.03 364.885 Q1687.08 364.885 1689.28 367.732 Q1691.48 370.556 1691.48 375.788 L1691.48 391.436 L1687.19 391.436 L1687.19 375.927 Q1687.19 372.2 1685.87 370.394 Q1684.55 368.589 1681.85 368.589 Q1678.54 368.589 1676.61 370.788 Q1674.69 372.987 1674.69 376.783 L1674.69 391.436 L1670.41 391.436 L1670.41 375.927 Q1670.41 372.177 1669.09 370.394 Q1667.77 368.589 1665.02 368.589 Q1661.75 368.589 1659.83 370.811 Q1657.91 373.01 1657.91 376.783 L1657.91 391.436 L1653.63 391.436 L1653.63 365.51 L1657.91 365.51 L1657.91 369.538 Q1659.37 367.153 1661.41 366.019 Q1663.44 364.885 1666.24 364.885 Q1669.07 364.885 1671.04 366.32 Q1673.03 367.755 1673.98 370.487 Z" fill="#000000" fill-rule="nonzero" fill-opacity="1" /><path clip-path="url(#clip420)" d="M1704.09 387.547 L1704.09 401.297 L1699.81 401.297 L1699.81 365.51 L1704.09 365.51 L1704.09 369.445 Q1705.43 367.13 1707.47 366.019 Q1709.53 364.885 1712.38 364.885 Q1717.1 364.885 1720.04 368.635 Q1723 372.385 1723 378.496 Q1723 384.607 1720.04 388.357 Q1717.1 392.107 1712.38 392.107 Q1709.53 392.107 1707.47 390.996 Q1705.43 389.862 1704.09 387.547 M1718.58 378.496 Q1718.58 373.797 1716.64 371.135 Q1714.72 368.45 1711.34 368.45 Q1707.96 368.45 1706.01 371.135 Q1704.09 373.797 1704.09 378.496 Q1704.09 383.195 1706.01 385.88 Q1707.96 388.542 1711.34 388.542 Q1714.72 388.542 1716.64 385.88 Q1718.58 383.195 1718.58 378.496 Z" fill="#000000" fill-rule="nonzero" fill-opacity="1" /><path clip-path="url(#clip420)" d="M1730.06 365.51 L1734.32 365.51 L1734.32 391.436 L1730.06 391.436 L1730.06 365.51 M1730.06 355.417 L1734.32 355.417 L1734.32 360.811 L1730.06 360.811 L1730.06 355.417 Z" fill="#000000" fill-rule="nonzero" fill-opacity="1" /><path clip-path="url(#clip420)" d="M1758.26 369.491 Q1757.54 369.075 1756.68 368.89 Q1755.85 368.681 1754.83 368.681 Q1751.22 368.681 1749.28 371.042 Q1747.35 373.38 1747.35 377.778 L1747.35 391.436 L1743.07 391.436 L1743.07 365.51 L1747.35 365.51 L1747.35 369.538 Q1748.7 367.177 1750.85 366.042 Q1753 364.885 1756.08 364.885 Q1756.52 364.885 1757.05 364.954 Q1757.59 365.001 1758.23 365.116 L1758.26 369.491 Z" fill="#000000" fill-rule="nonzero" fill-opacity="1" /><path clip-path="url(#clip420)" d="M1762.72 365.51 L1766.98 365.51 L1766.98 391.436 L1762.72 391.436 L1762.72 365.51 M1762.72 355.417 L1766.98 355.417 L1766.98 360.811 L1762.72 360.811 L1762.72 355.417 Z" fill="#000000" fill-rule="nonzero" fill-opacity="1" /><path clip-path="url(#clip420)" d="M1794.55 366.505 L1794.55 370.487 Q1792.75 369.491 1790.92 369.005 Q1789.11 368.496 1787.26 368.496 Q1783.12 368.496 1780.83 371.135 Q1778.53 373.751 1778.53 378.496 Q1778.53 383.241 1780.83 385.88 Q1783.12 388.496 1787.26 388.496 Q1789.11 388.496 1790.92 388.01 Q1792.75 387.501 1794.55 386.505 L1794.55 390.44 Q1792.77 391.274 1790.85 391.69 Q1788.95 392.107 1786.8 392.107 Q1780.94 392.107 1777.49 388.426 Q1774.04 384.746 1774.04 378.496 Q1774.04 372.153 1777.52 368.519 Q1781.01 364.885 1787.08 364.885 Q1789.04 364.885 1790.92 365.302 Q1792.79 365.695 1794.55 366.505 Z" fill="#000000" fill-rule="nonzero" fill-opacity="1" /><path clip-path="url(#clip420)" d="M1813.74 378.403 Q1808.58 378.403 1806.59 379.584 Q1804.6 380.764 1804.6 383.612 Q1804.6 385.88 1806.08 387.223 Q1807.59 388.542 1810.16 388.542 Q1813.7 388.542 1815.83 386.042 Q1817.98 383.519 1817.98 379.352 L1817.98 378.403 L1813.74 378.403 M1822.24 376.644 L1822.24 391.436 L1817.98 391.436 L1817.98 387.501 Q1816.52 389.862 1814.34 390.996 Q1812.17 392.107 1809.02 392.107 Q1805.04 392.107 1802.68 389.885 Q1800.34 387.639 1800.34 383.889 Q1800.34 379.514 1803.26 377.292 Q1806.2 375.07 1812.01 375.07 L1817.98 375.07 L1817.98 374.653 Q1817.98 371.714 1816.03 370.116 Q1814.11 368.496 1810.62 368.496 Q1808.4 368.496 1806.29 369.028 Q1804.18 369.561 1802.24 370.626 L1802.24 366.69 Q1804.58 365.788 1806.78 365.348 Q1808.97 364.885 1811.06 364.885 Q1816.68 364.885 1819.46 367.802 Q1822.24 370.718 1822.24 376.644 Z" fill="#000000" fill-rule="nonzero" fill-opacity="1" /><path clip-path="url(#clip420)" d="M1831.01 355.417 L1835.27 355.417 L1835.27 391.436 L1831.01 391.436 L1831.01 355.417 Z" fill="#000000" fill-rule="nonzero" fill-opacity="1" /><path clip-path="url(#clip420)" d="M1874.28 369.491 Q1873.56 369.075 1872.7 368.89 Q1871.87 368.681 1870.85 368.681 Q1867.24 368.681 1865.29 371.042 Q1863.37 373.38 1863.37 377.778 L1863.37 391.436 L1859.09 391.436 L1859.09 365.51 L1863.37 365.51 L1863.37 369.538 Q1864.71 367.177 1866.87 366.042 Q1869.02 364.885 1872.1 364.885 Q1872.54 364.885 1873.07 364.954 Q1873.6 365.001 1874.25 365.116 L1874.28 369.491 Z" fill="#000000" fill-rule="nonzero" fill-opacity="1" /><path clip-path="url(#clip420)" d="M1878.74 365.51 L1883 365.51 L1883 391.436 L1878.74 391.436 L1878.74 365.51 M1878.74 355.417 L1883 355.417 L1883 360.811 L1878.74 360.811 L1878.74 355.417 Z" fill="#000000" fill-rule="nonzero" fill-opacity="1" /><path clip-path="url(#clip420)" d="M1908.44 366.274 L1908.44 370.302 Q1906.64 369.376 1904.69 368.913 Q1902.75 368.45 1900.66 368.45 Q1897.49 368.45 1895.9 369.422 Q1894.32 370.394 1894.32 372.339 Q1894.32 373.82 1895.46 374.677 Q1896.59 375.51 1900.02 376.274 L1901.47 376.598 Q1906.01 377.57 1907.91 379.352 Q1909.83 381.112 1909.83 384.283 Q1909.83 387.894 1906.96 390.001 Q1904.11 392.107 1899.11 392.107 Q1897.03 392.107 1894.76 391.69 Q1892.52 391.297 1890.02 390.487 L1890.02 386.089 Q1892.38 387.315 1894.67 387.94 Q1896.96 388.542 1899.21 388.542 Q1902.21 388.542 1903.84 387.524 Q1905.46 386.482 1905.46 384.607 Q1905.46 382.871 1904.27 381.945 Q1903.12 381.019 1899.16 380.163 L1897.68 379.815 Q1893.72 378.982 1891.96 377.269 Q1890.2 375.533 1890.2 372.524 Q1890.2 368.866 1892.79 366.876 Q1895.39 364.885 1900.15 364.885 Q1902.52 364.885 1904.6 365.232 Q1906.68 365.579 1908.44 366.274 Z" fill="#000000" fill-rule="nonzero" fill-opacity="1" /><path clip-path="url(#clip420)" d="M1916.45 355.417 L1920.73 355.417 L1920.73 376.69 L1933.44 365.51 L1938.88 365.51 L1925.13 377.639 L1939.46 391.436 L1933.9 391.436 L1920.73 378.774 L1920.73 391.436 L1916.45 391.436 L1916.45 355.417 Z" fill="#000000" fill-rule="nonzero" fill-opacity="1" /><path clip-path="url(#clip420)" d="M1979.32 370.487 Q1980.92 367.616 1983.14 366.251 Q1985.36 364.885 1988.37 364.885 Q1992.42 364.885 1994.62 367.732 Q1996.82 370.556 1996.82 375.788 L1996.82 391.436 L1992.54 391.436 L1992.54 375.927 Q1992.54 372.2 1991.22 370.394 Q1989.9 368.589 1987.19 368.589 Q1983.88 368.589 1981.96 370.788 Q1980.04 372.987 1980.04 376.783 L1980.04 391.436 L1975.76 391.436 L1975.76 375.927 Q1975.76 372.177 1974.44 370.394 Q1973.12 368.589 1970.36 368.589 Q1967.1 368.589 1965.18 370.811 Q1963.26 373.01 1963.26 376.783 L1963.26 391.436 L1958.97 391.436 L1958.97 365.51 L1963.26 365.51 L1963.26 369.538 Q1964.71 367.153 1966.75 366.019 Q1968.79 364.885 1971.59 364.885 Q1974.41 364.885 1976.38 366.32 Q1978.37 367.755 1979.32 370.487 Z" fill="#000000" fill-rule="nonzero" fill-opacity="1" /><path clip-path="url(#clip420)" d="M2005.32 365.51 L2009.58 365.51 L2009.58 391.436 L2005.32 391.436 L2005.32 365.51 M2005.32 355.417 L2009.58 355.417 L2009.58 360.811 L2005.32 360.811 L2005.32 355.417 Z" fill="#000000" fill-rule="nonzero" fill-opacity="1" /><path clip-path="url(#clip420)" d="M2040.04 375.788 L2040.04 391.436 L2035.78 391.436 L2035.78 375.927 Q2035.78 372.246 2034.34 370.417 Q2032.91 368.589 2030.04 368.589 Q2026.59 368.589 2024.6 370.788 Q2022.61 372.987 2022.61 376.783 L2022.61 391.436 L2018.33 391.436 L2018.33 365.51 L2022.61 365.51 L2022.61 369.538 Q2024.14 367.2 2026.2 366.042 Q2028.28 364.885 2030.99 364.885 Q2035.45 364.885 2037.75 367.663 Q2040.04 370.417 2040.04 375.788 Z" fill="#000000" fill-rule="nonzero" fill-opacity="1" /><path clip-path="url(#clip420)" d="M2048.53 365.51 L2052.79 365.51 L2052.79 391.436 L2048.53 391.436 L2048.53 365.51 M2048.53 355.417 L2052.79 355.417 L2052.79 360.811 L2048.53 360.811 L2048.53 355.417 Z" fill="#000000" fill-rule="nonzero" fill-opacity="1" /><path clip-path="url(#clip420)" d="M2081.89 370.487 Q2083.49 367.616 2085.71 366.251 Q2087.93 364.885 2090.94 364.885 Q2094.99 364.885 2097.19 367.732 Q2099.39 370.556 2099.39 375.788 L2099.39 391.436 L2095.11 391.436 L2095.11 375.927 Q2095.11 372.2 2093.79 370.394 Q2092.47 368.589 2089.76 368.589 Q2086.45 368.589 2084.53 370.788 Q2082.61 372.987 2082.61 376.783 L2082.61 391.436 L2078.32 391.436 L2078.32 375.927 Q2078.32 372.177 2077.01 370.394 Q2075.69 368.589 2072.93 368.589 Q2069.67 368.589 2067.75 370.811 Q2065.83 373.01 2065.83 376.783 L2065.83 391.436 L2061.54 391.436 L2061.54 365.51 L2065.83 365.51 L2065.83 369.538 Q2067.28 367.153 2069.32 366.019 Q2071.36 364.885 2074.16 364.885 Q2076.98 364.885 2078.95 366.32 Q2080.94 367.755 2081.89 370.487 Z" fill="#000000" fill-rule="nonzero" fill-opacity="1" /><path clip-path="url(#clip420)" d="M2107.88 365.51 L2112.14 365.51 L2112.14 391.436 L2107.88 391.436 L2107.88 365.51 M2107.88 355.417 L2112.14 355.417 L2112.14 360.811 L2107.88 360.811 L2107.88 355.417 Z" fill="#000000" fill-rule="nonzero" fill-opacity="1" /><path clip-path="url(#clip420)" d="M2119.2 365.51 L2139.44 365.51 L2139.44 369.399 L2123.42 388.033 L2139.44 388.033 L2139.44 391.436 L2118.63 391.436 L2118.63 387.547 L2134.64 368.913 L2119.2 368.913 L2119.2 365.51 Z" fill="#000000" fill-rule="nonzero" fill-opacity="1" /><path clip-path="url(#clip420)" d="M2157.72 378.403 Q2152.56 378.403 2150.57 379.584 Q2148.58 380.764 2148.58 383.612 Q2148.58 385.88 2150.06 387.223 Q2151.57 388.542 2154.13 388.542 Q2157.68 388.542 2159.81 386.042 Q2161.96 383.519 2161.96 379.352 L2161.96 378.403 L2157.72 378.403 M2166.22 376.644 L2166.22 391.436 L2161.96 391.436 L2161.96 387.501 Q2160.5 389.862 2158.32 390.996 Q2156.15 392.107 2153 392.107 Q2149.02 392.107 2146.66 389.885 Q2144.32 387.639 2144.32 383.889 Q2144.32 379.514 2147.24 377.292 Q2150.18 375.07 2155.99 375.07 L2161.96 375.07 L2161.96 374.653 Q2161.96 371.714 2160.01 370.116 Q2158.09 368.496 2154.6 368.496 Q2152.38 368.496 2150.27 369.028 Q2148.16 369.561 2146.22 370.626 L2146.22 366.69 Q2148.56 365.788 2150.76 365.348 Q2152.95 364.885 2155.04 364.885 Q2160.66 364.885 2163.44 367.802 Q2166.22 370.718 2166.22 376.644 Z" fill="#000000" fill-rule="nonzero" fill-opacity="1" /><path clip-path="url(#clip420)" d="M2179.2 358.149 L2179.2 365.51 L2187.98 365.51 L2187.98 368.82 L2179.2 368.82 L2179.2 382.894 Q2179.2 386.065 2180.06 386.968 Q2180.94 387.871 2183.6 387.871 L2187.98 387.871 L2187.98 391.436 L2183.6 391.436 Q2178.67 391.436 2176.8 389.607 Q2174.92 387.755 2174.92 382.894 L2174.92 368.82 L2171.8 368.82 L2171.8 365.51 L2174.92 365.51 L2174.92 358.149 L2179.2 358.149 Z" fill="#000000" fill-rule="nonzero" fill-opacity="1" /><path clip-path="url(#clip420)" d="M2193.58 365.51 L2197.84 365.51 L2197.84 391.436 L2193.58 391.436 L2193.58 365.51 M2193.58 355.417 L2197.84 355.417 L2197.84 360.811 L2193.58 360.811 L2193.58 355.417 Z" fill="#000000" fill-rule="nonzero" fill-opacity="1" /><path clip-path="url(#clip420)" d="M2216.8 368.496 Q2213.37 368.496 2211.38 371.181 Q2209.39 373.843 2209.39 378.496 Q2209.39 383.149 2211.36 385.834 Q2213.35 388.496 2216.8 388.496 Q2220.2 388.496 2222.19 385.811 Q2224.18 383.126 2224.18 378.496 Q2224.18 373.89 2222.19 371.204 Q2220.2 368.496 2216.8 368.496 M2216.8 364.885 Q2222.35 364.885 2225.52 368.496 Q2228.69 372.107 2228.69 378.496 Q2228.69 384.862 2225.52 388.496 Q2222.35 392.107 2216.8 392.107 Q2211.22 392.107 2208.05 388.496 Q2204.9 384.862 2204.9 378.496 Q2204.9 372.107 2208.05 368.496 Q2211.22 364.885 2216.8 364.885 Z" fill="#000000" fill-rule="nonzero" fill-opacity="1" /><path clip-path="url(#clip420)" d="M2257.31 375.788 L2257.31 391.436 L2253.05 391.436 L2253.05 375.927 Q2253.05 372.246 2251.61 370.417 Q2250.18 368.589 2247.31 368.589 Q2243.86 368.589 2241.87 370.788 Q2239.88 372.987 2239.88 376.783 L2239.88 391.436 L2235.59 391.436 L2235.59 365.51 L2239.88 365.51 L2239.88 369.538 Q2241.4 367.2 2243.46 366.042 Q2245.55 364.885 2248.25 364.885 Q2252.72 364.885 2255.01 367.663 Q2257.31 370.417 2257.31 375.788 Z" fill="#000000" fill-rule="nonzero" fill-opacity="1" /></svg>
