<?xml version="1.0" encoding="utf-8"?>
<svg xmlns="http://www.w3.org/2000/svg" xmlns:xlink="http://www.w3.org/1999/xlink" width="600" height="400" viewBox="0 0 2400 1600">
<defs>
  <clipPath id="clip140">
    <rect x="0" y="0" width="2400" height="1600"/>
  </clipPath>
</defs>
<path clip-path="url(#clip140)" d="M0 1600 L2400 1600 L2400 0 L0 0  Z" fill="#ffffff" fill-rule="evenodd" fill-opacity="1"/>
<defs>
  <clipPath id="clip141">
    <rect x="480" y="0" width="1681" height="1600"/>
  </clipPath>
</defs>
<path clip-path="url(#clip140)" d="M234.125 1423.18 L2352.76 1423.18 L2352.76 47.2441 L234.125 47.2441  Z" fill="#ffffff" fill-rule="evenodd" fill-opacity="1"/>
<defs>
  <clipPath id="clip142">
    <rect x="234" y="47" width="2120" height="1377"/>
  </clipPath>
</defs>
<polyline clip-path="url(#clip142)" style="stroke:#000000; stroke-linecap:round; stroke-linejoin:round; stroke-width:2; stroke-opacity:0.1; fill:none" points="714.867,1423.18 714.867,47.2441 "/>
<polyline clip-path="url(#clip142)" style="stroke:#000000; stroke-linecap:round; stroke-linejoin:round; stroke-width:2; stroke-opacity:0.1; fill:none" points="1240.84,1423.18 1240.84,47.2441 "/>
<polyline clip-path="url(#clip142)" style="stroke:#000000; stroke-linecap:round; stroke-linejoin:round; stroke-width:2; stroke-opacity:0.1; fill:none" points="1766.82,1423.18 1766.82,47.2441 "/>
<polyline clip-path="url(#clip142)" style="stroke:#000000; stroke-linecap:round; stroke-linejoin:round; stroke-width:2; stroke-opacity:0.1; fill:none" points="2292.79,1423.18 2292.79,47.2441 "/>
<polyline clip-path="url(#clip142)" style="stroke:#000000; stroke-linecap:round; stroke-linejoin:round; stroke-width:2; stroke-opacity:0.1; fill:none" points="234.125,1394.13 2352.76,1394.13 "/>
<polyline clip-path="url(#clip142)" style="stroke:#000000; stroke-linecap:round; stroke-linejoin:round; stroke-width:2; stroke-opacity:0.1; fill:none" points="234.125,1072.61 2352.76,1072.61 "/>
<polyline clip-path="url(#clip142)" style="stroke:#000000; stroke-linecap:round; stroke-linejoin:round; stroke-width:2; stroke-opacity:0.1; fill:none" points="234.125,751.083 2352.76,751.083 "/>
<polyline clip-path="url(#clip142)" style="stroke:#000000; stroke-linecap:round; stroke-linejoin:round; stroke-width:2; stroke-opacity:0.1; fill:none" points="234.125,429.558 2352.76,429.558 "/>
<polyline clip-path="url(#clip142)" style="stroke:#000000; stroke-linecap:round; stroke-linejoin:round; stroke-width:2; stroke-opacity:0.1; fill:none" points="234.125,108.034 2352.76,108.034 "/>
<polyline clip-path="url(#clip140)" style="stroke:#000000; stroke-linecap:round; stroke-linejoin:round; stroke-width:4; stroke-opacity:1; fill:none" points="234.125,1423.18 2352.76,1423.18 "/>
<polyline clip-path="url(#clip140)" style="stroke:#000000; stroke-linecap:round; stroke-linejoin:round; stroke-width:4; stroke-opacity:1; fill:none" points="714.867,1423.18 714.867,1404.28 "/>
<polyline clip-path="url(#clip140)" style="stroke:#000000; stroke-linecap:round; stroke-linejoin:round; stroke-width:4; stroke-opacity:1; fill:none" points="1240.84,1423.18 1240.84,1404.28 "/>
<polyline clip-path="url(#clip140)" style="stroke:#000000; stroke-linecap:round; stroke-linejoin:round; stroke-width:4; stroke-opacity:1; fill:none" points="1766.82,1423.18 1766.82,1404.28 "/>
<polyline clip-path="url(#clip140)" style="stroke:#000000; stroke-linecap:round; stroke-linejoin:round; stroke-width:4; stroke-opacity:1; fill:none" points="2292.79,1423.18 2292.79,1404.28 "/>
<path clip-path="url(#clip140)" d="M705.145 1451.02 L723.502 1451.02 L723.502 1454.96 L709.428 1454.96 L709.428 1463.43 Q710.446 1463.08 711.465 1462.92 Q712.483 1462.73 713.502 1462.73 Q719.289 1462.73 722.668 1465.9 Q726.048 1469.08 726.048 1474.49 Q726.048 1480.07 722.576 1483.17 Q719.103 1486.25 712.784 1486.25 Q710.608 1486.25 708.34 1485.88 Q706.094 1485.51 703.687 1484.77 L703.687 1480.07 Q705.77 1481.2 707.992 1481.76 Q710.215 1482.32 712.691 1482.32 Q716.696 1482.32 719.034 1480.21 Q721.372 1478.1 721.372 1474.49 Q721.372 1470.88 719.034 1468.77 Q716.696 1466.67 712.691 1466.67 Q710.816 1466.67 708.941 1467.08 Q707.09 1467.5 705.145 1468.38 L705.145 1451.02 Z" fill="#000000" fill-rule="nonzero" fill-opacity="1" /><path clip-path="url(#clip140)" d="M1215.53 1481.64 L1223.17 1481.64 L1223.17 1455.28 L1214.86 1456.95 L1214.86 1452.69 L1223.12 1451.02 L1227.8 1451.02 L1227.8 1481.64 L1235.44 1481.64 L1235.44 1485.58 L1215.53 1485.58 L1215.53 1481.64 Z" fill="#000000" fill-rule="nonzero" fill-opacity="1" /><path clip-path="url(#clip140)" d="M1254.88 1454.1 Q1251.27 1454.1 1249.44 1457.66 Q1247.64 1461.2 1247.64 1468.33 Q1247.64 1475.44 1249.44 1479.01 Q1251.27 1482.55 1254.88 1482.55 Q1258.52 1482.55 1260.32 1479.01 Q1262.15 1475.44 1262.15 1468.33 Q1262.15 1461.2 1260.32 1457.66 Q1258.52 1454.1 1254.88 1454.1 M1254.88 1450.39 Q1260.69 1450.39 1263.75 1455 Q1266.83 1459.58 1266.83 1468.33 Q1266.83 1477.06 1263.75 1481.67 Q1260.69 1486.25 1254.88 1486.25 Q1249.07 1486.25 1245.99 1481.67 Q1242.94 1477.06 1242.94 1468.33 Q1242.94 1459.58 1245.99 1455 Q1249.07 1450.39 1254.88 1450.39 Z" fill="#000000" fill-rule="nonzero" fill-opacity="1" /><path clip-path="url(#clip140)" d="M1742 1481.64 L1749.64 1481.64 L1749.64 1455.28 L1741.33 1456.95 L1741.33 1452.69 L1749.6 1451.02 L1754.27 1451.02 L1754.27 1481.64 L1761.91 1481.64 L1761.91 1485.58 L1742 1485.58 L1742 1481.64 Z" fill="#000000" fill-rule="nonzero" fill-opacity="1" /><path clip-path="url(#clip140)" d="M1771.4 1451.02 L1789.76 1451.02 L1789.76 1454.96 L1775.68 1454.96 L1775.68 1463.43 Q1776.7 1463.08 1777.72 1462.92 Q1778.74 1462.73 1779.76 1462.73 Q1785.55 1462.73 1788.93 1465.9 Q1792.3 1469.08 1792.3 1474.49 Q1792.3 1480.07 1788.83 1483.17 Q1785.36 1486.25 1779.04 1486.25 Q1776.87 1486.25 1774.6 1485.88 Q1772.35 1485.51 1769.94 1484.77 L1769.94 1480.07 Q1772.03 1481.2 1774.25 1481.76 Q1776.47 1482.32 1778.95 1482.32 Q1782.95 1482.32 1785.29 1480.21 Q1787.63 1478.1 1787.63 1474.49 Q1787.63 1470.88 1785.29 1468.77 Q1782.95 1466.67 1778.95 1466.67 Q1777.07 1466.67 1775.2 1467.08 Q1773.35 1467.5 1771.4 1468.38 L1771.4 1451.02 Z" fill="#000000" fill-rule="nonzero" fill-opacity="1" /><path clip-path="url(#clip140)" d="M2271.57 1481.64 L2287.89 1481.64 L2287.89 1485.58 L2265.94 1485.58 L2265.94 1481.64 Q2268.6 1478.89 2273.19 1474.26 Q2277.79 1469.61 2278.98 1468.27 Q2281.22 1465.74 2282.1 1464.01 Q2283 1462.25 2283 1460.56 Q2283 1457.8 2281.06 1456.07 Q2279.14 1454.33 2276.04 1454.33 Q2273.84 1454.33 2271.38 1455.09 Q2268.95 1455.86 2266.17 1457.41 L2266.17 1452.69 Q2269 1451.55 2271.45 1450.97 Q2273.91 1450.39 2275.94 1450.39 Q2281.31 1450.39 2284.51 1453.08 Q2287.7 1455.77 2287.7 1460.26 Q2287.7 1462.39 2286.89 1464.31 Q2286.1 1466.2 2284 1468.8 Q2283.42 1469.47 2280.32 1472.69 Q2277.22 1475.88 2271.57 1481.64 Z" fill="#000000" fill-rule="nonzero" fill-opacity="1" /><path clip-path="url(#clip140)" d="M2307.7 1454.1 Q2304.09 1454.1 2302.26 1457.66 Q2300.46 1461.2 2300.46 1468.33 Q2300.46 1475.44 2302.26 1479.01 Q2304.09 1482.55 2307.7 1482.55 Q2311.34 1482.55 2313.14 1479.01 Q2314.97 1475.44 2314.97 1468.33 Q2314.97 1461.2 2313.14 1457.66 Q2311.34 1454.1 2307.7 1454.1 M2307.7 1450.39 Q2313.51 1450.39 2316.57 1455 Q2319.65 1459.58 2319.65 1468.33 Q2319.65 1477.06 2316.57 1481.67 Q2313.51 1486.25 2307.7 1486.25 Q2301.89 1486.25 2298.81 1481.67 Q2295.76 1477.06 2295.76 1468.33 Q2295.76 1459.58 2298.81 1455 Q2301.89 1450.39 2307.7 1450.39 Z" fill="#000000" fill-rule="nonzero" fill-opacity="1" /><path clip-path="url(#clip140)" d="M1143 1520.52 L1149.43 1520.52 L1149.43 1568.04 L1143 1568.04 L1143 1520.52 Z" fill="#000000" fill-rule="nonzero" fill-opacity="1" /><path clip-path="url(#clip140)" d="M1167.77 1522.27 L1167.77 1532.4 L1179.83 1532.4 L1179.83 1536.95 L1167.77 1536.95 L1167.77 1556.3 Q1167.77 1560.66 1168.94 1561.9 Q1170.15 1563.14 1173.81 1563.14 L1179.83 1563.14 L1179.83 1568.04 L1173.81 1568.04 Q1167.03 1568.04 1164.46 1565.53 Q1161.88 1562.98 1161.88 1556.3 L1161.88 1536.95 L1157.58 1536.95 L1157.58 1532.4 L1161.88 1532.4 L1161.88 1522.27 L1167.77 1522.27 Z" fill="#000000" fill-rule="nonzero" fill-opacity="1" /><path clip-path="url(#clip140)" d="M1218.02 1548.76 L1218.02 1551.62 L1191.1 1551.62 Q1191.48 1557.67 1194.72 1560.85 Q1198 1564 1203.83 1564 Q1207.2 1564 1210.35 1563.17 Q1213.54 1562.35 1216.65 1560.69 L1216.65 1566.23 Q1213.5 1567.57 1210.19 1568.27 Q1206.88 1568.97 1203.48 1568.97 Q1194.95 1568.97 1189.95 1564 Q1184.98 1559.04 1184.98 1550.57 Q1184.98 1541.82 1189.7 1536.69 Q1194.44 1531.54 1202.46 1531.54 Q1209.65 1531.54 1213.82 1536.18 Q1218.02 1540.8 1218.02 1548.76 M1212.17 1547.04 Q1212.1 1542.23 1209.46 1539.37 Q1206.85 1536.5 1202.52 1536.5 Q1197.62 1536.5 1194.66 1539.27 Q1191.73 1542.04 1191.29 1547.07 L1212.17 1547.04 Z" fill="#000000" fill-rule="nonzero" fill-opacity="1" /><path clip-path="url(#clip140)" d="M1248.29 1537.87 Q1247.31 1537.3 1246.13 1537.04 Q1244.98 1536.76 1243.58 1536.76 Q1238.62 1536.76 1235.94 1540 Q1233.3 1543.22 1233.3 1549.27 L1233.3 1568.04 L1227.41 1568.04 L1227.41 1532.4 L1233.3 1532.4 L1233.3 1537.93 Q1235.15 1534.69 1238.11 1533.13 Q1241.07 1531.54 1245.3 1531.54 Q1245.9 1531.54 1246.64 1531.63 Q1247.37 1531.7 1248.26 1531.85 L1248.29 1537.87 Z" fill="#000000" fill-rule="nonzero" fill-opacity="1" /><path clip-path="url(#clip140)" d="M1270.64 1550.12 Q1263.54 1550.12 1260.8 1551.75 Q1258.06 1553.37 1258.06 1557.29 Q1258.06 1560.4 1260.1 1562.25 Q1262.17 1564.07 1265.7 1564.07 Q1270.57 1564.07 1273.5 1560.63 Q1276.46 1557.16 1276.46 1551.43 L1276.46 1550.12 L1270.64 1550.12 M1282.32 1547.71 L1282.32 1568.04 L1276.46 1568.04 L1276.46 1562.63 Q1274.45 1565.88 1271.46 1567.44 Q1268.47 1568.97 1264.14 1568.97 Q1258.67 1568.97 1255.42 1565.91 Q1252.21 1562.82 1252.21 1557.67 Q1252.21 1551.65 1256.22 1548.6 Q1260.26 1545.54 1268.25 1545.54 L1276.46 1545.54 L1276.46 1544.97 Q1276.46 1540.93 1273.79 1538.73 Q1271.14 1536.5 1266.34 1536.5 Q1263.28 1536.5 1260.39 1537.23 Q1257.49 1537.97 1254.82 1539.43 L1254.82 1534.02 Q1258.03 1532.78 1261.06 1532.17 Q1264.08 1531.54 1266.94 1531.54 Q1274.68 1531.54 1278.5 1535.55 Q1282.32 1539.56 1282.32 1547.71 Z" fill="#000000" fill-rule="nonzero" fill-opacity="1" /><path clip-path="url(#clip140)" d="M1300.17 1522.27 L1300.17 1532.4 L1312.24 1532.4 L1312.24 1536.95 L1300.17 1536.95 L1300.17 1556.3 Q1300.17 1560.66 1301.35 1561.9 Q1302.56 1563.14 1306.22 1563.14 L1312.24 1563.14 L1312.24 1568.04 L1306.22 1568.04 Q1299.44 1568.04 1296.86 1565.53 Q1294.28 1562.98 1294.28 1556.3 L1294.28 1536.95 L1289.99 1536.95 L1289.99 1532.4 L1294.28 1532.4 L1294.28 1522.27 L1300.17 1522.27 Z" fill="#000000" fill-rule="nonzero" fill-opacity="1" /><path clip-path="url(#clip140)" d="M1319.94 1532.4 L1325.79 1532.4 L1325.79 1568.04 L1319.94 1568.04 L1319.94 1532.4 M1319.94 1518.52 L1325.79 1518.52 L1325.79 1525.93 L1319.94 1525.93 L1319.94 1518.52 Z" fill="#000000" fill-rule="nonzero" fill-opacity="1" /><path clip-path="url(#clip140)" d="M1351.86 1536.5 Q1347.15 1536.5 1344.41 1540.19 Q1341.68 1543.85 1341.68 1550.25 Q1341.68 1556.65 1344.38 1560.34 Q1347.12 1564 1351.86 1564 Q1356.54 1564 1359.28 1560.31 Q1362.02 1556.62 1362.02 1550.25 Q1362.02 1543.92 1359.28 1540.23 Q1356.54 1536.5 1351.86 1536.5 M1351.86 1531.54 Q1359.5 1531.54 1363.86 1536.5 Q1368.22 1541.47 1368.22 1550.25 Q1368.22 1559 1363.86 1564 Q1359.5 1568.97 1351.86 1568.97 Q1344.19 1568.97 1339.83 1564 Q1335.5 1559 1335.5 1550.25 Q1335.5 1541.47 1339.83 1536.5 Q1344.19 1531.54 1351.86 1531.54 Z" fill="#000000" fill-rule="nonzero" fill-opacity="1" /><path clip-path="url(#clip140)" d="M1407.56 1546.53 L1407.56 1568.04 L1401.71 1568.04 L1401.71 1546.72 Q1401.71 1541.66 1399.73 1539.14 Q1397.76 1536.63 1393.81 1536.63 Q1389.07 1536.63 1386.33 1539.65 Q1383.59 1542.68 1383.59 1547.9 L1383.59 1568.04 L1377.71 1568.04 L1377.71 1532.4 L1383.59 1532.4 L1383.59 1537.93 Q1385.7 1534.72 1388.53 1533.13 Q1391.39 1531.54 1395.12 1531.54 Q1401.26 1531.54 1404.41 1535.36 Q1407.56 1539.14 1407.56 1546.53 Z" fill="#000000" fill-rule="nonzero" fill-opacity="1" /><path clip-path="url(#clip140)" d="M1441.97 1533.45 L1441.97 1538.98 Q1439.49 1537.71 1436.81 1537.07 Q1434.14 1536.44 1431.27 1536.44 Q1426.91 1536.44 1424.72 1537.77 Q1422.55 1539.11 1422.55 1541.79 Q1422.55 1543.82 1424.11 1545 Q1425.67 1546.15 1430.38 1547.2 L1432.39 1547.64 Q1438.63 1548.98 1441.24 1551.43 Q1443.88 1553.85 1443.88 1558.21 Q1443.88 1563.17 1439.93 1566.07 Q1436.02 1568.97 1429.14 1568.97 Q1426.28 1568.97 1423.16 1568.39 Q1420.07 1567.85 1416.63 1566.74 L1416.63 1560.69 Q1419.88 1562.38 1423.03 1563.24 Q1426.18 1564.07 1429.27 1564.07 Q1433.41 1564.07 1435.63 1562.66 Q1437.86 1561.23 1437.86 1558.65 Q1437.86 1556.27 1436.24 1554.99 Q1434.65 1553.72 1429.21 1552.54 L1427.17 1552.07 Q1421.73 1550.92 1419.31 1548.56 Q1416.89 1546.18 1416.89 1542.04 Q1416.89 1537.01 1420.45 1534.27 Q1424.02 1531.54 1430.57 1531.54 Q1433.82 1531.54 1436.68 1532.01 Q1439.55 1532.49 1441.97 1533.45 Z" fill="#000000" fill-rule="nonzero" fill-opacity="1" /><polyline clip-path="url(#clip140)" style="stroke:#000000; stroke-linecap:round; stroke-linejoin:round; stroke-width:4; stroke-opacity:1; fill:none" points="234.125,1423.18 234.125,47.2441 "/>
<polyline clip-path="url(#clip140)" style="stroke:#000000; stroke-linecap:round; stroke-linejoin:round; stroke-width:4; stroke-opacity:1; fill:none" points="234.125,1394.13 253.023,1394.13 "/>
<polyline clip-path="url(#clip140)" style="stroke:#000000; stroke-linecap:round; stroke-linejoin:round; stroke-width:4; stroke-opacity:1; fill:none" points="234.125,1072.61 253.023,1072.61 "/>
<polyline clip-path="url(#clip140)" style="stroke:#000000; stroke-linecap:round; stroke-linejoin:round; stroke-width:4; stroke-opacity:1; fill:none" points="234.125,751.083 253.023,751.083 "/>
<polyline clip-path="url(#clip140)" style="stroke:#000000; stroke-linecap:round; stroke-linejoin:round; stroke-width:4; stroke-opacity:1; fill:none" points="234.125,429.558 253.023,429.558 "/>
<polyline clip-path="url(#clip140)" style="stroke:#000000; stroke-linecap:round; stroke-linejoin:round; stroke-width:4; stroke-opacity:1; fill:none" points="234.125,108.034 253.023,108.034 "/>
<path clip-path="url(#clip140)" d="M186.181 1379.93 Q182.57 1379.93 180.741 1383.49 Q178.936 1387.04 178.936 1394.17 Q178.936 1401.27 180.741 1404.84 Q182.57 1408.38 186.181 1408.38 Q189.815 1408.38 191.621 1404.84 Q193.45 1401.27 193.45 1394.17 Q193.45 1387.04 191.621 1383.49 Q189.815 1379.93 186.181 1379.93 M186.181 1376.23 Q191.991 1376.23 195.047 1380.83 Q198.125 1385.42 198.125 1394.17 Q198.125 1402.89 195.047 1407.5 Q191.991 1412.08 186.181 1412.08 Q180.371 1412.08 177.292 1407.5 Q174.237 1402.89 174.237 1394.17 Q174.237 1385.42 177.292 1380.83 Q180.371 1376.23 186.181 1376.23 Z" fill="#000000" fill-rule="nonzero" fill-opacity="1" /><path clip-path="url(#clip140)" d="M146.066 1055.33 L164.422 1055.33 L164.422 1059.26 L150.348 1059.26 L150.348 1067.73 Q151.366 1067.39 152.385 1067.23 Q153.403 1067.04 154.422 1067.04 Q160.209 1067.04 163.589 1070.21 Q166.968 1073.38 166.968 1078.8 Q166.968 1084.38 163.496 1087.48 Q160.024 1090.56 153.704 1090.56 Q151.528 1090.56 149.26 1090.19 Q147.015 1089.82 144.607 1089.08 L144.607 1084.38 Q146.691 1085.51 148.913 1086.07 Q151.135 1086.62 153.612 1086.62 Q157.616 1086.62 159.954 1084.52 Q162.292 1082.41 162.292 1078.8 Q162.292 1075.19 159.954 1073.08 Q157.616 1070.98 153.612 1070.98 Q151.737 1070.98 149.862 1071.39 Q148.01 1071.81 146.066 1072.69 L146.066 1055.33 Z" fill="#000000" fill-rule="nonzero" fill-opacity="1" /><path clip-path="url(#clip140)" d="M186.181 1058.41 Q182.57 1058.41 180.741 1061.97 Q178.936 1065.51 178.936 1072.64 Q178.936 1079.75 180.741 1083.31 Q182.57 1086.85 186.181 1086.85 Q189.815 1086.85 191.621 1083.31 Q193.45 1079.75 193.45 1072.64 Q193.45 1065.51 191.621 1061.97 Q189.815 1058.41 186.181 1058.41 M186.181 1054.7 Q191.991 1054.7 195.047 1059.31 Q198.125 1063.89 198.125 1072.64 Q198.125 1081.37 195.047 1085.97 Q191.991 1090.56 186.181 1090.56 Q180.371 1090.56 177.292 1085.97 Q174.237 1081.37 174.237 1072.64 Q174.237 1063.89 177.292 1059.31 Q180.371 1054.7 186.181 1054.7 Z" fill="#000000" fill-rule="nonzero" fill-opacity="1" /><path clip-path="url(#clip140)" d="M116.668 764.428 L124.306 764.428 L124.306 738.062 L115.996 739.729 L115.996 735.469 L124.26 733.803 L128.936 733.803 L128.936 764.428 L136.575 764.428 L136.575 768.363 L116.668 768.363 L116.668 764.428 Z" fill="#000000" fill-rule="nonzero" fill-opacity="1" /><path clip-path="url(#clip140)" d="M156.019 736.881 Q152.408 736.881 150.579 740.446 Q148.774 743.988 148.774 751.117 Q148.774 758.224 150.579 761.789 Q152.408 765.33 156.019 765.33 Q159.653 765.33 161.459 761.789 Q163.288 758.224 163.288 751.117 Q163.288 743.988 161.459 740.446 Q159.653 736.881 156.019 736.881 M156.019 733.178 Q161.829 733.178 164.885 737.784 Q167.964 742.367 167.964 751.117 Q167.964 759.844 164.885 764.451 Q161.829 769.034 156.019 769.034 Q150.209 769.034 147.13 764.451 Q144.075 759.844 144.075 751.117 Q144.075 742.367 147.13 737.784 Q150.209 733.178 156.019 733.178 Z" fill="#000000" fill-rule="nonzero" fill-opacity="1" /><path clip-path="url(#clip140)" d="M186.181 736.881 Q182.57 736.881 180.741 740.446 Q178.936 743.988 178.936 751.117 Q178.936 758.224 180.741 761.789 Q182.57 765.33 186.181 765.33 Q189.815 765.33 191.621 761.789 Q193.45 758.224 193.45 751.117 Q193.45 743.988 191.621 740.446 Q189.815 736.881 186.181 736.881 M186.181 733.178 Q191.991 733.178 195.047 737.784 Q198.125 742.367 198.125 751.117 Q198.125 759.844 195.047 764.451 Q191.991 769.034 186.181 769.034 Q180.371 769.034 177.292 764.451 Q174.237 759.844 174.237 751.117 Q174.237 742.367 177.292 737.784 Q180.371 733.178 186.181 733.178 Z" fill="#000000" fill-rule="nonzero" fill-opacity="1" /><path clip-path="url(#clip140)" d="M116.668 442.903 L124.306 442.903 L124.306 416.538 L115.996 418.204 L115.996 413.945 L124.26 412.278 L128.936 412.278 L128.936 442.903 L136.575 442.903 L136.575 446.838 L116.668 446.838 L116.668 442.903 Z" fill="#000000" fill-rule="nonzero" fill-opacity="1" /><path clip-path="url(#clip140)" d="M146.066 412.278 L164.422 412.278 L164.422 416.214 L150.348 416.214 L150.348 424.686 Q151.366 424.338 152.385 424.176 Q153.403 423.991 154.422 423.991 Q160.209 423.991 163.589 427.163 Q166.968 430.334 166.968 435.75 Q166.968 441.329 163.496 444.431 Q160.024 447.51 153.704 447.51 Q151.528 447.51 149.26 447.139 Q147.015 446.769 144.607 446.028 L144.607 441.329 Q146.691 442.463 148.913 443.019 Q151.135 443.574 153.612 443.574 Q157.616 443.574 159.954 441.468 Q162.292 439.362 162.292 435.75 Q162.292 432.139 159.954 430.033 Q157.616 427.926 153.612 427.926 Q151.737 427.926 149.862 428.343 Q148.01 428.76 146.066 429.639 L146.066 412.278 Z" fill="#000000" fill-rule="nonzero" fill-opacity="1" /><path clip-path="url(#clip140)" d="M186.181 415.357 Q182.57 415.357 180.741 418.922 Q178.936 422.463 178.936 429.593 Q178.936 436.7 180.741 440.264 Q182.57 443.806 186.181 443.806 Q189.815 443.806 191.621 440.264 Q193.45 436.7 193.45 429.593 Q193.45 422.463 191.621 418.922 Q189.815 415.357 186.181 415.357 M186.181 411.653 Q191.991 411.653 195.047 416.26 Q198.125 420.843 198.125 429.593 Q198.125 438.32 195.047 442.926 Q191.991 447.51 186.181 447.51 Q180.371 447.51 177.292 442.926 Q174.237 438.32 174.237 429.593 Q174.237 420.843 177.292 416.26 Q180.371 411.653 186.181 411.653 Z" fill="#000000" fill-rule="nonzero" fill-opacity="1" /><path clip-path="url(#clip140)" d="M119.885 121.379 L136.204 121.379 L136.204 125.314 L114.26 125.314 L114.26 121.379 Q116.922 118.624 121.505 113.995 Q126.112 109.342 127.292 107.999 Q129.538 105.476 130.417 103.74 Q131.32 101.981 131.32 100.291 Q131.32 97.5364 129.376 95.8003 Q127.455 94.0642 124.353 94.0642 Q122.154 94.0642 119.7 94.8281 Q117.269 95.592 114.492 97.1429 L114.492 92.4207 Q117.316 91.2864 119.769 90.7077 Q122.223 90.129 124.26 90.129 Q129.63 90.129 132.825 92.8142 Q136.019 95.4994 136.019 99.9901 Q136.019 102.12 135.209 104.041 Q134.422 105.939 132.316 108.532 Q131.737 109.203 128.635 112.421 Q125.533 115.615 119.885 121.379 Z" fill="#000000" fill-rule="nonzero" fill-opacity="1" /><path clip-path="url(#clip140)" d="M156.019 93.8327 Q152.408 93.8327 150.579 97.3975 Q148.774 100.939 148.774 108.069 Q148.774 115.175 150.579 118.74 Q152.408 122.282 156.019 122.282 Q159.653 122.282 161.459 118.74 Q163.288 115.175 163.288 108.069 Q163.288 100.939 161.459 97.3975 Q159.653 93.8327 156.019 93.8327 M156.019 90.129 Q161.829 90.129 164.885 94.7355 Q167.964 99.3188 167.964 108.069 Q167.964 116.796 164.885 121.402 Q161.829 125.985 156.019 125.985 Q150.209 125.985 147.13 121.402 Q144.075 116.796 144.075 108.069 Q144.075 99.3188 147.13 94.7355 Q150.209 90.129 156.019 90.129 Z" fill="#000000" fill-rule="nonzero" fill-opacity="1" /><path clip-path="url(#clip140)" d="M186.181 93.8327 Q182.57 93.8327 180.741 97.3975 Q178.936 100.939 178.936 108.069 Q178.936 115.175 180.741 118.74 Q182.57 122.282 186.181 122.282 Q189.815 122.282 191.621 118.74 Q193.45 115.175 193.45 108.069 Q193.45 100.939 191.621 97.3975 Q189.815 93.8327 186.181 93.8327 M186.181 90.129 Q191.991 90.129 195.047 94.7355 Q198.125 99.3188 198.125 108.069 Q198.125 116.796 195.047 121.402 Q191.991 125.985 186.181 125.985 Q180.371 125.985 177.292 121.402 Q174.237 116.796 174.237 108.069 Q174.237 99.3188 177.292 94.7355 Q180.371 90.129 186.181 90.129 Z" fill="#000000" fill-rule="nonzero" fill-opacity="1" /><path clip-path="url(#clip140)" d="M16.4842 801.909 L16.4842 795.479 L58.5933 795.479 L58.5933 772.34 L64.0042 772.34 L64.0042 801.909 L16.4842 801.909 Z" fill="#000000" fill-rule="nonzero" fill-opacity="1" /><path clip-path="url(#clip140)" d="M32.4621 753.179 Q32.4621 757.89 36.1542 760.627 Q39.8145 763.364 46.212 763.364 Q52.6095 763.364 56.3017 760.659 Q59.9619 757.922 59.9619 753.179 Q59.9619 748.5 56.2698 745.763 Q52.5777 743.026 46.212 743.026 Q39.8781 743.026 36.186 745.763 Q32.4621 748.5 32.4621 753.179 M27.4968 753.179 Q27.4968 745.54 32.4621 741.18 Q37.4273 736.819 46.212 736.819 Q54.9649 736.819 59.9619 741.18 Q64.9272 745.54 64.9272 753.179 Q64.9272 760.85 59.9619 765.21 Q54.9649 769.539 46.212 769.539 Q37.4273 769.539 32.4621 765.21 Q27.4968 760.85 27.4968 753.179 Z" fill="#000000" fill-rule="nonzero" fill-opacity="1" /><path clip-path="url(#clip140)" d="M29.4065 704.386 L34.9447 704.386 Q33.6716 706.869 33.035 709.542 Q32.3984 712.216 32.3984 715.08 Q32.3984 719.441 33.7352 721.637 Q35.072 723.801 37.7456 723.801 Q39.7826 723.801 40.9603 722.242 Q42.1061 720.682 43.1565 715.972 L43.6021 713.966 Q44.9389 707.728 47.3897 705.118 Q49.8086 702.476 54.1691 702.476 Q59.1344 702.476 62.0308 706.423 Q64.9272 710.338 64.9272 717.213 Q64.9272 720.078 64.3543 723.197 Q63.8132 726.284 62.6992 729.722 L56.6518 729.722 Q58.3387 726.475 59.198 723.324 Q60.0256 720.173 60.0256 717.086 Q60.0256 712.948 58.6251 710.72 Q57.1929 708.492 54.6147 708.492 Q52.2276 708.492 50.9545 710.115 Q49.6813 711.707 48.5037 717.149 L48.0262 719.186 Q46.8804 724.629 44.5251 727.048 Q42.138 729.467 38.0002 729.467 Q32.9713 729.467 30.2341 725.902 Q27.4968 722.337 27.4968 715.781 Q27.4968 712.534 27.9743 709.67 Q28.4517 706.805 29.4065 704.386 Z" fill="#000000" fill-rule="nonzero" fill-opacity="1" /><path clip-path="url(#clip140)" d="M29.4065 670.425 L34.9447 670.425 Q33.6716 672.908 33.035 675.581 Q32.3984 678.255 32.3984 681.119 Q32.3984 685.48 33.7352 687.676 Q35.072 689.84 37.7456 689.84 Q39.7826 689.84 40.9603 688.281 Q42.1061 686.721 43.1565 682.011 L43.6021 680.005 Q44.9389 673.767 47.3897 671.157 Q49.8086 668.515 54.1691 668.515 Q59.1344 668.515 62.0308 672.462 Q64.9272 676.377 64.9272 683.252 Q64.9272 686.116 64.3543 689.236 Q63.8132 692.323 62.6992 695.761 L56.6518 695.761 Q58.3387 692.514 59.198 689.363 Q60.0256 686.212 60.0256 683.125 Q60.0256 678.987 58.6251 676.759 Q57.1929 674.531 54.6147 674.531 Q52.2276 674.531 50.9545 676.154 Q49.6813 677.746 48.5037 683.188 L48.0262 685.225 Q46.8804 690.668 44.5251 693.087 Q42.138 695.506 38.0002 695.506 Q32.9713 695.506 30.2341 691.941 Q27.4968 688.376 27.4968 681.82 Q27.4968 678.573 27.9743 675.709 Q28.4517 672.844 29.4065 670.425 Z" fill="#000000" fill-rule="nonzero" fill-opacity="1" /><polyline clip-path="url(#clip142)" style="stroke:#009af9; stroke-linecap:round; stroke-linejoin:round; stroke-width:4; stroke-opacity:1; fill:none" points="294.087,86.1857 399.282,758.653 504.477,960.852 609.672,1058.65 714.867,1139.9 820.062,1155.26 925.258,1232.77 1030.45,1266.62 1135.65,1297.63 1240.84,1331.89 1346.04,1336.13 1451.23,1337.98 1556.43,1326.13 1661.62,1323.74 1766.82,1306.92 1872.01,1353.98 1977.21,1365.81 2082.4,1373.71 2187.6,1384.24 2292.79,1381.39 "/>
<path clip-path="url(#clip140)" d="M1973.26 196.789 L2282.13 196.789 L2282.13 93.1086 L1973.26 93.1086  Z" fill="#ffffff" fill-rule="evenodd" fill-opacity="1"/>
<polyline clip-path="url(#clip140)" style="stroke:#000000; stroke-linecap:round; stroke-linejoin:round; stroke-width:4; stroke-opacity:1; fill:none" points="1973.26,196.789 2282.13,196.789 2282.13,93.1086 1973.26,93.1086 1973.26,196.789 "/>
<polyline clip-path="url(#clip140)" style="stroke:#009af9; stroke-linecap:round; stroke-linejoin:round; stroke-width:4; stroke-opacity:1; fill:none" points="1996.8,144.949 2138.04,144.949 "/>
<path clip-path="url(#clip140)" d="M2161.58 127.669 L2166.26 127.669 L2166.26 158.293 L2183.09 158.293 L2183.09 162.229 L2161.58 162.229 L2161.58 127.669 Z" fill="#000000" fill-rule="nonzero" fill-opacity="1" /><path clip-path="url(#clip140)" d="M2197.02 139.289 Q2193.59 139.289 2191.6 141.974 Q2189.61 144.636 2189.61 149.289 Q2189.61 153.942 2191.58 156.627 Q2193.57 159.289 2197.02 159.289 Q2200.42 159.289 2202.41 156.604 Q2204.41 153.918 2204.41 149.289 Q2204.41 144.682 2202.41 141.997 Q2200.42 139.289 2197.02 139.289 M2197.02 135.678 Q2202.58 135.678 2205.75 139.289 Q2208.92 142.9 2208.92 149.289 Q2208.92 155.655 2205.75 159.289 Q2202.58 162.9 2197.02 162.9 Q2191.44 162.9 2188.27 159.289 Q2185.12 155.655 2185.12 149.289 Q2185.12 142.9 2188.27 139.289 Q2191.44 135.678 2197.02 135.678 Z" fill="#000000" fill-rule="nonzero" fill-opacity="1" /><path clip-path="url(#clip140)" d="M2232.51 137.067 L2232.51 141.094 Q2230.7 140.169 2228.76 139.706 Q2226.81 139.243 2224.73 139.243 Q2221.56 139.243 2219.96 140.215 Q2218.39 141.187 2218.39 143.131 Q2218.39 144.613 2219.52 145.469 Q2220.65 146.303 2224.08 147.067 L2225.54 147.391 Q2230.08 148.363 2231.97 150.145 Q2233.9 151.905 2233.9 155.076 Q2233.9 158.687 2231.03 160.793 Q2228.18 162.9 2223.18 162.9 Q2221.09 162.9 2218.83 162.483 Q2216.58 162.09 2214.08 161.28 L2214.08 156.881 Q2216.44 158.108 2218.73 158.733 Q2221.03 159.335 2223.27 159.335 Q2226.28 159.335 2227.9 158.317 Q2229.52 157.275 2229.52 155.4 Q2229.52 153.664 2228.34 152.738 Q2227.18 151.812 2223.22 150.956 L2221.74 150.608 Q2217.78 149.775 2216.03 148.062 Q2214.27 146.326 2214.27 143.317 Q2214.27 139.659 2216.86 137.669 Q2219.45 135.678 2224.22 135.678 Q2226.58 135.678 2228.66 136.025 Q2230.75 136.372 2232.51 137.067 Z" fill="#000000" fill-rule="nonzero" fill-opacity="1" /><path clip-path="url(#clip140)" d="M2257.21 137.067 L2257.21 141.094 Q2255.4 140.169 2253.46 139.706 Q2251.51 139.243 2249.43 139.243 Q2246.26 139.243 2244.66 140.215 Q2243.09 141.187 2243.09 143.131 Q2243.09 144.613 2244.22 145.469 Q2245.35 146.303 2248.78 147.067 L2250.24 147.391 Q2254.78 148.363 2256.67 150.145 Q2258.59 151.905 2258.59 155.076 Q2258.59 158.687 2255.72 160.793 Q2252.88 162.9 2247.88 162.9 Q2245.79 162.9 2243.53 162.483 Q2241.28 162.09 2238.78 161.28 L2238.78 156.881 Q2241.14 158.108 2243.43 158.733 Q2245.72 159.335 2247.97 159.335 Q2250.98 159.335 2252.6 158.317 Q2254.22 157.275 2254.22 155.4 Q2254.22 153.664 2253.04 152.738 Q2251.88 151.812 2247.92 150.956 L2246.44 150.608 Q2242.48 149.775 2240.72 148.062 Q2238.97 146.326 2238.97 143.317 Q2238.97 139.659 2241.56 137.669 Q2244.15 135.678 2248.92 135.678 Q2251.28 135.678 2253.36 136.025 Q2255.45 136.372 2257.21 137.067 Z" fill="#000000" fill-rule="nonzero" fill-opacity="1" /></svg>
