<?xml version="1.0" encoding="utf-8"?>
<svg xmlns="http://www.w3.org/2000/svg" xmlns:xlink="http://www.w3.org/1999/xlink" width="600" height="400" viewBox="0 0 2400 1600">
<defs>
  <clipPath id="clip100">
    <rect x="0" y="0" width="2400" height="1600"/>
  </clipPath>
</defs>
<path clip-path="url(#clip100)" d="M0 1600 L2400 1600 L2400 0 L0 0  Z" fill="#ffffff" fill-rule="evenodd" fill-opacity="1"/>
<defs>
  <clipPath id="clip101">
    <rect x="480" y="0" width="1681" height="1600"/>
  </clipPath>
</defs>
<path clip-path="url(#clip100)" d="M203.964 1423.18 L2352.76 1423.18 L2352.76 47.2441 L203.964 47.2441  Z" fill="#ffffff" fill-rule="evenodd" fill-opacity="1"/>
<defs>
  <clipPath id="clip102">
    <rect x="203" y="47" width="2150" height="1377"/>
  </clipPath>
</defs>
<polyline clip-path="url(#clip102)" style="stroke:#000000; stroke-linecap:round; stroke-linejoin:round; stroke-width:2; stroke-opacity:0.1; fill:none" points="691.55,1423.18 691.55,47.2441 "/>
<polyline clip-path="url(#clip102)" style="stroke:#000000; stroke-linecap:round; stroke-linejoin:round; stroke-width:2; stroke-opacity:0.1; fill:none" points="1225.01,1423.18 1225.01,47.2441 "/>
<polyline clip-path="url(#clip102)" style="stroke:#000000; stroke-linecap:round; stroke-linejoin:round; stroke-width:2; stroke-opacity:0.1; fill:none" points="1758.48,1423.18 1758.48,47.2441 "/>
<polyline clip-path="url(#clip102)" style="stroke:#000000; stroke-linecap:round; stroke-linejoin:round; stroke-width:2; stroke-opacity:0.1; fill:none" points="2291.94,1423.18 2291.94,47.2441 "/>
<polyline clip-path="url(#clip102)" style="stroke:#000000; stroke-linecap:round; stroke-linejoin:round; stroke-width:2; stroke-opacity:0.1; fill:none" points="203.964,1400.8 2352.76,1400.8 "/>
<polyline clip-path="url(#clip102)" style="stroke:#000000; stroke-linecap:round; stroke-linejoin:round; stroke-width:2; stroke-opacity:0.1; fill:none" points="203.964,1118.09 2352.76,1118.09 "/>
<polyline clip-path="url(#clip102)" style="stroke:#000000; stroke-linecap:round; stroke-linejoin:round; stroke-width:2; stroke-opacity:0.1; fill:none" points="203.964,835.376 2352.76,835.376 "/>
<polyline clip-path="url(#clip102)" style="stroke:#000000; stroke-linecap:round; stroke-linejoin:round; stroke-width:2; stroke-opacity:0.1; fill:none" points="203.964,552.663 2352.76,552.663 "/>
<polyline clip-path="url(#clip102)" style="stroke:#000000; stroke-linecap:round; stroke-linejoin:round; stroke-width:2; stroke-opacity:0.1; fill:none" points="203.964,269.949 2352.76,269.949 "/>
<polyline clip-path="url(#clip100)" style="stroke:#000000; stroke-linecap:round; stroke-linejoin:round; stroke-width:4; stroke-opacity:1; fill:none" points="203.964,1423.18 2352.76,1423.18 "/>
<polyline clip-path="url(#clip100)" style="stroke:#000000; stroke-linecap:round; stroke-linejoin:round; stroke-width:4; stroke-opacity:1; fill:none" points="691.55,1423.18 691.55,1404.28 "/>
<polyline clip-path="url(#clip100)" style="stroke:#000000; stroke-linecap:round; stroke-linejoin:round; stroke-width:4; stroke-opacity:1; fill:none" points="1225.01,1423.18 1225.01,1404.28 "/>
<polyline clip-path="url(#clip100)" style="stroke:#000000; stroke-linecap:round; stroke-linejoin:round; stroke-width:4; stroke-opacity:1; fill:none" points="1758.48,1423.18 1758.48,1404.28 "/>
<polyline clip-path="url(#clip100)" style="stroke:#000000; stroke-linecap:round; stroke-linejoin:round; stroke-width:4; stroke-opacity:1; fill:none" points="2291.94,1423.18 2291.94,1404.28 "/>
<path clip-path="url(#clip100)" d="M681.827 1451.02 L700.184 1451.02 L700.184 1454.96 L686.11 1454.96 L686.11 1463.43 Q687.128 1463.08 688.147 1462.92 Q689.165 1462.73 690.184 1462.73 Q695.971 1462.73 699.35 1465.9 Q702.73 1469.08 702.73 1474.49 Q702.73 1480.07 699.258 1483.17 Q695.786 1486.25 689.466 1486.25 Q687.29 1486.25 685.022 1485.88 Q682.776 1485.51 680.369 1484.77 L680.369 1480.07 Q682.452 1481.2 684.675 1481.76 Q686.897 1482.32 689.374 1482.32 Q693.378 1482.32 695.716 1480.21 Q698.054 1478.1 698.054 1474.49 Q698.054 1470.88 695.716 1468.77 Q693.378 1466.67 689.374 1466.67 Q687.499 1466.67 685.624 1467.08 Q683.772 1467.5 681.827 1468.38 L681.827 1451.02 Z" fill="#000000" fill-rule="nonzero" fill-opacity="1" /><path clip-path="url(#clip100)" d="M1199.7 1481.64 L1207.34 1481.64 L1207.34 1455.28 L1199.03 1456.95 L1199.03 1452.69 L1207.29 1451.02 L1211.97 1451.02 L1211.97 1481.64 L1219.61 1481.64 L1219.61 1485.58 L1199.7 1485.58 L1199.7 1481.64 Z" fill="#000000" fill-rule="nonzero" fill-opacity="1" /><path clip-path="url(#clip100)" d="M1239.05 1454.1 Q1235.44 1454.1 1233.61 1457.66 Q1231.81 1461.2 1231.81 1468.33 Q1231.81 1475.44 1233.61 1479.01 Q1235.44 1482.55 1239.05 1482.55 Q1242.69 1482.55 1244.49 1479.01 Q1246.32 1475.44 1246.32 1468.33 Q1246.32 1461.2 1244.49 1457.66 Q1242.69 1454.1 1239.05 1454.1 M1239.05 1450.39 Q1244.86 1450.39 1247.92 1455 Q1251 1459.58 1251 1468.33 Q1251 1477.06 1247.92 1481.67 Q1244.86 1486.25 1239.05 1486.25 Q1233.24 1486.25 1230.16 1481.67 Q1227.11 1477.06 1227.11 1468.33 Q1227.11 1459.58 1230.16 1455 Q1233.24 1450.39 1239.05 1450.39 Z" fill="#000000" fill-rule="nonzero" fill-opacity="1" /><path clip-path="url(#clip100)" d="M1733.66 1481.64 L1741.3 1481.64 L1741.3 1455.28 L1732.99 1456.95 L1732.99 1452.69 L1741.26 1451.02 L1745.93 1451.02 L1745.93 1481.64 L1753.57 1481.64 L1753.57 1485.58 L1733.66 1485.58 L1733.66 1481.64 Z" fill="#000000" fill-rule="nonzero" fill-opacity="1" /><path clip-path="url(#clip100)" d="M1763.06 1451.02 L1781.42 1451.02 L1781.42 1454.96 L1767.34 1454.96 L1767.34 1463.43 Q1768.36 1463.08 1769.38 1462.92 Q1770.4 1462.73 1771.42 1462.73 Q1777.2 1462.73 1780.58 1465.9 Q1783.96 1469.08 1783.96 1474.49 Q1783.96 1480.07 1780.49 1483.17 Q1777.02 1486.25 1770.7 1486.25 Q1768.52 1486.25 1766.25 1485.88 Q1764.01 1485.51 1761.6 1484.77 L1761.6 1480.07 Q1763.69 1481.2 1765.91 1481.76 Q1768.13 1482.32 1770.61 1482.32 Q1774.61 1482.32 1776.95 1480.21 Q1779.29 1478.1 1779.29 1474.49 Q1779.29 1470.88 1776.95 1468.77 Q1774.61 1466.67 1770.61 1466.67 Q1768.73 1466.67 1766.86 1467.08 Q1765 1467.5 1763.06 1468.38 L1763.06 1451.02 Z" fill="#000000" fill-rule="nonzero" fill-opacity="1" /><path clip-path="url(#clip100)" d="M2270.71 1481.64 L2287.03 1481.64 L2287.03 1485.58 L2265.09 1485.58 L2265.09 1481.64 Q2267.75 1478.89 2272.33 1474.26 Q2276.94 1469.61 2278.12 1468.27 Q2280.37 1465.74 2281.25 1464.01 Q2282.15 1462.25 2282.15 1460.56 Q2282.15 1457.8 2280.2 1456.07 Q2278.28 1454.33 2275.18 1454.33 Q2272.98 1454.33 2270.53 1455.09 Q2268.1 1455.86 2265.32 1457.41 L2265.32 1452.69 Q2268.14 1451.55 2270.6 1450.97 Q2273.05 1450.39 2275.09 1450.39 Q2280.46 1450.39 2283.65 1453.08 Q2286.85 1455.77 2286.85 1460.26 Q2286.85 1462.39 2286.04 1464.31 Q2285.25 1466.2 2283.14 1468.8 Q2282.57 1469.47 2279.46 1472.69 Q2276.36 1475.88 2270.71 1481.64 Z" fill="#000000" fill-rule="nonzero" fill-opacity="1" /><path clip-path="url(#clip100)" d="M2306.85 1454.1 Q2303.24 1454.1 2301.41 1457.66 Q2299.6 1461.2 2299.6 1468.33 Q2299.6 1475.44 2301.41 1479.01 Q2303.24 1482.55 2306.85 1482.55 Q2310.48 1482.55 2312.29 1479.01 Q2314.12 1475.44 2314.12 1468.33 Q2314.12 1461.2 2312.29 1457.66 Q2310.48 1454.1 2306.85 1454.1 M2306.85 1450.39 Q2312.66 1450.39 2315.71 1455 Q2318.79 1459.58 2318.79 1468.33 Q2318.79 1477.06 2315.71 1481.67 Q2312.66 1486.25 2306.85 1486.25 Q2301.04 1486.25 2297.96 1481.67 Q2294.9 1477.06 2294.9 1468.33 Q2294.9 1459.58 2297.96 1455 Q2301.04 1450.39 2306.85 1450.39 Z" fill="#000000" fill-rule="nonzero" fill-opacity="1" /><path clip-path="url(#clip100)" d="M1127.92 1520.52 L1134.35 1520.52 L1134.35 1568.04 L1127.92 1568.04 L1127.92 1520.52 Z" fill="#000000" fill-rule="nonzero" fill-opacity="1" /><path clip-path="url(#clip100)" d="M1152.68 1522.27 L1152.68 1532.4 L1164.75 1532.4 L1164.75 1536.95 L1152.68 1536.95 L1152.68 1556.3 Q1152.68 1560.66 1153.86 1561.9 Q1155.07 1563.14 1158.73 1563.14 L1164.75 1563.14 L1164.75 1568.04 L1158.73 1568.04 Q1151.95 1568.04 1149.37 1565.53 Q1146.8 1562.98 1146.8 1556.3 L1146.8 1536.95 L1142.5 1536.95 L1142.5 1532.4 L1146.8 1532.4 L1146.8 1522.27 L1152.68 1522.27 Z" fill="#000000" fill-rule="nonzero" fill-opacity="1" /><path clip-path="url(#clip100)" d="M1202.94 1548.76 L1202.94 1551.62 L1176.02 1551.62 Q1176.4 1557.67 1179.64 1560.85 Q1182.92 1564 1188.75 1564 Q1192.12 1564 1195.27 1563.17 Q1198.45 1562.35 1201.57 1560.69 L1201.57 1566.23 Q1198.42 1567.57 1195.11 1568.27 Q1191.8 1568.97 1188.4 1568.97 Q1179.87 1568.97 1174.87 1564 Q1169.9 1559.04 1169.9 1550.57 Q1169.9 1541.82 1174.61 1536.69 Q1179.36 1531.54 1187.38 1531.54 Q1194.57 1531.54 1198.74 1536.18 Q1202.94 1540.8 1202.94 1548.76 M1197.09 1547.04 Q1197.02 1542.23 1194.38 1539.37 Q1191.77 1536.5 1187.44 1536.5 Q1182.54 1536.5 1179.58 1539.27 Q1176.65 1542.04 1176.21 1547.07 L1197.09 1547.04 Z" fill="#000000" fill-rule="nonzero" fill-opacity="1" /><path clip-path="url(#clip100)" d="M1233.21 1537.87 Q1232.22 1537.3 1231.05 1537.04 Q1229.9 1536.76 1228.5 1536.76 Q1223.54 1536.76 1220.86 1540 Q1218.22 1543.22 1218.22 1549.27 L1218.22 1568.04 L1212.33 1568.04 L1212.33 1532.4 L1218.22 1532.4 L1218.22 1537.93 Q1220.07 1534.69 1223.03 1533.13 Q1225.99 1531.54 1230.22 1531.54 Q1230.82 1531.54 1231.56 1531.63 Q1232.29 1531.7 1233.18 1531.85 L1233.21 1537.87 Z" fill="#000000" fill-rule="nonzero" fill-opacity="1" /><path clip-path="url(#clip100)" d="M1255.55 1550.12 Q1248.46 1550.12 1245.72 1551.75 Q1242.98 1553.37 1242.98 1557.29 Q1242.98 1560.4 1245.02 1562.25 Q1247.09 1564.07 1250.62 1564.07 Q1255.49 1564.07 1258.42 1560.63 Q1261.38 1557.16 1261.38 1551.43 L1261.38 1550.12 L1255.55 1550.12 M1267.24 1547.71 L1267.24 1568.04 L1261.38 1568.04 L1261.38 1562.63 Q1259.37 1565.88 1256.38 1567.44 Q1253.39 1568.97 1249.06 1568.97 Q1243.59 1568.97 1240.34 1565.91 Q1237.13 1562.82 1237.13 1557.67 Q1237.13 1551.65 1241.14 1548.6 Q1245.18 1545.54 1253.17 1545.54 L1261.38 1545.54 L1261.38 1544.97 Q1261.38 1540.93 1258.71 1538.73 Q1256.06 1536.5 1251.26 1536.5 Q1248.2 1536.5 1245.31 1537.23 Q1242.41 1537.97 1239.74 1539.43 L1239.74 1534.02 Q1242.95 1532.78 1245.97 1532.17 Q1249 1531.54 1251.86 1531.54 Q1259.6 1531.54 1263.42 1535.55 Q1267.24 1539.56 1267.24 1547.71 Z" fill="#000000" fill-rule="nonzero" fill-opacity="1" /><path clip-path="url(#clip100)" d="M1285.09 1522.27 L1285.09 1532.4 L1297.15 1532.4 L1297.15 1536.95 L1285.09 1536.95 L1285.09 1556.3 Q1285.09 1560.66 1286.27 1561.9 Q1287.48 1563.14 1291.14 1563.14 L1297.15 1563.14 L1297.15 1568.04 L1291.14 1568.04 Q1284.36 1568.04 1281.78 1565.53 Q1279.2 1562.98 1279.2 1556.3 L1279.2 1536.95 L1274.91 1536.95 L1274.91 1532.4 L1279.2 1532.4 L1279.2 1522.27 L1285.09 1522.27 Z" fill="#000000" fill-rule="nonzero" fill-opacity="1" /><path clip-path="url(#clip100)" d="M1304.86 1532.4 L1310.71 1532.4 L1310.71 1568.04 L1304.86 1568.04 L1304.86 1532.4 M1304.86 1518.52 L1310.71 1518.52 L1310.71 1525.93 L1304.86 1525.93 L1304.86 1518.52 Z" fill="#000000" fill-rule="nonzero" fill-opacity="1" /><path clip-path="url(#clip100)" d="M1336.78 1536.5 Q1332.07 1536.5 1329.33 1540.19 Q1326.6 1543.85 1326.6 1550.25 Q1326.6 1556.65 1329.3 1560.34 Q1332.04 1564 1336.78 1564 Q1341.46 1564 1344.2 1560.31 Q1346.93 1556.62 1346.93 1550.25 Q1346.93 1543.92 1344.2 1540.23 Q1341.46 1536.5 1336.78 1536.5 M1336.78 1531.54 Q1344.42 1531.54 1348.78 1536.5 Q1353.14 1541.47 1353.14 1550.25 Q1353.14 1559 1348.78 1564 Q1344.42 1568.97 1336.78 1568.97 Q1329.11 1568.97 1324.75 1564 Q1320.42 1559 1320.42 1550.25 Q1320.42 1541.47 1324.75 1536.5 Q1329.11 1531.54 1336.78 1531.54 Z" fill="#000000" fill-rule="nonzero" fill-opacity="1" /><path clip-path="url(#clip100)" d="M1392.48 1546.53 L1392.48 1568.04 L1386.62 1568.04 L1386.62 1546.72 Q1386.62 1541.66 1384.65 1539.14 Q1382.68 1536.63 1378.73 1536.63 Q1373.99 1536.63 1371.25 1539.65 Q1368.51 1542.68 1368.51 1547.9 L1368.51 1568.04 L1362.63 1568.04 L1362.63 1532.4 L1368.51 1532.4 L1368.51 1537.93 Q1370.61 1534.72 1373.45 1533.13 Q1376.31 1531.54 1380.04 1531.54 Q1386.18 1531.54 1389.33 1535.36 Q1392.48 1539.14 1392.48 1546.53 Z" fill="#000000" fill-rule="nonzero" fill-opacity="1" /><path clip-path="url(#clip100)" d="M1426.89 1533.45 L1426.89 1538.98 Q1424.4 1537.71 1421.73 1537.07 Q1419.06 1536.44 1416.19 1536.44 Q1411.83 1536.44 1409.64 1537.77 Q1407.47 1539.11 1407.47 1541.79 Q1407.47 1543.82 1409.03 1545 Q1410.59 1546.15 1415.3 1547.2 L1417.31 1547.64 Q1423.55 1548.98 1426.16 1551.43 Q1428.8 1553.85 1428.8 1558.21 Q1428.8 1563.17 1424.85 1566.07 Q1420.94 1568.97 1414.06 1568.97 Q1411.2 1568.97 1408.08 1568.39 Q1404.99 1567.85 1401.55 1566.74 L1401.55 1560.69 Q1404.8 1562.38 1407.95 1563.24 Q1411.1 1564.07 1414.19 1564.07 Q1418.33 1564.07 1420.55 1562.66 Q1422.78 1561.23 1422.78 1558.65 Q1422.78 1556.27 1421.16 1554.99 Q1419.57 1553.72 1414.12 1552.54 L1412.09 1552.07 Q1406.64 1550.92 1404.23 1548.56 Q1401.81 1546.18 1401.81 1542.04 Q1401.81 1537.01 1405.37 1534.27 Q1408.94 1531.54 1415.49 1531.54 Q1418.74 1531.54 1421.6 1532.01 Q1424.47 1532.49 1426.89 1533.45 Z" fill="#000000" fill-rule="nonzero" fill-opacity="1" /><polyline clip-path="url(#clip100)" style="stroke:#000000; stroke-linecap:round; stroke-linejoin:round; stroke-width:4; stroke-opacity:1; fill:none" points="203.964,1423.18 203.964,47.2441 "/>
<polyline clip-path="url(#clip100)" style="stroke:#000000; stroke-linecap:round; stroke-linejoin:round; stroke-width:4; stroke-opacity:1; fill:none" points="203.964,1400.8 222.861,1400.8 "/>
<polyline clip-path="url(#clip100)" style="stroke:#000000; stroke-linecap:round; stroke-linejoin:round; stroke-width:4; stroke-opacity:1; fill:none" points="203.964,1118.09 222.861,1118.09 "/>
<polyline clip-path="url(#clip100)" style="stroke:#000000; stroke-linecap:round; stroke-linejoin:round; stroke-width:4; stroke-opacity:1; fill:none" points="203.964,835.376 222.861,835.376 "/>
<polyline clip-path="url(#clip100)" style="stroke:#000000; stroke-linecap:round; stroke-linejoin:round; stroke-width:4; stroke-opacity:1; fill:none" points="203.964,552.663 222.861,552.663 "/>
<polyline clip-path="url(#clip100)" style="stroke:#000000; stroke-linecap:round; stroke-linejoin:round; stroke-width:4; stroke-opacity:1; fill:none" points="203.964,269.949 222.861,269.949 "/>
<path clip-path="url(#clip100)" d="M156.019 1386.6 Q152.408 1386.6 150.579 1390.17 Q148.774 1393.71 148.774 1400.84 Q148.774 1407.94 150.579 1411.51 Q152.408 1415.05 156.019 1415.05 Q159.653 1415.05 161.459 1411.51 Q163.288 1407.94 163.288 1400.84 Q163.288 1393.71 161.459 1390.17 Q159.653 1386.6 156.019 1386.6 M156.019 1382.9 Q161.829 1382.9 164.885 1387.5 Q167.964 1392.09 167.964 1400.84 Q167.964 1409.57 164.885 1414.17 Q161.829 1418.75 156.019 1418.75 Q150.209 1418.75 147.13 1414.17 Q144.075 1409.57 144.075 1400.84 Q144.075 1392.09 147.13 1387.5 Q150.209 1382.9 156.019 1382.9 Z" fill="#000000" fill-rule="nonzero" fill-opacity="1" /><path clip-path="url(#clip100)" d="M147.061 1100.81 L165.417 1100.81 L165.417 1104.75 L151.343 1104.75 L151.343 1113.22 Q152.362 1112.87 153.38 1112.71 Q154.399 1112.52 155.417 1112.52 Q161.204 1112.52 164.584 1115.69 Q167.964 1118.87 167.964 1124.28 Q167.964 1129.86 164.491 1132.96 Q161.019 1136.04 154.7 1136.04 Q152.524 1136.04 150.255 1135.67 Q148.01 1135.3 145.603 1134.56 L145.603 1129.86 Q147.686 1131 149.908 1131.55 Q152.13 1132.11 154.607 1132.11 Q158.612 1132.11 160.95 1130 Q163.288 1127.89 163.288 1124.28 Q163.288 1120.67 160.95 1118.56 Q158.612 1116.46 154.607 1116.46 Q152.732 1116.46 150.857 1116.87 Q149.005 1117.29 147.061 1118.17 L147.061 1100.81 Z" fill="#000000" fill-rule="nonzero" fill-opacity="1" /><path clip-path="url(#clip100)" d="M116.668 848.721 L124.306 848.721 L124.306 822.356 L115.996 824.022 L115.996 819.763 L124.26 818.096 L128.936 818.096 L128.936 848.721 L136.575 848.721 L136.575 852.656 L116.668 852.656 L116.668 848.721 Z" fill="#000000" fill-rule="nonzero" fill-opacity="1" /><path clip-path="url(#clip100)" d="M156.019 821.175 Q152.408 821.175 150.579 824.74 Q148.774 828.282 148.774 835.411 Q148.774 842.518 150.579 846.082 Q152.408 849.624 156.019 849.624 Q159.653 849.624 161.459 846.082 Q163.288 842.518 163.288 835.411 Q163.288 828.282 161.459 824.74 Q159.653 821.175 156.019 821.175 M156.019 817.471 Q161.829 817.471 164.885 822.078 Q167.964 826.661 167.964 835.411 Q167.964 844.138 164.885 848.744 Q161.829 853.328 156.019 853.328 Q150.209 853.328 147.13 848.744 Q144.075 844.138 144.075 835.411 Q144.075 826.661 147.13 822.078 Q150.209 817.471 156.019 817.471 Z" fill="#000000" fill-rule="nonzero" fill-opacity="1" /><path clip-path="url(#clip100)" d="M117.663 566.008 L125.302 566.008 L125.302 539.642 L116.992 541.309 L116.992 537.05 L125.255 535.383 L129.931 535.383 L129.931 566.008 L137.57 566.008 L137.57 569.943 L117.663 569.943 L117.663 566.008 Z" fill="#000000" fill-rule="nonzero" fill-opacity="1" /><path clip-path="url(#clip100)" d="M147.061 535.383 L165.417 535.383 L165.417 539.318 L151.343 539.318 L151.343 547.79 Q152.362 547.443 153.38 547.281 Q154.399 547.096 155.417 547.096 Q161.204 547.096 164.584 550.267 Q167.964 553.438 167.964 558.855 Q167.964 564.434 164.491 567.536 Q161.019 570.614 154.7 570.614 Q152.524 570.614 150.255 570.244 Q148.01 569.874 145.603 569.133 L145.603 564.434 Q147.686 565.568 149.908 566.124 Q152.13 566.679 154.607 566.679 Q158.612 566.679 160.95 564.573 Q163.288 562.466 163.288 558.855 Q163.288 555.244 160.95 553.138 Q158.612 551.031 154.607 551.031 Q152.732 551.031 150.857 551.448 Q149.005 551.864 147.061 552.744 L147.061 535.383 Z" fill="#000000" fill-rule="nonzero" fill-opacity="1" /><path clip-path="url(#clip100)" d="M119.885 283.294 L136.204 283.294 L136.204 287.229 L114.26 287.229 L114.26 283.294 Q116.922 280.54 121.505 275.91 Q126.112 271.257 127.292 269.915 Q129.538 267.392 130.417 265.655 Q131.32 263.896 131.32 262.206 Q131.32 259.452 129.376 257.716 Q127.455 255.98 124.353 255.98 Q122.154 255.98 119.7 256.744 Q117.269 257.507 114.492 259.058 L114.492 254.336 Q117.316 253.202 119.769 252.623 Q122.223 252.044 124.26 252.044 Q129.63 252.044 132.825 254.73 Q136.019 257.415 136.019 261.906 Q136.019 264.035 135.209 265.956 Q134.422 267.855 132.316 270.447 Q131.737 271.118 128.635 274.336 Q125.533 277.53 119.885 283.294 Z" fill="#000000" fill-rule="nonzero" fill-opacity="1" /><path clip-path="url(#clip100)" d="M156.019 255.748 Q152.408 255.748 150.579 259.313 Q148.774 262.855 148.774 269.984 Q148.774 277.091 150.579 280.655 Q152.408 284.197 156.019 284.197 Q159.653 284.197 161.459 280.655 Q163.288 277.091 163.288 269.984 Q163.288 262.855 161.459 259.313 Q159.653 255.748 156.019 255.748 M156.019 252.044 Q161.829 252.044 164.885 256.651 Q167.964 261.234 167.964 269.984 Q167.964 278.711 164.885 283.317 Q161.829 287.901 156.019 287.901 Q150.209 287.901 147.13 283.317 Q144.075 278.711 144.075 269.984 Q144.075 261.234 147.13 256.651 Q150.209 252.044 156.019 252.044 Z" fill="#000000" fill-rule="nonzero" fill-opacity="1" /><path clip-path="url(#clip100)" d="M57.2247 762.378 L44.4614 762.378 L44.4614 772.881 L39.1779 772.881 L39.1779 756.012 L59.58 756.012 Q62.2218 759.736 63.5904 764.224 Q64.9272 768.711 64.9272 773.804 Q64.9272 784.944 58.4342 791.246 Q51.9093 797.516 40.2919 797.516 Q28.6427 797.516 22.1496 791.246 Q15.6248 784.944 15.6248 773.804 Q15.6248 769.157 16.7706 764.988 Q17.9164 760.786 20.1444 757.253 L26.9876 757.253 Q23.9639 760.818 22.4361 764.828 Q20.9083 768.839 20.9083 773.263 Q20.9083 781.984 25.7781 786.376 Q30.6479 790.737 40.2919 790.737 Q49.9041 790.737 54.7739 786.376 Q59.6436 781.984 59.6436 773.263 Q59.6436 769.857 59.0707 767.184 Q58.466 764.51 57.2247 762.378 Z" fill="#000000" fill-rule="nonzero" fill-opacity="1" /><path clip-path="url(#clip100)" d="M46.0847 728.321 Q46.0847 735.419 47.7079 738.156 Q49.3312 740.893 53.2461 740.893 Q56.3653 740.893 58.2114 738.856 Q60.0256 736.787 60.0256 733.255 Q60.0256 728.385 56.5881 725.457 Q53.1188 722.496 47.3897 722.496 L46.0847 722.496 L46.0847 728.321 M43.6657 716.64 L64.0042 716.64 L64.0042 722.496 L58.5933 722.496 Q61.8398 724.502 63.3994 727.494 Q64.9272 730.485 64.9272 734.814 Q64.9272 740.289 61.8716 743.535 Q58.7843 746.75 53.6281 746.75 Q47.6125 746.75 44.5569 742.739 Q41.5014 738.697 41.5014 730.708 L41.5014 722.496 L40.9285 722.496 Q36.8862 722.496 34.6901 725.17 Q32.4621 727.812 32.4621 732.618 Q32.4621 735.673 33.1941 738.57 Q33.9262 741.466 35.3903 744.14 L29.9795 744.14 Q28.7381 740.925 28.1334 737.901 Q27.4968 734.878 27.4968 732.013 Q27.4968 724.279 31.5072 720.459 Q35.5176 716.64 43.6657 716.64 Z" fill="#000000" fill-rule="nonzero" fill-opacity="1" /><path clip-path="url(#clip100)" d="M58.657 698.912 L77.5631 698.912 L77.5631 704.8 L28.3562 704.8 L28.3562 698.912 L33.7671 698.912 Q30.5842 697.065 29.0564 694.265 Q27.4968 691.432 27.4968 687.517 Q27.4968 681.024 32.6531 676.982 Q37.8093 672.908 46.212 672.908 Q54.6147 672.908 59.771 676.982 Q64.9272 681.024 64.9272 687.517 Q64.9272 691.432 63.3994 694.265 Q61.8398 697.065 58.657 698.912 M46.212 678.987 Q39.7508 678.987 36.0905 681.66 Q32.3984 684.302 32.3984 688.949 Q32.3984 693.596 36.0905 696.27 Q39.7508 698.912 46.212 698.912 Q52.6732 698.912 56.3653 696.27 Q60.0256 693.596 60.0256 688.949 Q60.0256 684.302 56.3653 681.66 Q52.6732 678.987 46.212 678.987 Z" fill="#000000" fill-rule="nonzero" fill-opacity="1" /><polyline clip-path="url(#clip102)" style="stroke:#009af9; stroke-linecap:round; stroke-linejoin:round; stroke-width:4; stroke-opacity:1; fill:none" points="264.778,186.019 371.471,330.026 478.164,257.581 584.857,86.1857 691.55,616.715 798.242,793.411 904.935,489.936 1011.63,826.542 1118.32,1091.59 1225.01,1146.8 1331.71,1207.54 1438.4,1163.37 1545.09,804.455 1651.78,1240.67 1758.48,1202.02 1865.17,1340.06 1971.86,1384.24 2078.56,1345.59 2185.25,1384.24 2291.94,1373.19 "/>
<polyline clip-path="url(#clip102)" style="stroke:#e26f46; stroke-linecap:round; stroke-linejoin:round; stroke-width:4; stroke-opacity:1; fill:none" points="264.778,787.669 371.471,804.455 478.164,534.11 584.857,694.02 691.55,853.93 798.242,859.672 904.935,489.936 1011.63,616.715 1118.32,853.93 1225.01,1014.28 1331.71,1146.8 1438.4,1058.46 1545.09,622.458 1651.78,1102.63 1758.48,765.582 1865.17,1146.8 1971.86,1124.72 2078.56,1130.24 2185.25,1086.06 2291.94,1119.19 "/>
<path clip-path="url(#clip100)" d="M1883.36 248.629 L2281.13 248.629 L2281.13 93.1086 L1883.36 93.1086  Z" fill="#ffffff" fill-rule="evenodd" fill-opacity="1"/>
<polyline clip-path="url(#clip100)" style="stroke:#000000; stroke-linecap:round; stroke-linejoin:round; stroke-width:4; stroke-opacity:1; fill:none" points="1883.36,248.629 2281.13,248.629 2281.13,93.1086 1883.36,93.1086 1883.36,248.629 "/>
<polyline clip-path="url(#clip100)" style="stroke:#009af9; stroke-linecap:round; stroke-linejoin:round; stroke-width:4; stroke-opacity:1; fill:none" points="1907.23,144.949 2050.49,144.949 "/>
<path clip-path="url(#clip100)" d="M2074.36 127.669 L2103.6 127.669 L2103.6 131.604 L2091.33 131.604 L2091.33 162.229 L2086.63 162.229 L2086.63 131.604 L2074.36 131.604 L2074.36 127.669 Z" fill="#000000" fill-rule="nonzero" fill-opacity="1" /><path clip-path="url(#clip100)" d="M2115.98 140.284 Q2115.26 139.868 2114.41 139.682 Q2113.57 139.474 2112.56 139.474 Q2108.94 139.474 2107 141.835 Q2105.08 144.173 2105.08 148.571 L2105.08 162.229 L2100.8 162.229 L2100.8 136.303 L2105.08 136.303 L2105.08 140.331 Q2106.42 137.969 2108.57 136.835 Q2110.73 135.678 2113.81 135.678 Q2114.25 135.678 2114.78 135.747 Q2115.31 135.794 2115.96 135.909 L2115.98 140.284 Z" fill="#000000" fill-rule="nonzero" fill-opacity="1" /><path clip-path="url(#clip100)" d="M2132.23 149.196 Q2127.07 149.196 2125.08 150.377 Q2123.09 151.557 2123.09 154.405 Q2123.09 156.673 2124.57 158.016 Q2126.07 159.335 2128.64 159.335 Q2132.19 159.335 2134.31 156.835 Q2136.47 154.312 2136.47 150.145 L2136.47 149.196 L2132.23 149.196 M2140.73 147.437 L2140.73 162.229 L2136.47 162.229 L2136.47 158.293 Q2135.01 160.655 2132.83 161.789 Q2130.66 162.9 2127.51 162.9 Q2123.53 162.9 2121.17 160.678 Q2118.83 158.432 2118.83 154.682 Q2118.83 150.307 2121.75 148.085 Q2124.69 145.863 2130.5 145.863 L2136.47 145.863 L2136.47 145.446 Q2136.47 142.507 2134.52 140.909 Q2132.6 139.289 2129.11 139.289 Q2126.88 139.289 2124.78 139.821 Q2122.67 140.354 2120.73 141.419 L2120.73 137.483 Q2123.06 136.581 2125.26 136.141 Q2127.46 135.678 2129.55 135.678 Q2135.17 135.678 2137.95 138.594 Q2140.73 141.511 2140.73 147.437 Z" fill="#000000" fill-rule="nonzero" fill-opacity="1" /><path clip-path="url(#clip100)" d="M2149.5 136.303 L2153.76 136.303 L2153.76 162.229 L2149.5 162.229 L2149.5 136.303 M2149.5 126.21 L2153.76 126.21 L2153.76 131.604 L2149.5 131.604 L2149.5 126.21 Z" fill="#000000" fill-rule="nonzero" fill-opacity="1" /><path clip-path="url(#clip100)" d="M2184.22 146.581 L2184.22 162.229 L2179.96 162.229 L2179.96 146.719 Q2179.96 143.039 2178.53 141.21 Q2177.09 139.382 2174.22 139.382 Q2170.77 139.382 2168.78 141.581 Q2166.79 143.78 2166.79 147.576 L2166.79 162.229 L2162.51 162.229 L2162.51 136.303 L2166.79 136.303 L2166.79 140.331 Q2168.32 137.993 2170.38 136.835 Q2172.46 135.678 2175.17 135.678 Q2179.64 135.678 2181.93 138.456 Q2184.22 141.21 2184.22 146.581 Z" fill="#000000" fill-rule="nonzero" fill-opacity="1" /><path clip-path="url(#clip100)" d="M2192.72 136.303 L2196.98 136.303 L2196.98 162.229 L2192.72 162.229 L2192.72 136.303 M2192.72 126.21 L2196.98 126.21 L2196.98 131.604 L2192.72 131.604 L2192.72 126.21 Z" fill="#000000" fill-rule="nonzero" fill-opacity="1" /><path clip-path="url(#clip100)" d="M2227.44 146.581 L2227.44 162.229 L2223.18 162.229 L2223.18 146.719 Q2223.18 143.039 2221.74 141.21 Q2220.31 139.382 2217.44 139.382 Q2213.99 139.382 2212 141.581 Q2210.01 143.78 2210.01 147.576 L2210.01 162.229 L2205.73 162.229 L2205.73 136.303 L2210.01 136.303 L2210.01 140.331 Q2211.54 137.993 2213.6 136.835 Q2215.68 135.678 2218.39 135.678 Q2222.86 135.678 2225.15 138.456 Q2227.44 141.21 2227.44 146.581 Z" fill="#000000" fill-rule="nonzero" fill-opacity="1" /><path clip-path="url(#clip100)" d="M2252.99 148.965 Q2252.99 144.335 2251.07 141.789 Q2249.18 139.243 2245.73 139.243 Q2242.3 139.243 2240.38 141.789 Q2238.48 144.335 2238.48 148.965 Q2238.48 153.571 2240.38 156.118 Q2242.3 158.664 2245.73 158.664 Q2249.18 158.664 2251.07 156.118 Q2252.99 153.571 2252.99 148.965 M2257.25 159.011 Q2257.25 165.631 2254.31 168.849 Q2251.37 172.09 2245.31 172.09 Q2243.06 172.09 2241.07 171.742 Q2239.08 171.418 2237.21 170.724 L2237.21 166.58 Q2239.08 167.599 2240.91 168.085 Q2242.74 168.571 2244.64 168.571 Q2248.83 168.571 2250.91 166.372 Q2252.99 164.196 2252.99 159.775 L2252.99 157.668 Q2251.68 159.96 2249.62 161.094 Q2247.56 162.229 2244.68 162.229 Q2239.92 162.229 2237 158.594 Q2234.08 154.96 2234.08 148.965 Q2234.08 142.946 2237 139.312 Q2239.92 135.678 2244.68 135.678 Q2247.56 135.678 2249.62 136.812 Q2251.68 137.946 2252.99 140.238 L2252.99 136.303 L2257.25 136.303 L2257.25 159.011 Z" fill="#000000" fill-rule="nonzero" fill-opacity="1" /><polyline clip-path="url(#clip100)" style="stroke:#e26f46; stroke-linecap:round; stroke-linejoin:round; stroke-width:4; stroke-opacity:1; fill:none" points="1907.23,196.789 2050.49,196.789 "/>
<path clip-path="url(#clip100)" d="M2074.36 179.509 L2103.6 179.509 L2103.6 183.444 L2091.33 183.444 L2091.33 214.069 L2086.63 214.069 L2086.63 183.444 L2074.36 183.444 L2074.36 179.509 Z" fill="#000000" fill-rule="nonzero" fill-opacity="1" /><path clip-path="url(#clip100)" d="M2122.05 200.041 L2122.05 202.124 L2102.46 202.124 Q2102.74 206.522 2105.1 208.837 Q2107.49 211.129 2111.72 211.129 Q2114.18 211.129 2116.47 210.527 Q2118.78 209.925 2121.05 208.721 L2121.05 212.749 Q2118.76 213.721 2116.35 214.231 Q2113.94 214.74 2111.47 214.74 Q2105.26 214.74 2101.63 211.129 Q2098.02 207.518 2098.02 201.36 Q2098.02 194.995 2101.44 191.268 Q2104.89 187.518 2110.73 187.518 Q2115.96 187.518 2118.99 190.897 Q2122.05 194.254 2122.05 200.041 M2117.79 198.791 Q2117.74 195.296 2115.82 193.212 Q2113.92 191.129 2110.77 191.129 Q2107.21 191.129 2105.06 193.143 Q2102.93 195.157 2102.6 198.814 L2117.79 198.791 Z" fill="#000000" fill-rule="nonzero" fill-opacity="1" /><path clip-path="url(#clip100)" d="M2145.56 188.907 L2145.56 192.934 Q2143.76 192.009 2141.81 191.546 Q2139.87 191.083 2137.79 191.083 Q2134.62 191.083 2133.02 192.055 Q2131.44 193.027 2131.44 194.971 Q2131.44 196.453 2132.58 197.309 Q2133.71 198.143 2137.14 198.907 L2138.6 199.231 Q2143.13 200.203 2145.03 201.985 Q2146.95 203.745 2146.95 206.916 Q2146.95 210.527 2144.08 212.633 Q2141.24 214.74 2136.24 214.74 Q2134.15 214.74 2131.88 214.323 Q2129.64 213.93 2127.14 213.12 L2127.14 208.721 Q2129.5 209.948 2131.79 210.573 Q2134.08 211.175 2136.33 211.175 Q2139.34 211.175 2140.96 210.157 Q2142.58 209.115 2142.58 207.24 Q2142.58 205.504 2141.4 204.578 Q2140.24 203.652 2136.28 202.796 L2134.8 202.448 Q2130.84 201.615 2129.08 199.902 Q2127.32 198.166 2127.32 195.157 Q2127.32 191.499 2129.92 189.509 Q2132.51 187.518 2137.28 187.518 Q2139.64 187.518 2141.72 187.865 Q2143.81 188.212 2145.56 188.907 Z" fill="#000000" fill-rule="nonzero" fill-opacity="1" /><path clip-path="url(#clip100)" d="M2157.95 180.782 L2157.95 188.143 L2166.72 188.143 L2166.72 191.453 L2157.95 191.453 L2157.95 205.527 Q2157.95 208.698 2158.81 209.601 Q2159.69 210.504 2162.35 210.504 L2166.72 210.504 L2166.72 214.069 L2162.35 214.069 Q2157.42 214.069 2155.54 212.24 Q2153.67 210.388 2153.67 205.527 L2153.67 191.453 L2150.54 191.453 L2150.54 188.143 L2153.67 188.143 L2153.67 180.782 L2157.95 180.782 Z" fill="#000000" fill-rule="nonzero" fill-opacity="1" /><path clip-path="url(#clip100)" d="M2172.32 188.143 L2176.58 188.143 L2176.58 214.069 L2172.32 214.069 L2172.32 188.143 M2172.32 178.05 L2176.58 178.05 L2176.58 183.444 L2172.32 183.444 L2172.32 178.05 Z" fill="#000000" fill-rule="nonzero" fill-opacity="1" /><path clip-path="url(#clip100)" d="M2207.05 198.421 L2207.05 214.069 L2202.79 214.069 L2202.79 198.559 Q2202.79 194.879 2201.35 193.05 Q2199.92 191.222 2197.05 191.222 Q2193.6 191.222 2191.61 193.421 Q2189.62 195.62 2189.62 199.416 L2189.62 214.069 L2185.33 214.069 L2185.33 188.143 L2189.62 188.143 L2189.62 192.171 Q2191.14 189.833 2193.2 188.675 Q2195.29 187.518 2198 187.518 Q2202.46 187.518 2204.75 190.296 Q2207.05 193.05 2207.05 198.421 Z" fill="#000000" fill-rule="nonzero" fill-opacity="1" /><path clip-path="url(#clip100)" d="M2232.6 200.805 Q2232.6 196.175 2230.68 193.629 Q2228.78 191.083 2225.33 191.083 Q2221.91 191.083 2219.99 193.629 Q2218.09 196.175 2218.09 200.805 Q2218.09 205.411 2219.99 207.958 Q2221.91 210.504 2225.33 210.504 Q2228.78 210.504 2230.68 207.958 Q2232.6 205.411 2232.6 200.805 M2236.86 210.851 Q2236.86 217.471 2233.92 220.689 Q2230.98 223.93 2224.92 223.93 Q2222.67 223.93 2220.68 223.582 Q2218.69 223.258 2216.81 222.564 L2216.81 218.42 Q2218.69 219.439 2220.52 219.925 Q2222.35 220.411 2224.24 220.411 Q2228.43 220.411 2230.52 218.212 Q2232.6 216.036 2232.6 211.615 L2232.6 209.508 Q2231.28 211.8 2229.22 212.934 Q2227.16 214.069 2224.29 214.069 Q2219.52 214.069 2216.61 210.434 Q2213.69 206.8 2213.69 200.805 Q2213.69 194.786 2216.61 191.152 Q2219.52 187.518 2224.29 187.518 Q2227.16 187.518 2229.22 188.652 Q2231.28 189.786 2232.6 192.078 L2232.6 188.143 L2236.86 188.143 L2236.86 210.851 Z" fill="#000000" fill-rule="nonzero" fill-opacity="1" /></svg>
