<?xml version="1.0" encoding="utf-8"?>
<svg xmlns="http://www.w3.org/2000/svg" xmlns:xlink="http://www.w3.org/1999/xlink" width="600" height="400" viewBox="0 0 2400 1600">
<defs>
  <clipPath id="clip820">
    <rect x="0" y="0" width="2400" height="1600"/>
  </clipPath>
</defs>
<path clip-path="url(#clip820)" d="M0 1600 L2400 1600 L2400 0 L0 0  Z" fill="#ffffff" fill-rule="evenodd" fill-opacity="1"/>
<defs>
  <clipPath id="clip821">
    <rect x="480" y="0" width="1681" height="1600"/>
  </clipPath>
</defs>
<path clip-path="url(#clip820)" d="M205.121 1423.18 L2352.76 1423.18 L2352.76 47.2441 L205.121 47.2441  Z" fill="#ffffff" fill-rule="evenodd" fill-opacity="1"/>
<defs>
  <clipPath id="clip822">
    <rect x="205" y="47" width="2149" height="1377"/>
  </clipPath>
</defs>
<polyline clip-path="url(#clip822)" style="stroke:#000000; stroke-linecap:round; stroke-linejoin:round; stroke-width:2; stroke-opacity:0.1; fill:none" points="692.444,1423.18 692.444,47.2441 "/>
<polyline clip-path="url(#clip822)" style="stroke:#000000; stroke-linecap:round; stroke-linejoin:round; stroke-width:2; stroke-opacity:0.1; fill:none" points="1225.62,1423.18 1225.62,47.2441 "/>
<polyline clip-path="url(#clip822)" style="stroke:#000000; stroke-linecap:round; stroke-linejoin:round; stroke-width:2; stroke-opacity:0.1; fill:none" points="1758.8,1423.18 1758.8,47.2441 "/>
<polyline clip-path="url(#clip822)" style="stroke:#000000; stroke-linecap:round; stroke-linejoin:round; stroke-width:2; stroke-opacity:0.1; fill:none" points="2291.97,1423.18 2291.97,47.2441 "/>
<polyline clip-path="url(#clip822)" style="stroke:#000000; stroke-linecap:round; stroke-linejoin:round; stroke-width:2; stroke-opacity:0.1; fill:none" points="205.121,1340.71 2352.76,1340.71 "/>
<polyline clip-path="url(#clip822)" style="stroke:#000000; stroke-linecap:round; stroke-linejoin:round; stroke-width:2; stroke-opacity:0.1; fill:none" points="205.121,994.633 2352.76,994.633 "/>
<polyline clip-path="url(#clip822)" style="stroke:#000000; stroke-linecap:round; stroke-linejoin:round; stroke-width:2; stroke-opacity:0.1; fill:none" points="205.121,648.558 2352.76,648.558 "/>
<polyline clip-path="url(#clip822)" style="stroke:#000000; stroke-linecap:round; stroke-linejoin:round; stroke-width:2; stroke-opacity:0.1; fill:none" points="205.121,302.483 2352.76,302.483 "/>
<polyline clip-path="url(#clip820)" style="stroke:#000000; stroke-linecap:round; stroke-linejoin:round; stroke-width:4; stroke-opacity:1; fill:none" points="205.121,1423.18 2352.76,1423.18 "/>
<polyline clip-path="url(#clip820)" style="stroke:#000000; stroke-linecap:round; stroke-linejoin:round; stroke-width:4; stroke-opacity:1; fill:none" points="692.444,1423.18 692.444,1404.28 "/>
<polyline clip-path="url(#clip820)" style="stroke:#000000; stroke-linecap:round; stroke-linejoin:round; stroke-width:4; stroke-opacity:1; fill:none" points="1225.62,1423.18 1225.62,1404.28 "/>
<polyline clip-path="url(#clip820)" style="stroke:#000000; stroke-linecap:round; stroke-linejoin:round; stroke-width:4; stroke-opacity:1; fill:none" points="1758.8,1423.18 1758.8,1404.28 "/>
<polyline clip-path="url(#clip820)" style="stroke:#000000; stroke-linecap:round; stroke-linejoin:round; stroke-width:4; stroke-opacity:1; fill:none" points="2291.97,1423.18 2291.97,1404.28 "/>
<path clip-path="url(#clip820)" d="M682.722 1451.02 L701.079 1451.02 L701.079 1454.96 L687.005 1454.96 L687.005 1463.43 Q688.023 1463.08 689.042 1462.92 Q690.06 1462.73 691.079 1462.73 Q696.866 1462.73 700.245 1465.9 Q703.625 1469.08 703.625 1474.49 Q703.625 1480.07 700.153 1483.17 Q696.68 1486.25 690.361 1486.25 Q688.185 1486.25 685.917 1485.88 Q683.671 1485.51 681.264 1484.77 L681.264 1480.07 Q683.347 1481.2 685.569 1481.76 Q687.792 1482.32 690.268 1482.32 Q694.273 1482.32 696.611 1480.21 Q698.949 1478.1 698.949 1474.49 Q698.949 1470.88 696.611 1468.77 Q694.273 1466.67 690.268 1466.67 Q688.393 1466.67 686.518 1467.08 Q684.667 1467.5 682.722 1468.38 L682.722 1451.02 Z" fill="#000000" fill-rule="nonzero" fill-opacity="1" /><path clip-path="url(#clip820)" d="M1200.31 1481.64 L1207.95 1481.64 L1207.95 1455.28 L1199.64 1456.95 L1199.64 1452.69 L1207.9 1451.02 L1212.58 1451.02 L1212.58 1481.64 L1220.22 1481.64 L1220.22 1485.58 L1200.31 1485.58 L1200.31 1481.64 Z" fill="#000000" fill-rule="nonzero" fill-opacity="1" /><path clip-path="url(#clip820)" d="M1239.66 1454.1 Q1236.05 1454.1 1234.22 1457.66 Q1232.41 1461.2 1232.41 1468.33 Q1232.41 1475.44 1234.22 1479.01 Q1236.05 1482.55 1239.66 1482.55 Q1243.29 1482.55 1245.1 1479.01 Q1246.93 1475.44 1246.93 1468.33 Q1246.93 1461.2 1245.1 1457.66 Q1243.29 1454.1 1239.66 1454.1 M1239.66 1450.39 Q1245.47 1450.39 1248.53 1455 Q1251.6 1459.58 1251.6 1468.33 Q1251.6 1477.06 1248.53 1481.67 Q1245.47 1486.25 1239.66 1486.25 Q1233.85 1486.25 1230.77 1481.67 Q1227.72 1477.06 1227.72 1468.33 Q1227.72 1459.58 1230.77 1455 Q1233.85 1450.39 1239.66 1450.39 Z" fill="#000000" fill-rule="nonzero" fill-opacity="1" /><path clip-path="url(#clip820)" d="M1733.98 1481.64 L1741.62 1481.64 L1741.62 1455.28 L1733.31 1456.95 L1733.31 1452.69 L1741.58 1451.02 L1746.25 1451.02 L1746.25 1481.64 L1753.89 1481.64 L1753.89 1485.58 L1733.98 1485.58 L1733.98 1481.64 Z" fill="#000000" fill-rule="nonzero" fill-opacity="1" /><path clip-path="url(#clip820)" d="M1763.38 1451.02 L1781.74 1451.02 L1781.74 1454.96 L1767.66 1454.96 L1767.66 1463.43 Q1768.68 1463.08 1769.7 1462.92 Q1770.72 1462.73 1771.74 1462.73 Q1777.52 1462.73 1780.9 1465.9 Q1784.28 1469.08 1784.28 1474.49 Q1784.28 1480.07 1780.81 1483.17 Q1777.34 1486.25 1771.02 1486.25 Q1768.84 1486.25 1766.58 1485.88 Q1764.33 1485.51 1761.92 1484.77 L1761.92 1480.07 Q1764.01 1481.2 1766.23 1481.76 Q1768.45 1482.32 1770.93 1482.32 Q1774.93 1482.32 1777.27 1480.21 Q1779.61 1478.1 1779.61 1474.49 Q1779.61 1470.88 1777.27 1468.77 Q1774.93 1466.67 1770.93 1466.67 Q1769.05 1466.67 1767.18 1467.08 Q1765.33 1467.5 1763.38 1468.38 L1763.38 1451.02 Z" fill="#000000" fill-rule="nonzero" fill-opacity="1" /><path clip-path="url(#clip820)" d="M2270.75 1481.64 L2287.07 1481.64 L2287.07 1485.58 L2265.12 1485.58 L2265.12 1481.64 Q2267.78 1478.89 2272.37 1474.26 Q2276.97 1469.61 2278.15 1468.27 Q2280.4 1465.74 2281.28 1464.01 Q2282.18 1462.25 2282.18 1460.56 Q2282.18 1457.8 2280.24 1456.07 Q2278.32 1454.33 2275.21 1454.33 Q2273.02 1454.33 2270.56 1455.09 Q2268.13 1455.86 2265.35 1457.41 L2265.35 1452.69 Q2268.18 1451.55 2270.63 1450.97 Q2273.08 1450.39 2275.12 1450.39 Q2280.49 1450.39 2283.69 1453.08 Q2286.88 1455.77 2286.88 1460.26 Q2286.88 1462.39 2286.07 1464.31 Q2285.28 1466.2 2283.18 1468.8 Q2282.6 1469.47 2279.5 1472.69 Q2276.4 1475.88 2270.75 1481.64 Z" fill="#000000" fill-rule="nonzero" fill-opacity="1" /><path clip-path="url(#clip820)" d="M2306.88 1454.1 Q2303.27 1454.1 2301.44 1457.66 Q2299.64 1461.2 2299.64 1468.33 Q2299.64 1475.44 2301.44 1479.01 Q2303.27 1482.55 2306.88 1482.55 Q2310.52 1482.55 2312.32 1479.01 Q2314.15 1475.44 2314.15 1468.33 Q2314.15 1461.2 2312.32 1457.66 Q2310.52 1454.1 2306.88 1454.1 M2306.88 1450.39 Q2312.69 1450.39 2315.75 1455 Q2318.83 1459.58 2318.83 1468.33 Q2318.83 1477.06 2315.75 1481.67 Q2312.69 1486.25 2306.88 1486.25 Q2301.07 1486.25 2297.99 1481.67 Q2294.94 1477.06 2294.94 1468.33 Q2294.94 1459.58 2297.99 1455 Q2301.07 1450.39 2306.88 1450.39 Z" fill="#000000" fill-rule="nonzero" fill-opacity="1" /><path clip-path="url(#clip820)" d="M1128.5 1520.52 L1134.93 1520.52 L1134.93 1568.04 L1128.5 1568.04 L1128.5 1520.52 Z" fill="#000000" fill-rule="nonzero" fill-opacity="1" /><path clip-path="url(#clip820)" d="M1153.26 1522.27 L1153.26 1532.4 L1165.33 1532.4 L1165.33 1536.95 L1153.26 1536.95 L1153.26 1556.3 Q1153.26 1560.66 1154.44 1561.9 Q1155.65 1563.14 1159.31 1563.14 L1165.33 1563.14 L1165.33 1568.04 L1159.31 1568.04 Q1152.53 1568.04 1149.95 1565.53 Q1147.38 1562.98 1147.38 1556.3 L1147.38 1536.95 L1143.08 1536.95 L1143.08 1532.4 L1147.38 1532.4 L1147.38 1522.27 L1153.26 1522.27 Z" fill="#000000" fill-rule="nonzero" fill-opacity="1" /><path clip-path="url(#clip820)" d="M1203.52 1548.76 L1203.52 1551.62 L1176.59 1551.62 Q1176.98 1557.67 1180.22 1560.85 Q1183.5 1564 1189.33 1564 Q1192.7 1564 1195.85 1563.17 Q1199.03 1562.35 1202.15 1560.69 L1202.15 1566.23 Q1199 1567.57 1195.69 1568.27 Q1192.38 1568.97 1188.98 1568.97 Q1180.45 1568.97 1175.45 1564 Q1170.48 1559.04 1170.48 1550.57 Q1170.48 1541.82 1175.19 1536.69 Q1179.94 1531.54 1187.96 1531.54 Q1195.15 1531.54 1199.32 1536.18 Q1203.52 1540.8 1203.52 1548.76 M1197.66 1547.04 Q1197.6 1542.23 1194.96 1539.37 Q1192.35 1536.5 1188.02 1536.5 Q1183.12 1536.5 1180.16 1539.27 Q1177.23 1542.04 1176.78 1547.07 L1197.66 1547.04 Z" fill="#000000" fill-rule="nonzero" fill-opacity="1" /><path clip-path="url(#clip820)" d="M1233.79 1537.87 Q1232.8 1537.3 1231.63 1537.04 Q1230.48 1536.76 1229.08 1536.76 Q1224.11 1536.76 1221.44 1540 Q1218.8 1543.22 1218.8 1549.27 L1218.8 1568.04 L1212.91 1568.04 L1212.91 1532.4 L1218.8 1532.4 L1218.8 1537.93 Q1220.64 1534.69 1223.6 1533.13 Q1226.56 1531.54 1230.8 1531.54 Q1231.4 1531.54 1232.13 1531.63 Q1232.87 1531.7 1233.76 1531.85 L1233.79 1537.87 Z" fill="#000000" fill-rule="nonzero" fill-opacity="1" /><path clip-path="url(#clip820)" d="M1256.13 1550.12 Q1249.04 1550.12 1246.3 1551.75 Q1243.56 1553.37 1243.56 1557.29 Q1243.56 1560.4 1245.6 1562.25 Q1247.67 1564.07 1251.2 1564.07 Q1256.07 1564.07 1259 1560.63 Q1261.96 1557.16 1261.96 1551.43 L1261.96 1550.12 L1256.13 1550.12 M1267.81 1547.71 L1267.81 1568.04 L1261.96 1568.04 L1261.96 1562.63 Q1259.95 1565.88 1256.96 1567.44 Q1253.97 1568.97 1249.64 1568.97 Q1244.17 1568.97 1240.92 1565.91 Q1237.7 1562.82 1237.7 1557.67 Q1237.7 1551.65 1241.71 1548.6 Q1245.76 1545.54 1253.75 1545.54 L1261.96 1545.54 L1261.96 1544.97 Q1261.96 1540.93 1259.28 1538.73 Q1256.64 1536.5 1251.84 1536.5 Q1248.78 1536.5 1245.88 1537.23 Q1242.99 1537.97 1240.31 1539.43 L1240.31 1534.02 Q1243.53 1532.78 1246.55 1532.17 Q1249.58 1531.54 1252.44 1531.54 Q1260.18 1531.54 1263.99 1535.55 Q1267.81 1539.56 1267.81 1547.71 Z" fill="#000000" fill-rule="nonzero" fill-opacity="1" /><path clip-path="url(#clip820)" d="M1285.67 1522.27 L1285.67 1532.4 L1297.73 1532.4 L1297.73 1536.95 L1285.67 1536.95 L1285.67 1556.3 Q1285.67 1560.66 1286.85 1561.9 Q1288.06 1563.14 1291.72 1563.14 L1297.73 1563.14 L1297.73 1568.04 L1291.72 1568.04 Q1284.94 1568.04 1282.36 1565.53 Q1279.78 1562.98 1279.78 1556.3 L1279.78 1536.95 L1275.49 1536.95 L1275.49 1532.4 L1279.78 1532.4 L1279.78 1522.27 L1285.67 1522.27 Z" fill="#000000" fill-rule="nonzero" fill-opacity="1" /><path clip-path="url(#clip820)" d="M1305.44 1532.4 L1311.29 1532.4 L1311.29 1568.04 L1305.44 1568.04 L1305.44 1532.4 M1305.44 1518.52 L1311.29 1518.52 L1311.29 1525.93 L1305.44 1525.93 L1305.44 1518.52 Z" fill="#000000" fill-rule="nonzero" fill-opacity="1" /><path clip-path="url(#clip820)" d="M1337.36 1536.5 Q1332.65 1536.5 1329.91 1540.19 Q1327.17 1543.85 1327.17 1550.25 Q1327.17 1556.65 1329.88 1560.34 Q1332.62 1564 1337.36 1564 Q1342.04 1564 1344.78 1560.31 Q1347.51 1556.62 1347.51 1550.25 Q1347.51 1543.92 1344.78 1540.23 Q1342.04 1536.5 1337.36 1536.5 M1337.36 1531.54 Q1345 1531.54 1349.36 1536.5 Q1353.72 1541.47 1353.72 1550.25 Q1353.72 1559 1349.36 1564 Q1345 1568.97 1337.36 1568.97 Q1329.69 1568.97 1325.33 1564 Q1321 1559 1321 1550.25 Q1321 1541.47 1325.33 1536.5 Q1329.69 1531.54 1337.36 1531.54 Z" fill="#000000" fill-rule="nonzero" fill-opacity="1" /><path clip-path="url(#clip820)" d="M1393.06 1546.53 L1393.06 1568.04 L1387.2 1568.04 L1387.2 1546.72 Q1387.2 1541.66 1385.23 1539.14 Q1383.26 1536.63 1379.31 1536.63 Q1374.57 1536.63 1371.83 1539.65 Q1369.09 1542.68 1369.09 1547.9 L1369.09 1568.04 L1363.2 1568.04 L1363.2 1532.4 L1369.09 1532.4 L1369.09 1537.93 Q1371.19 1534.72 1374.03 1533.13 Q1376.89 1531.54 1380.61 1531.54 Q1386.76 1531.54 1389.91 1535.36 Q1393.06 1539.14 1393.06 1546.53 Z" fill="#000000" fill-rule="nonzero" fill-opacity="1" /><path clip-path="url(#clip820)" d="M1427.47 1533.45 L1427.47 1538.98 Q1424.98 1537.71 1422.31 1537.07 Q1419.64 1536.44 1416.77 1536.44 Q1412.41 1536.44 1410.22 1537.77 Q1408.05 1539.11 1408.05 1541.79 Q1408.05 1543.82 1409.61 1545 Q1411.17 1546.15 1415.88 1547.2 L1417.89 1547.64 Q1424.12 1548.98 1426.73 1551.43 Q1429.38 1553.85 1429.38 1558.21 Q1429.38 1563.17 1425.43 1566.07 Q1421.51 1568.97 1414.64 1568.97 Q1411.77 1568.97 1408.66 1568.39 Q1405.57 1567.85 1402.13 1566.74 L1402.13 1560.69 Q1405.38 1562.38 1408.53 1563.24 Q1411.68 1564.07 1414.77 1564.07 Q1418.9 1564.07 1421.13 1562.66 Q1423.36 1561.23 1423.36 1558.65 Q1423.36 1556.27 1421.74 1554.99 Q1420.15 1553.72 1414.7 1552.54 L1412.67 1552.07 Q1407.22 1550.92 1404.8 1548.56 Q1402.39 1546.18 1402.39 1542.04 Q1402.39 1537.01 1405.95 1534.27 Q1409.51 1531.54 1416.07 1531.54 Q1419.32 1531.54 1422.18 1532.01 Q1425.05 1532.49 1427.47 1533.45 Z" fill="#000000" fill-rule="nonzero" fill-opacity="1" /><polyline clip-path="url(#clip820)" style="stroke:#000000; stroke-linecap:round; stroke-linejoin:round; stroke-width:4; stroke-opacity:1; fill:none" points="205.121,1423.18 205.121,47.2441 "/>
<polyline clip-path="url(#clip820)" style="stroke:#000000; stroke-linecap:round; stroke-linejoin:round; stroke-width:4; stroke-opacity:1; fill:none" points="205.121,1340.71 224.019,1340.71 "/>
<polyline clip-path="url(#clip820)" style="stroke:#000000; stroke-linecap:round; stroke-linejoin:round; stroke-width:4; stroke-opacity:1; fill:none" points="205.121,994.633 224.019,994.633 "/>
<polyline clip-path="url(#clip820)" style="stroke:#000000; stroke-linecap:round; stroke-linejoin:round; stroke-width:4; stroke-opacity:1; fill:none" points="205.121,648.558 224.019,648.558 "/>
<polyline clip-path="url(#clip820)" style="stroke:#000000; stroke-linecap:round; stroke-linejoin:round; stroke-width:4; stroke-opacity:1; fill:none" points="205.121,302.483 224.019,302.483 "/>
<path clip-path="url(#clip820)" d="M121.043 1354.05 L137.362 1354.05 L137.362 1357.99 L115.418 1357.99 L115.418 1354.05 Q118.08 1351.3 122.663 1346.67 Q127.269 1342.02 128.45 1340.67 Q130.695 1338.15 131.575 1336.41 Q132.478 1334.66 132.478 1332.97 Q132.478 1330.21 130.533 1328.47 Q128.612 1326.74 125.51 1326.74 Q123.311 1326.74 120.857 1327.5 Q118.427 1328.27 115.649 1329.82 L115.649 1325.1 Q118.473 1323.96 120.927 1323.38 Q123.38 1322.8 125.418 1322.8 Q130.788 1322.8 133.982 1325.49 Q137.177 1328.17 137.177 1332.66 Q137.177 1334.79 136.367 1336.72 Q135.579 1338.61 133.473 1341.21 Q132.894 1341.88 129.792 1345.1 Q126.691 1348.29 121.043 1354.05 Z" fill="#000000" fill-rule="nonzero" fill-opacity="1" /><path clip-path="url(#clip820)" d="M157.177 1326.51 Q153.566 1326.51 151.737 1330.07 Q149.931 1333.61 149.931 1340.74 Q149.931 1347.85 151.737 1351.41 Q153.566 1354.96 157.177 1354.96 Q160.811 1354.96 162.616 1351.41 Q164.445 1347.85 164.445 1340.74 Q164.445 1333.61 162.616 1330.07 Q160.811 1326.51 157.177 1326.51 M157.177 1322.8 Q162.987 1322.8 166.042 1327.41 Q169.121 1331.99 169.121 1340.74 Q169.121 1349.47 166.042 1354.08 Q162.987 1358.66 157.177 1358.66 Q151.366 1358.66 148.288 1354.08 Q145.232 1349.47 145.232 1340.74 Q145.232 1331.99 148.288 1327.41 Q151.366 1322.8 157.177 1322.8 Z" fill="#000000" fill-rule="nonzero" fill-opacity="1" /><path clip-path="url(#clip820)" d="M129.862 981.427 L118.056 999.876 L129.862 999.876 L129.862 981.427 M128.635 977.353 L134.515 977.353 L134.515 999.876 L139.445 999.876 L139.445 1003.77 L134.515 1003.77 L134.515 1011.91 L129.862 1011.91 L129.862 1003.77 L114.26 1003.77 L114.26 999.251 L128.635 977.353 Z" fill="#000000" fill-rule="nonzero" fill-opacity="1" /><path clip-path="url(#clip820)" d="M157.177 980.432 Q153.566 980.432 151.737 983.997 Q149.931 987.538 149.931 994.668 Q149.931 1001.77 151.737 1005.34 Q153.566 1008.88 157.177 1008.88 Q160.811 1008.88 162.616 1005.34 Q164.445 1001.77 164.445 994.668 Q164.445 987.538 162.616 983.997 Q160.811 980.432 157.177 980.432 M157.177 976.728 Q162.987 976.728 166.042 981.335 Q169.121 985.918 169.121 994.668 Q169.121 1003.39 166.042 1008 Q162.987 1012.58 157.177 1012.58 Q151.366 1012.58 148.288 1008 Q145.232 1003.39 145.232 994.668 Q145.232 985.918 148.288 981.335 Q151.366 976.728 157.177 976.728 Z" fill="#000000" fill-rule="nonzero" fill-opacity="1" /><path clip-path="url(#clip820)" d="M127.593 646.695 Q124.445 646.695 122.593 648.847 Q120.765 651 120.765 654.75 Q120.765 658.477 122.593 660.653 Q124.445 662.806 127.593 662.806 Q130.742 662.806 132.57 660.653 Q134.422 658.477 134.422 654.75 Q134.422 651 132.57 648.847 Q130.742 646.695 127.593 646.695 M136.876 632.042 L136.876 636.301 Q135.117 635.468 133.311 635.028 Q131.529 634.588 129.769 634.588 Q125.14 634.588 122.686 637.713 Q120.255 640.838 119.908 647.158 Q121.274 645.144 123.334 644.079 Q125.394 642.991 127.871 642.991 Q133.08 642.991 136.089 646.162 Q139.121 649.31 139.121 654.75 Q139.121 660.074 135.973 663.292 Q132.825 666.509 127.593 666.509 Q121.598 666.509 118.427 661.926 Q115.256 657.319 115.256 648.593 Q115.256 640.398 119.144 635.537 Q123.033 630.653 129.584 630.653 Q131.343 630.653 133.126 631 Q134.931 631.347 136.876 632.042 Z" fill="#000000" fill-rule="nonzero" fill-opacity="1" /><path clip-path="url(#clip820)" d="M157.177 634.357 Q153.566 634.357 151.737 637.921 Q149.931 641.463 149.931 648.593 Q149.931 655.699 151.737 659.264 Q153.566 662.806 157.177 662.806 Q160.811 662.806 162.616 659.264 Q164.445 655.699 164.445 648.593 Q164.445 641.463 162.616 637.921 Q160.811 634.357 157.177 634.357 M157.177 630.653 Q162.987 630.653 166.042 635.259 Q169.121 639.843 169.121 648.593 Q169.121 657.319 166.042 661.926 Q162.987 666.509 157.177 666.509 Q151.366 666.509 148.288 661.926 Q145.232 657.319 145.232 648.593 Q145.232 639.843 148.288 635.259 Q151.366 630.653 157.177 630.653 Z" fill="#000000" fill-rule="nonzero" fill-opacity="1" /><path clip-path="url(#clip820)" d="M127.015 303.351 Q123.681 303.351 121.76 305.133 Q119.862 306.916 119.862 310.041 Q119.862 313.166 121.76 314.948 Q123.681 316.73 127.015 316.73 Q130.348 316.73 132.269 314.948 Q134.191 313.142 134.191 310.041 Q134.191 306.916 132.269 305.133 Q130.371 303.351 127.015 303.351 M122.339 301.36 Q119.33 300.619 117.64 298.559 Q115.973 296.499 115.973 293.536 Q115.973 289.393 118.913 286.985 Q121.876 284.578 127.015 284.578 Q132.177 284.578 135.117 286.985 Q138.056 289.393 138.056 293.536 Q138.056 296.499 136.367 298.559 Q134.7 300.619 131.714 301.36 Q135.093 302.147 136.968 304.439 Q138.867 306.73 138.867 310.041 Q138.867 315.064 135.788 317.749 Q132.732 320.434 127.015 320.434 Q121.297 320.434 118.218 317.749 Q115.163 315.064 115.163 310.041 Q115.163 306.73 117.061 304.439 Q118.959 302.147 122.339 301.36 M120.626 293.976 Q120.626 296.661 122.293 298.166 Q123.982 299.67 127.015 299.67 Q130.024 299.67 131.714 298.166 Q133.427 296.661 133.427 293.976 Q133.427 291.291 131.714 289.786 Q130.024 288.281 127.015 288.281 Q123.982 288.281 122.293 289.786 Q120.626 291.291 120.626 293.976 Z" fill="#000000" fill-rule="nonzero" fill-opacity="1" /><path clip-path="url(#clip820)" d="M157.177 288.281 Q153.566 288.281 151.737 291.846 Q149.931 295.388 149.931 302.517 Q149.931 309.624 151.737 313.189 Q153.566 316.73 157.177 316.73 Q160.811 316.73 162.616 313.189 Q164.445 309.624 164.445 302.517 Q164.445 295.388 162.616 291.846 Q160.811 288.281 157.177 288.281 M157.177 284.578 Q162.987 284.578 166.042 289.184 Q169.121 293.767 169.121 302.517 Q169.121 311.244 166.042 315.851 Q162.987 320.434 157.177 320.434 Q151.366 320.434 148.288 315.851 Q145.232 311.244 145.232 302.517 Q145.232 293.767 148.288 289.184 Q151.366 284.578 157.177 284.578 Z" fill="#000000" fill-rule="nonzero" fill-opacity="1" /><path clip-path="url(#clip820)" d="M57.2247 762.378 L44.4614 762.378 L44.4614 772.881 L39.1779 772.881 L39.1779 756.012 L59.58 756.012 Q62.2218 759.736 63.5904 764.224 Q64.9272 768.711 64.9272 773.804 Q64.9272 784.944 58.4342 791.246 Q51.9093 797.516 40.2919 797.516 Q28.6427 797.516 22.1496 791.246 Q15.6248 784.944 15.6248 773.804 Q15.6248 769.157 16.7706 764.988 Q17.9164 760.786 20.1444 757.253 L26.9876 757.253 Q23.9639 760.818 22.4361 764.828 Q20.9083 768.839 20.9083 773.263 Q20.9083 781.984 25.7781 786.376 Q30.6479 790.737 40.2919 790.737 Q49.9041 790.737 54.7739 786.376 Q59.6436 781.984 59.6436 773.263 Q59.6436 769.857 59.0707 767.184 Q58.466 764.51 57.2247 762.378 Z" fill="#000000" fill-rule="nonzero" fill-opacity="1" /><path clip-path="url(#clip820)" d="M46.0847 728.321 Q46.0847 735.419 47.7079 738.156 Q49.3312 740.893 53.2461 740.893 Q56.3653 740.893 58.2114 738.856 Q60.0256 736.787 60.0256 733.255 Q60.0256 728.385 56.5881 725.457 Q53.1188 722.496 47.3897 722.496 L46.0847 722.496 L46.0847 728.321 M43.6657 716.64 L64.0042 716.64 L64.0042 722.496 L58.5933 722.496 Q61.8398 724.502 63.3994 727.494 Q64.9272 730.485 64.9272 734.814 Q64.9272 740.289 61.8716 743.535 Q58.7843 746.75 53.6281 746.75 Q47.6125 746.75 44.5569 742.739 Q41.5014 738.697 41.5014 730.708 L41.5014 722.496 L40.9285 722.496 Q36.8862 722.496 34.6901 725.17 Q32.4621 727.812 32.4621 732.618 Q32.4621 735.673 33.1941 738.57 Q33.9262 741.466 35.3903 744.14 L29.9795 744.14 Q28.7381 740.925 28.1334 737.901 Q27.4968 734.878 27.4968 732.013 Q27.4968 724.279 31.5072 720.459 Q35.5176 716.64 43.6657 716.64 Z" fill="#000000" fill-rule="nonzero" fill-opacity="1" /><path clip-path="url(#clip820)" d="M58.657 698.912 L77.5631 698.912 L77.5631 704.8 L28.3562 704.8 L28.3562 698.912 L33.7671 698.912 Q30.5842 697.065 29.0564 694.265 Q27.4968 691.432 27.4968 687.517 Q27.4968 681.024 32.6531 676.982 Q37.8093 672.908 46.212 672.908 Q54.6147 672.908 59.771 676.982 Q64.9272 681.024 64.9272 687.517 Q64.9272 691.432 63.3994 694.265 Q61.8398 697.065 58.657 698.912 M46.212 678.987 Q39.7508 678.987 36.0905 681.66 Q32.3984 684.302 32.3984 688.949 Q32.3984 693.596 36.0905 696.27 Q39.7508 698.912 46.212 698.912 Q52.6732 698.912 56.3653 696.27 Q60.0256 693.596 60.0256 688.949 Q60.0256 684.302 56.3653 681.66 Q52.6732 678.987 46.212 678.987 Z" fill="#000000" fill-rule="nonzero" fill-opacity="1" /><polyline clip-path="url(#clip822)" style="stroke:#009af9; stroke-linecap:round; stroke-linejoin:round; stroke-width:4; stroke-opacity:1; fill:none" points="265.903,275.446 372.538,461.461 479.174,757.247 585.809,785.907 692.444,833.492 799.08,988.685 905.715,909.196 1012.35,1135.77 1118.99,914.603 1225.62,750.758 1332.26,975.166 1438.89,978.952 1545.53,1068.17 1652.16,1161.18 1758.8,1139.28 1865.43,1237.43 1972.07,1164.7 2078.7,1194.98 2185.34,1142.8 2291.97,1159.56 "/>
<polyline clip-path="url(#clip822)" style="stroke:#e26f46; stroke-linecap:round; stroke-linejoin:round; stroke-width:4; stroke-opacity:1; fill:none" points="265.903,86.1857 372.538,637.202 479.174,923.255 585.809,923.255 692.444,894.055 799.08,1049.79 905.715,1000.58 1012.35,1140.9 1118.99,1010.86 1225.62,818.351 1332.26,980.574 1438.89,971.922 1545.53,1075.2 1652.16,1243.92 1758.8,1110.35 1865.43,1384.24 1972.07,1379.1 2078.7,1227.15 2185.34,1060.06 2291.97,1069.8 "/>
<path clip-path="url(#clip820)" d="M1883.51 248.629 L2281.17 248.629 L2281.17 93.1086 L1883.51 93.1086  Z" fill="#ffffff" fill-rule="evenodd" fill-opacity="1"/>
<polyline clip-path="url(#clip820)" style="stroke:#000000; stroke-linecap:round; stroke-linejoin:round; stroke-width:4; stroke-opacity:1; fill:none" points="1883.51,248.629 2281.17,248.629 2281.17,93.1086 1883.51,93.1086 1883.51,248.629 "/>
<polyline clip-path="url(#clip820)" style="stroke:#009af9; stroke-linecap:round; stroke-linejoin:round; stroke-width:4; stroke-opacity:1; fill:none" points="1907.37,144.949 2050.55,144.949 "/>
<path clip-path="url(#clip820)" d="M2074.41 127.669 L2103.65 127.669 L2103.65 131.604 L2091.38 131.604 L2091.38 162.229 L2086.68 162.229 L2086.68 131.604 L2074.41 131.604 L2074.41 127.669 Z" fill="#000000" fill-rule="nonzero" fill-opacity="1" /><path clip-path="url(#clip820)" d="M2116.03 140.284 Q2115.32 139.868 2114.46 139.682 Q2113.63 139.474 2112.61 139.474 Q2109 139.474 2107.05 141.835 Q2105.13 144.173 2105.13 148.571 L2105.13 162.229 L2100.85 162.229 L2100.85 136.303 L2105.13 136.303 L2105.13 140.331 Q2106.47 137.969 2108.63 136.835 Q2110.78 135.678 2113.86 135.678 Q2114.3 135.678 2114.83 135.747 Q2115.36 135.794 2116.01 135.909 L2116.03 140.284 Z" fill="#000000" fill-rule="nonzero" fill-opacity="1" /><path clip-path="url(#clip820)" d="M2132.28 149.196 Q2127.12 149.196 2125.13 150.377 Q2123.14 151.557 2123.14 154.405 Q2123.14 156.673 2124.62 158.016 Q2126.13 159.335 2128.7 159.335 Q2132.24 159.335 2134.37 156.835 Q2136.52 154.312 2136.52 150.145 L2136.52 149.196 L2132.28 149.196 M2140.78 147.437 L2140.78 162.229 L2136.52 162.229 L2136.52 158.293 Q2135.06 160.655 2132.88 161.789 Q2130.71 162.9 2127.56 162.9 Q2123.58 162.9 2121.22 160.678 Q2118.88 158.432 2118.88 154.682 Q2118.88 150.307 2121.8 148.085 Q2124.74 145.863 2130.55 145.863 L2136.52 145.863 L2136.52 145.446 Q2136.52 142.507 2134.57 140.909 Q2132.65 139.289 2129.16 139.289 Q2126.94 139.289 2124.83 139.821 Q2122.72 140.354 2120.78 141.419 L2120.78 137.483 Q2123.12 136.581 2125.32 136.141 Q2127.51 135.678 2129.6 135.678 Q2135.22 135.678 2138 138.594 Q2140.78 141.511 2140.78 147.437 Z" fill="#000000" fill-rule="nonzero" fill-opacity="1" /><path clip-path="url(#clip820)" d="M2149.55 136.303 L2153.81 136.303 L2153.81 162.229 L2149.55 162.229 L2149.55 136.303 M2149.55 126.21 L2153.81 126.21 L2153.81 131.604 L2149.55 131.604 L2149.55 126.21 Z" fill="#000000" fill-rule="nonzero" fill-opacity="1" /><path clip-path="url(#clip820)" d="M2184.27 146.581 L2184.27 162.229 L2180.01 162.229 L2180.01 146.719 Q2180.01 143.039 2178.58 141.21 Q2177.14 139.382 2174.27 139.382 Q2170.82 139.382 2168.83 141.581 Q2166.84 143.78 2166.84 147.576 L2166.84 162.229 L2162.56 162.229 L2162.56 136.303 L2166.84 136.303 L2166.84 140.331 Q2168.37 137.993 2170.43 136.835 Q2172.51 135.678 2175.22 135.678 Q2179.69 135.678 2181.98 138.456 Q2184.27 141.21 2184.27 146.581 Z" fill="#000000" fill-rule="nonzero" fill-opacity="1" /><path clip-path="url(#clip820)" d="M2192.77 136.303 L2197.03 136.303 L2197.03 162.229 L2192.77 162.229 L2192.77 136.303 M2192.77 126.21 L2197.03 126.21 L2197.03 131.604 L2192.77 131.604 L2192.77 126.21 Z" fill="#000000" fill-rule="nonzero" fill-opacity="1" /><path clip-path="url(#clip820)" d="M2227.49 146.581 L2227.49 162.229 L2223.23 162.229 L2223.23 146.719 Q2223.23 143.039 2221.8 141.21 Q2220.36 139.382 2217.49 139.382 Q2214.04 139.382 2212.05 141.581 Q2210.06 143.78 2210.06 147.576 L2210.06 162.229 L2205.78 162.229 L2205.78 136.303 L2210.06 136.303 L2210.06 140.331 Q2211.59 137.993 2213.65 136.835 Q2215.73 135.678 2218.44 135.678 Q2222.91 135.678 2225.2 138.456 Q2227.49 141.21 2227.49 146.581 Z" fill="#000000" fill-rule="nonzero" fill-opacity="1" /><path clip-path="url(#clip820)" d="M2253.05 148.965 Q2253.05 144.335 2251.12 141.789 Q2249.23 139.243 2245.78 139.243 Q2242.35 139.243 2240.43 141.789 Q2238.53 144.335 2238.53 148.965 Q2238.53 153.571 2240.43 156.118 Q2242.35 158.664 2245.78 158.664 Q2249.23 158.664 2251.12 156.118 Q2253.05 153.571 2253.05 148.965 M2257.31 159.011 Q2257.31 165.631 2254.37 168.849 Q2251.43 172.09 2245.36 172.09 Q2243.12 172.09 2241.12 171.742 Q2239.13 171.418 2237.26 170.724 L2237.26 166.58 Q2239.13 167.599 2240.96 168.085 Q2242.79 168.571 2244.69 168.571 Q2248.88 168.571 2250.96 166.372 Q2253.05 164.196 2253.05 159.775 L2253.05 157.668 Q2251.73 159.96 2249.67 161.094 Q2247.61 162.229 2244.74 162.229 Q2239.97 162.229 2237.05 158.594 Q2234.13 154.96 2234.13 148.965 Q2234.13 142.946 2237.05 139.312 Q2239.97 135.678 2244.74 135.678 Q2247.61 135.678 2249.67 136.812 Q2251.73 137.946 2253.05 140.238 L2253.05 136.303 L2257.31 136.303 L2257.31 159.011 Z" fill="#000000" fill-rule="nonzero" fill-opacity="1" /><polyline clip-path="url(#clip820)" style="stroke:#e26f46; stroke-linecap:round; stroke-linejoin:round; stroke-width:4; stroke-opacity:1; fill:none" points="1907.37,196.789 2050.55,196.789 "/>
<path clip-path="url(#clip820)" d="M2074.41 179.509 L2103.65 179.509 L2103.65 183.444 L2091.38 183.444 L2091.38 214.069 L2086.68 214.069 L2086.68 183.444 L2074.41 183.444 L2074.41 179.509 Z" fill="#000000" fill-rule="nonzero" fill-opacity="1" /><path clip-path="url(#clip820)" d="M2122.1 200.041 L2122.1 202.124 L2102.51 202.124 Q2102.79 206.522 2105.15 208.837 Q2107.54 211.129 2111.77 211.129 Q2114.23 211.129 2116.52 210.527 Q2118.83 209.925 2121.1 208.721 L2121.1 212.749 Q2118.81 213.721 2116.4 214.231 Q2114 214.74 2111.52 214.74 Q2105.32 214.74 2101.68 211.129 Q2098.07 207.518 2098.07 201.36 Q2098.07 194.995 2101.5 191.268 Q2104.95 187.518 2110.78 187.518 Q2116.01 187.518 2119.04 190.897 Q2122.1 194.254 2122.1 200.041 M2117.84 198.791 Q2117.79 195.296 2115.87 193.212 Q2113.97 191.129 2110.82 191.129 Q2107.26 191.129 2105.11 193.143 Q2102.98 195.157 2102.65 198.814 L2117.84 198.791 Z" fill="#000000" fill-rule="nonzero" fill-opacity="1" /><path clip-path="url(#clip820)" d="M2145.62 188.907 L2145.62 192.934 Q2143.81 192.009 2141.87 191.546 Q2139.92 191.083 2137.84 191.083 Q2134.67 191.083 2133.07 192.055 Q2131.5 193.027 2131.5 194.971 Q2131.5 196.453 2132.63 197.309 Q2133.76 198.143 2137.19 198.907 L2138.65 199.231 Q2143.19 200.203 2145.08 201.985 Q2147.01 203.745 2147.01 206.916 Q2147.01 210.527 2144.13 212.633 Q2141.29 214.74 2136.29 214.74 Q2134.2 214.74 2131.94 214.323 Q2129.69 213.93 2127.19 213.12 L2127.19 208.721 Q2129.55 209.948 2131.84 210.573 Q2134.13 211.175 2136.38 211.175 Q2139.39 211.175 2141.01 210.157 Q2142.63 209.115 2142.63 207.24 Q2142.63 205.504 2141.45 204.578 Q2140.29 203.652 2136.33 202.796 L2134.85 202.448 Q2130.89 201.615 2129.13 199.902 Q2127.38 198.166 2127.38 195.157 Q2127.38 191.499 2129.97 189.509 Q2132.56 187.518 2137.33 187.518 Q2139.69 187.518 2141.77 187.865 Q2143.86 188.212 2145.62 188.907 Z" fill="#000000" fill-rule="nonzero" fill-opacity="1" /><path clip-path="url(#clip820)" d="M2158 180.782 L2158 188.143 L2166.77 188.143 L2166.77 191.453 L2158 191.453 L2158 205.527 Q2158 208.698 2158.86 209.601 Q2159.74 210.504 2162.4 210.504 L2166.77 210.504 L2166.77 214.069 L2162.4 214.069 Q2157.47 214.069 2155.59 212.24 Q2153.72 210.388 2153.72 205.527 L2153.72 191.453 L2150.59 191.453 L2150.59 188.143 L2153.72 188.143 L2153.72 180.782 L2158 180.782 Z" fill="#000000" fill-rule="nonzero" fill-opacity="1" /><path clip-path="url(#clip820)" d="M2172.38 188.143 L2176.63 188.143 L2176.63 214.069 L2172.38 214.069 L2172.38 188.143 M2172.38 178.05 L2176.63 178.05 L2176.63 183.444 L2172.38 183.444 L2172.38 178.05 Z" fill="#000000" fill-rule="nonzero" fill-opacity="1" /><path clip-path="url(#clip820)" d="M2207.1 198.421 L2207.1 214.069 L2202.84 214.069 L2202.84 198.559 Q2202.84 194.879 2201.4 193.05 Q2199.97 191.222 2197.1 191.222 Q2193.65 191.222 2191.66 193.421 Q2189.67 195.62 2189.67 199.416 L2189.67 214.069 L2185.38 214.069 L2185.38 188.143 L2189.67 188.143 L2189.67 192.171 Q2191.19 189.833 2193.25 188.675 Q2195.34 187.518 2198.05 187.518 Q2202.51 187.518 2204.81 190.296 Q2207.1 193.05 2207.1 198.421 Z" fill="#000000" fill-rule="nonzero" fill-opacity="1" /><path clip-path="url(#clip820)" d="M2232.65 200.805 Q2232.65 196.175 2230.73 193.629 Q2228.83 191.083 2225.38 191.083 Q2221.96 191.083 2220.04 193.629 Q2218.14 196.175 2218.14 200.805 Q2218.14 205.411 2220.04 207.958 Q2221.96 210.504 2225.38 210.504 Q2228.83 210.504 2230.73 207.958 Q2232.65 205.411 2232.65 200.805 M2236.91 210.851 Q2236.91 217.471 2233.97 220.689 Q2231.03 223.93 2224.97 223.93 Q2222.72 223.93 2220.73 223.582 Q2218.74 223.258 2216.87 222.564 L2216.87 218.42 Q2218.74 219.439 2220.57 219.925 Q2222.4 220.411 2224.3 220.411 Q2228.49 220.411 2230.57 218.212 Q2232.65 216.036 2232.65 211.615 L2232.65 209.508 Q2231.33 211.8 2229.27 212.934 Q2227.21 214.069 2224.34 214.069 Q2219.57 214.069 2216.66 210.434 Q2213.74 206.8 2213.74 200.805 Q2213.74 194.786 2216.66 191.152 Q2219.57 187.518 2224.34 187.518 Q2227.21 187.518 2229.27 188.652 Q2231.33 189.786 2232.65 192.078 L2232.65 188.143 L2236.91 188.143 L2236.91 210.851 Z" fill="#000000" fill-rule="nonzero" fill-opacity="1" /></svg>
