<?xml version="1.0" encoding="utf-8"?>
<svg xmlns="http://www.w3.org/2000/svg" xmlns:xlink="http://www.w3.org/1999/xlink" width="600" height="400" viewBox="0 0 2400 1600">
<defs>
  <clipPath id="clip860">
    <rect x="0" y="0" width="2400" height="1600"/>
  </clipPath>
</defs>
<path clip-path="url(#clip860)" d="M0 1600 L2400 1600 L2400 0 L0 0  Z" fill="#ffffff" fill-rule="evenodd" fill-opacity="1"/>
<defs>
  <clipPath id="clip861">
    <rect x="480" y="0" width="1681" height="1600"/>
  </clipPath>
</defs>
<path clip-path="url(#clip860)" d="M265.445 1423.18 L2352.76 1423.18 L2352.76 47.2441 L265.445 47.2441  Z" fill="#ffffff" fill-rule="evenodd" fill-opacity="1"/>
<defs>
  <clipPath id="clip862">
    <rect x="265" y="47" width="2088" height="1377"/>
  </clipPath>
</defs>
<polyline clip-path="url(#clip862)" style="stroke:#000000; stroke-linecap:round; stroke-linejoin:round; stroke-width:2; stroke-opacity:0.1; fill:none" points="739.08,1423.18 739.08,47.2441 "/>
<polyline clip-path="url(#clip862)" style="stroke:#000000; stroke-linecap:round; stroke-linejoin:round; stroke-width:2; stroke-opacity:0.1; fill:none" points="1257.28,1423.18 1257.28,47.2441 "/>
<polyline clip-path="url(#clip862)" style="stroke:#000000; stroke-linecap:round; stroke-linejoin:round; stroke-width:2; stroke-opacity:0.1; fill:none" points="1775.48,1423.18 1775.48,47.2441 "/>
<polyline clip-path="url(#clip862)" style="stroke:#000000; stroke-linecap:round; stroke-linejoin:round; stroke-width:2; stroke-opacity:0.1; fill:none" points="2293.68,1423.18 2293.68,47.2441 "/>
<polyline clip-path="url(#clip862)" style="stroke:#000000; stroke-linecap:round; stroke-linejoin:round; stroke-width:2; stroke-opacity:0.1; fill:none" points="265.445,1218.65 2352.76,1218.65 "/>
<polyline clip-path="url(#clip862)" style="stroke:#000000; stroke-linecap:round; stroke-linejoin:round; stroke-width:2; stroke-opacity:0.1; fill:none" points="265.445,973.777 2352.76,973.777 "/>
<polyline clip-path="url(#clip862)" style="stroke:#000000; stroke-linecap:round; stroke-linejoin:round; stroke-width:2; stroke-opacity:0.1; fill:none" points="265.445,728.903 2352.76,728.903 "/>
<polyline clip-path="url(#clip862)" style="stroke:#000000; stroke-linecap:round; stroke-linejoin:round; stroke-width:2; stroke-opacity:0.1; fill:none" points="265.445,484.029 2352.76,484.029 "/>
<polyline clip-path="url(#clip862)" style="stroke:#000000; stroke-linecap:round; stroke-linejoin:round; stroke-width:2; stroke-opacity:0.1; fill:none" points="265.445,239.155 2352.76,239.155 "/>
<polyline clip-path="url(#clip860)" style="stroke:#000000; stroke-linecap:round; stroke-linejoin:round; stroke-width:4; stroke-opacity:1; fill:none" points="265.445,1423.18 2352.76,1423.18 "/>
<polyline clip-path="url(#clip860)" style="stroke:#000000; stroke-linecap:round; stroke-linejoin:round; stroke-width:4; stroke-opacity:1; fill:none" points="739.08,1423.18 739.08,1404.28 "/>
<polyline clip-path="url(#clip860)" style="stroke:#000000; stroke-linecap:round; stroke-linejoin:round; stroke-width:4; stroke-opacity:1; fill:none" points="1257.28,1423.18 1257.28,1404.28 "/>
<polyline clip-path="url(#clip860)" style="stroke:#000000; stroke-linecap:round; stroke-linejoin:round; stroke-width:4; stroke-opacity:1; fill:none" points="1775.48,1423.18 1775.48,1404.28 "/>
<polyline clip-path="url(#clip860)" style="stroke:#000000; stroke-linecap:round; stroke-linejoin:round; stroke-width:4; stroke-opacity:1; fill:none" points="2293.68,1423.18 2293.68,1404.28 "/>
<path clip-path="url(#clip860)" d="M729.358 1451.02 L747.714 1451.02 L747.714 1454.96 L733.64 1454.96 L733.64 1463.43 Q734.659 1463.08 735.677 1462.92 Q736.696 1462.73 737.714 1462.73 Q743.501 1462.73 746.881 1465.9 Q750.26 1469.08 750.26 1474.49 Q750.26 1480.07 746.788 1483.17 Q743.316 1486.25 736.997 1486.25 Q734.821 1486.25 732.552 1485.88 Q730.307 1485.51 727.899 1484.77 L727.899 1480.07 Q729.983 1481.2 732.205 1481.76 Q734.427 1482.32 736.904 1482.32 Q740.909 1482.32 743.247 1480.21 Q745.584 1478.1 745.584 1474.49 Q745.584 1470.88 743.247 1468.77 Q740.909 1466.67 736.904 1466.67 Q735.029 1466.67 733.154 1467.08 Q731.302 1467.5 729.358 1468.38 L729.358 1451.02 Z" fill="#000000" fill-rule="nonzero" fill-opacity="1" /><path clip-path="url(#clip860)" d="M1231.97 1481.64 L1239.61 1481.64 L1239.61 1455.28 L1231.3 1456.95 L1231.3 1452.69 L1239.56 1451.02 L1244.24 1451.02 L1244.24 1481.64 L1251.88 1481.64 L1251.88 1485.58 L1231.97 1485.58 L1231.97 1481.64 Z" fill="#000000" fill-rule="nonzero" fill-opacity="1" /><path clip-path="url(#clip860)" d="M1271.32 1454.1 Q1267.71 1454.1 1265.88 1457.66 Q1264.07 1461.2 1264.07 1468.33 Q1264.07 1475.44 1265.88 1479.01 Q1267.71 1482.55 1271.32 1482.55 Q1274.95 1482.55 1276.76 1479.01 Q1278.59 1475.44 1278.59 1468.33 Q1278.59 1461.2 1276.76 1457.66 Q1274.95 1454.1 1271.32 1454.1 M1271.32 1450.39 Q1277.13 1450.39 1280.19 1455 Q1283.26 1459.58 1283.26 1468.33 Q1283.26 1477.06 1280.19 1481.67 Q1277.13 1486.25 1271.32 1486.25 Q1265.51 1486.25 1262.43 1481.67 Q1259.38 1477.06 1259.38 1468.33 Q1259.38 1459.58 1262.43 1455 Q1265.51 1450.39 1271.32 1450.39 Z" fill="#000000" fill-rule="nonzero" fill-opacity="1" /><path clip-path="url(#clip860)" d="M1750.67 1481.64 L1758.3 1481.64 L1758.3 1455.28 L1749.99 1456.95 L1749.99 1452.69 L1758.26 1451.02 L1762.93 1451.02 L1762.93 1481.64 L1770.57 1481.64 L1770.57 1485.58 L1750.67 1485.58 L1750.67 1481.64 Z" fill="#000000" fill-rule="nonzero" fill-opacity="1" /><path clip-path="url(#clip860)" d="M1780.06 1451.02 L1798.42 1451.02 L1798.42 1454.96 L1784.35 1454.96 L1784.35 1463.43 Q1785.36 1463.08 1786.38 1462.92 Q1787.4 1462.73 1788.42 1462.73 Q1794.21 1462.73 1797.59 1465.9 Q1800.97 1469.08 1800.97 1474.49 Q1800.97 1480.07 1797.49 1483.17 Q1794.02 1486.25 1787.7 1486.25 Q1785.53 1486.25 1783.26 1485.88 Q1781.01 1485.51 1778.61 1484.77 L1778.61 1480.07 Q1780.69 1481.2 1782.91 1481.76 Q1785.13 1482.32 1787.61 1482.32 Q1791.61 1482.32 1793.95 1480.21 Q1796.29 1478.1 1796.29 1474.49 Q1796.29 1470.88 1793.95 1468.77 Q1791.61 1466.67 1787.61 1466.67 Q1785.74 1466.67 1783.86 1467.08 Q1782.01 1467.5 1780.06 1468.38 L1780.06 1451.02 Z" fill="#000000" fill-rule="nonzero" fill-opacity="1" /><path clip-path="url(#clip860)" d="M2272.45 1481.64 L2288.77 1481.64 L2288.77 1485.58 L2266.83 1485.58 L2266.83 1481.64 Q2269.49 1478.89 2274.07 1474.26 Q2278.68 1469.61 2279.86 1468.27 Q2282.11 1465.74 2282.99 1464.01 Q2283.89 1462.25 2283.89 1460.56 Q2283.89 1457.8 2281.95 1456.07 Q2280.02 1454.33 2276.92 1454.33 Q2274.72 1454.33 2272.27 1455.09 Q2269.84 1455.86 2267.06 1457.41 L2267.06 1452.69 Q2269.88 1451.55 2272.34 1450.97 Q2274.79 1450.39 2276.83 1450.39 Q2282.2 1450.39 2285.39 1453.08 Q2288.59 1455.77 2288.59 1460.26 Q2288.59 1462.39 2287.78 1464.31 Q2286.99 1466.2 2284.88 1468.8 Q2284.31 1469.47 2281.2 1472.69 Q2278.1 1475.88 2272.45 1481.64 Z" fill="#000000" fill-rule="nonzero" fill-opacity="1" /><path clip-path="url(#clip860)" d="M2308.59 1454.1 Q2304.98 1454.1 2303.15 1457.66 Q2301.34 1461.2 2301.34 1468.33 Q2301.34 1475.44 2303.15 1479.01 Q2304.98 1482.55 2308.59 1482.55 Q2312.22 1482.55 2314.03 1479.01 Q2315.86 1475.44 2315.86 1468.33 Q2315.86 1461.2 2314.03 1457.66 Q2312.22 1454.1 2308.59 1454.1 M2308.59 1450.39 Q2314.4 1450.39 2317.45 1455 Q2320.53 1459.58 2320.53 1468.33 Q2320.53 1477.06 2317.45 1481.67 Q2314.4 1486.25 2308.59 1486.25 Q2302.78 1486.25 2299.7 1481.67 Q2296.64 1477.06 2296.64 1468.33 Q2296.64 1459.58 2299.7 1455 Q2302.78 1450.39 2308.59 1450.39 Z" fill="#000000" fill-rule="nonzero" fill-opacity="1" /><path clip-path="url(#clip860)" d="M1158.66 1520.52 L1165.09 1520.52 L1165.09 1568.04 L1158.66 1568.04 L1158.66 1520.52 Z" fill="#000000" fill-rule="nonzero" fill-opacity="1" /><path clip-path="url(#clip860)" d="M1183.43 1522.27 L1183.43 1532.4 L1195.49 1532.4 L1195.49 1536.95 L1183.43 1536.95 L1183.43 1556.3 Q1183.43 1560.66 1184.6 1561.9 Q1185.81 1563.14 1189.47 1563.14 L1195.49 1563.14 L1195.49 1568.04 L1189.47 1568.04 Q1182.69 1568.04 1180.12 1565.53 Q1177.54 1562.98 1177.54 1556.3 L1177.54 1536.95 L1173.24 1536.95 L1173.24 1532.4 L1177.54 1532.4 L1177.54 1522.27 L1183.43 1522.27 Z" fill="#000000" fill-rule="nonzero" fill-opacity="1" /><path clip-path="url(#clip860)" d="M1233.68 1548.76 L1233.68 1551.62 L1206.76 1551.62 Q1207.14 1557.67 1210.38 1560.85 Q1213.66 1564 1219.49 1564 Q1222.86 1564 1226.01 1563.17 Q1229.19 1562.35 1232.31 1560.69 L1232.31 1566.23 Q1229.16 1567.57 1225.85 1568.27 Q1222.54 1568.97 1219.14 1568.97 Q1210.61 1568.97 1205.61 1564 Q1200.64 1559.04 1200.64 1550.57 Q1200.64 1541.82 1205.36 1536.69 Q1210.1 1531.54 1218.12 1531.54 Q1225.31 1531.54 1229.48 1536.18 Q1233.68 1540.8 1233.68 1548.76 M1227.83 1547.04 Q1227.76 1542.23 1225.12 1539.37 Q1222.51 1536.5 1218.18 1536.5 Q1213.28 1536.5 1210.32 1539.27 Q1207.39 1542.04 1206.95 1547.07 L1227.83 1547.04 Z" fill="#000000" fill-rule="nonzero" fill-opacity="1" /><path clip-path="url(#clip860)" d="M1263.95 1537.87 Q1262.96 1537.3 1261.79 1537.04 Q1260.64 1536.76 1259.24 1536.76 Q1254.28 1536.76 1251.6 1540 Q1248.96 1543.22 1248.96 1549.27 L1248.96 1568.04 L1243.07 1568.04 L1243.07 1532.4 L1248.96 1532.4 L1248.96 1537.93 Q1250.81 1534.69 1253.77 1533.13 Q1256.73 1531.54 1260.96 1531.54 Q1261.56 1531.54 1262.3 1531.63 Q1263.03 1531.7 1263.92 1531.85 L1263.95 1537.87 Z" fill="#000000" fill-rule="nonzero" fill-opacity="1" /><path clip-path="url(#clip860)" d="M1286.3 1550.12 Q1279.2 1550.12 1276.46 1551.75 Q1273.72 1553.37 1273.72 1557.29 Q1273.72 1560.4 1275.76 1562.25 Q1277.83 1564.07 1281.36 1564.07 Q1286.23 1564.07 1289.16 1560.63 Q1292.12 1557.16 1292.12 1551.43 L1292.12 1550.12 L1286.3 1550.12 M1297.98 1547.71 L1297.98 1568.04 L1292.12 1568.04 L1292.12 1562.63 Q1290.11 1565.88 1287.12 1567.44 Q1284.13 1568.97 1279.8 1568.97 Q1274.33 1568.97 1271.08 1565.91 Q1267.87 1562.82 1267.87 1557.67 Q1267.87 1551.65 1271.88 1548.6 Q1275.92 1545.54 1283.91 1545.54 L1292.12 1545.54 L1292.12 1544.97 Q1292.12 1540.93 1289.45 1538.73 Q1286.8 1536.5 1282 1536.5 Q1278.94 1536.5 1276.05 1537.23 Q1273.15 1537.97 1270.48 1539.43 L1270.48 1534.02 Q1273.69 1532.78 1276.71 1532.17 Q1279.74 1531.54 1282.6 1531.54 Q1290.34 1531.54 1294.16 1535.55 Q1297.98 1539.56 1297.98 1547.71 Z" fill="#000000" fill-rule="nonzero" fill-opacity="1" /><path clip-path="url(#clip860)" d="M1315.83 1522.27 L1315.83 1532.4 L1327.9 1532.4 L1327.9 1536.95 L1315.83 1536.95 L1315.83 1556.3 Q1315.83 1560.66 1317.01 1561.9 Q1318.22 1563.14 1321.88 1563.14 L1327.9 1563.14 L1327.9 1568.04 L1321.88 1568.04 Q1315.1 1568.04 1312.52 1565.53 Q1309.94 1562.98 1309.94 1556.3 L1309.94 1536.95 L1305.65 1536.95 L1305.65 1532.4 L1309.94 1532.4 L1309.94 1522.27 L1315.83 1522.27 Z" fill="#000000" fill-rule="nonzero" fill-opacity="1" /><path clip-path="url(#clip860)" d="M1335.6 1532.4 L1341.45 1532.4 L1341.45 1568.04 L1335.6 1568.04 L1335.6 1532.4 M1335.6 1518.52 L1341.45 1518.52 L1341.45 1525.93 L1335.6 1525.93 L1335.6 1518.52 Z" fill="#000000" fill-rule="nonzero" fill-opacity="1" /><path clip-path="url(#clip860)" d="M1367.52 1536.5 Q1362.81 1536.5 1360.07 1540.19 Q1357.34 1543.85 1357.34 1550.25 Q1357.34 1556.65 1360.04 1560.34 Q1362.78 1564 1367.52 1564 Q1372.2 1564 1374.94 1560.31 Q1377.67 1556.62 1377.67 1550.25 Q1377.67 1543.92 1374.94 1540.23 Q1372.2 1536.5 1367.52 1536.5 M1367.52 1531.54 Q1375.16 1531.54 1379.52 1536.5 Q1383.88 1541.47 1383.88 1550.25 Q1383.88 1559 1379.52 1564 Q1375.16 1568.97 1367.52 1568.97 Q1359.85 1568.97 1355.49 1564 Q1351.16 1559 1351.16 1550.25 Q1351.16 1541.47 1355.49 1536.5 Q1359.85 1531.54 1367.52 1531.54 Z" fill="#000000" fill-rule="nonzero" fill-opacity="1" /><path clip-path="url(#clip860)" d="M1423.22 1546.53 L1423.22 1568.04 L1417.37 1568.04 L1417.37 1546.72 Q1417.37 1541.66 1415.39 1539.14 Q1413.42 1536.63 1409.47 1536.63 Q1404.73 1536.63 1401.99 1539.65 Q1399.25 1542.68 1399.25 1547.9 L1399.25 1568.04 L1393.37 1568.04 L1393.37 1532.4 L1399.25 1532.4 L1399.25 1537.93 Q1401.36 1534.72 1404.19 1533.13 Q1407.05 1531.54 1410.78 1531.54 Q1416.92 1531.54 1420.07 1535.36 Q1423.22 1539.14 1423.22 1546.53 Z" fill="#000000" fill-rule="nonzero" fill-opacity="1" /><path clip-path="url(#clip860)" d="M1457.63 1533.45 L1457.63 1538.98 Q1455.15 1537.71 1452.47 1537.07 Q1449.8 1536.44 1446.93 1536.44 Q1442.57 1536.44 1440.38 1537.77 Q1438.21 1539.11 1438.21 1541.79 Q1438.21 1543.82 1439.77 1545 Q1441.33 1546.15 1446.04 1547.2 L1448.05 1547.64 Q1454.29 1548.98 1456.9 1551.43 Q1459.54 1553.85 1459.54 1558.21 Q1459.54 1563.17 1455.59 1566.07 Q1451.68 1568.97 1444.8 1568.97 Q1441.94 1568.97 1438.82 1568.39 Q1435.73 1567.85 1432.29 1566.74 L1432.29 1560.69 Q1435.54 1562.38 1438.69 1563.24 Q1441.84 1564.07 1444.93 1564.07 Q1449.07 1564.07 1451.29 1562.66 Q1453.52 1561.23 1453.52 1558.65 Q1453.52 1556.27 1451.9 1554.99 Q1450.31 1553.72 1444.86 1552.54 L1442.83 1552.07 Q1437.39 1550.92 1434.97 1548.56 Q1432.55 1546.18 1432.55 1542.04 Q1432.55 1537.01 1436.11 1534.27 Q1439.68 1531.54 1446.23 1531.54 Q1449.48 1531.54 1452.34 1532.01 Q1455.21 1532.49 1457.63 1533.45 Z" fill="#000000" fill-rule="nonzero" fill-opacity="1" /><polyline clip-path="url(#clip860)" style="stroke:#000000; stroke-linecap:round; stroke-linejoin:round; stroke-width:4; stroke-opacity:1; fill:none" points="265.445,1423.18 265.445,47.2441 "/>
<polyline clip-path="url(#clip860)" style="stroke:#000000; stroke-linecap:round; stroke-linejoin:round; stroke-width:4; stroke-opacity:1; fill:none" points="265.445,1218.65 284.342,1218.65 "/>
<polyline clip-path="url(#clip860)" style="stroke:#000000; stroke-linecap:round; stroke-linejoin:round; stroke-width:4; stroke-opacity:1; fill:none" points="265.445,973.777 284.342,973.777 "/>
<polyline clip-path="url(#clip860)" style="stroke:#000000; stroke-linecap:round; stroke-linejoin:round; stroke-width:4; stroke-opacity:1; fill:none" points="265.445,728.903 284.342,728.903 "/>
<polyline clip-path="url(#clip860)" style="stroke:#000000; stroke-linecap:round; stroke-linejoin:round; stroke-width:4; stroke-opacity:1; fill:none" points="265.445,484.029 284.342,484.029 "/>
<polyline clip-path="url(#clip860)" style="stroke:#000000; stroke-linecap:round; stroke-linejoin:round; stroke-width:4; stroke-opacity:1; fill:none" points="265.445,239.155 284.342,239.155 "/>
<path clip-path="url(#clip860)" d="M131.181 1217.3 Q134.538 1218.01 136.413 1220.28 Q138.311 1222.55 138.311 1225.88 Q138.311 1231 134.792 1233.8 Q131.274 1236.6 124.793 1236.6 Q122.617 1236.6 120.302 1236.16 Q118.01 1235.75 115.556 1234.89 L115.556 1230.38 Q117.501 1231.51 119.816 1232.09 Q122.13 1232.67 124.654 1232.67 Q129.052 1232.67 131.343 1230.93 Q133.658 1229.19 133.658 1225.88 Q133.658 1222.83 131.505 1221.12 Q129.376 1219.38 125.556 1219.38 L121.529 1219.38 L121.529 1215.54 L125.742 1215.54 Q129.191 1215.54 131.019 1214.17 Q132.848 1212.78 132.848 1210.19 Q132.848 1207.53 130.95 1206.12 Q129.075 1204.68 125.556 1204.68 Q123.635 1204.68 121.436 1205.1 Q119.237 1205.51 116.598 1206.39 L116.598 1202.23 Q119.26 1201.49 121.575 1201.12 Q123.913 1200.75 125.973 1200.75 Q131.297 1200.75 134.399 1203.18 Q137.501 1205.58 137.501 1209.7 Q137.501 1212.57 135.857 1214.57 Q134.214 1216.53 131.181 1217.3 Z" fill="#000000" fill-rule="nonzero" fill-opacity="1" /><path clip-path="url(#clip860)" d="M151.204 1232 L167.524 1232 L167.524 1235.93 L145.579 1235.93 L145.579 1232 Q148.241 1229.24 152.825 1224.61 Q157.431 1219.96 158.612 1218.62 Q160.857 1216.09 161.737 1214.36 Q162.64 1212.6 162.64 1210.91 Q162.64 1208.15 160.695 1206.42 Q158.774 1204.68 155.672 1204.68 Q153.473 1204.68 151.019 1205.44 Q148.589 1206.21 145.811 1207.76 L145.811 1203.04 Q148.635 1201.9 151.089 1201.32 Q153.542 1200.75 155.579 1200.75 Q160.95 1200.75 164.144 1203.43 Q167.339 1206.12 167.339 1210.61 Q167.339 1212.74 166.528 1214.66 Q165.741 1216.56 163.635 1219.15 Q163.056 1219.82 159.954 1223.04 Q156.853 1226.23 151.204 1232 Z" fill="#000000" fill-rule="nonzero" fill-opacity="1" /><path clip-path="url(#clip860)" d="M187.338 1204.45 Q183.727 1204.45 181.899 1208.01 Q180.093 1211.56 180.093 1218.69 Q180.093 1225.79 181.899 1229.36 Q183.727 1232.9 187.338 1232.9 Q190.973 1232.9 192.778 1229.36 Q194.607 1225.79 194.607 1218.69 Q194.607 1211.56 192.778 1208.01 Q190.973 1204.45 187.338 1204.45 M187.338 1200.75 Q193.149 1200.75 196.204 1205.35 Q199.283 1209.94 199.283 1218.69 Q199.283 1227.41 196.204 1232.02 Q193.149 1236.6 187.338 1236.6 Q181.528 1236.6 178.45 1232.02 Q175.394 1227.41 175.394 1218.69 Q175.394 1209.94 178.45 1205.35 Q181.528 1200.75 187.338 1200.75 Z" fill="#000000" fill-rule="nonzero" fill-opacity="1" /><path clip-path="url(#clip860)" d="M217.5 1204.45 Q213.889 1204.45 212.061 1208.01 Q210.255 1211.56 210.255 1218.69 Q210.255 1225.79 212.061 1229.36 Q213.889 1232.9 217.5 1232.9 Q221.135 1232.9 222.94 1229.36 Q224.769 1225.79 224.769 1218.69 Q224.769 1211.56 222.94 1208.01 Q221.135 1204.45 217.5 1204.45 M217.5 1200.75 Q223.31 1200.75 226.366 1205.35 Q229.445 1209.94 229.445 1218.69 Q229.445 1227.41 226.366 1232.02 Q223.31 1236.6 217.5 1236.6 Q211.69 1236.6 208.612 1232.02 Q205.556 1227.41 205.556 1218.69 Q205.556 1209.94 208.612 1205.35 Q211.69 1200.75 217.5 1200.75 Z" fill="#000000" fill-rule="nonzero" fill-opacity="1" /><path clip-path="url(#clip860)" d="M131.181 972.423 Q134.538 973.14 136.413 975.409 Q138.311 977.677 138.311 981.011 Q138.311 986.126 134.792 988.927 Q131.274 991.728 124.793 991.728 Q122.617 991.728 120.302 991.288 Q118.01 990.872 115.556 990.015 L115.556 985.501 Q117.501 986.636 119.816 987.214 Q122.13 987.793 124.654 987.793 Q129.052 987.793 131.343 986.057 Q133.658 984.321 133.658 981.011 Q133.658 977.955 131.505 976.242 Q129.376 974.506 125.556 974.506 L121.529 974.506 L121.529 970.663 L125.742 970.663 Q129.191 970.663 131.019 969.298 Q132.848 967.909 132.848 965.316 Q132.848 962.654 130.95 961.242 Q129.075 959.807 125.556 959.807 Q123.635 959.807 121.436 960.224 Q119.237 960.64 116.598 961.52 L116.598 957.353 Q119.26 956.613 121.575 956.242 Q123.913 955.872 125.973 955.872 Q131.297 955.872 134.399 958.302 Q137.501 960.71 137.501 964.83 Q137.501 967.7 135.857 969.691 Q134.214 971.659 131.181 972.423 Z" fill="#000000" fill-rule="nonzero" fill-opacity="1" /><path clip-path="url(#clip860)" d="M160.024 960.571 L148.218 979.02 L160.024 979.02 L160.024 960.571 M158.797 956.497 L164.677 956.497 L164.677 979.02 L169.607 979.02 L169.607 982.909 L164.677 982.909 L164.677 991.057 L160.024 991.057 L160.024 982.909 L144.422 982.909 L144.422 978.395 L158.797 956.497 Z" fill="#000000" fill-rule="nonzero" fill-opacity="1" /><path clip-path="url(#clip860)" d="M187.338 959.575 Q183.727 959.575 181.899 963.14 Q180.093 966.682 180.093 973.811 Q180.093 980.918 181.899 984.483 Q183.727 988.024 187.338 988.024 Q190.973 988.024 192.778 984.483 Q194.607 980.918 194.607 973.811 Q194.607 966.682 192.778 963.14 Q190.973 959.575 187.338 959.575 M187.338 955.872 Q193.149 955.872 196.204 960.478 Q199.283 965.062 199.283 973.811 Q199.283 982.538 196.204 987.145 Q193.149 991.728 187.338 991.728 Q181.528 991.728 178.45 987.145 Q175.394 982.538 175.394 973.811 Q175.394 965.062 178.45 960.478 Q181.528 955.872 187.338 955.872 Z" fill="#000000" fill-rule="nonzero" fill-opacity="1" /><path clip-path="url(#clip860)" d="M217.5 959.575 Q213.889 959.575 212.061 963.14 Q210.255 966.682 210.255 973.811 Q210.255 980.918 212.061 984.483 Q213.889 988.024 217.5 988.024 Q221.135 988.024 222.94 984.483 Q224.769 980.918 224.769 973.811 Q224.769 966.682 222.94 963.14 Q221.135 959.575 217.5 959.575 M217.5 955.872 Q223.31 955.872 226.366 960.478 Q229.445 965.062 229.445 973.811 Q229.445 982.538 226.366 987.145 Q223.31 991.728 217.5 991.728 Q211.69 991.728 208.612 987.145 Q205.556 982.538 205.556 973.811 Q205.556 965.062 208.612 960.478 Q211.69 955.872 217.5 955.872 Z" fill="#000000" fill-rule="nonzero" fill-opacity="1" /><path clip-path="url(#clip860)" d="M131.181 727.549 Q134.538 728.266 136.413 730.535 Q138.311 732.803 138.311 736.137 Q138.311 741.252 134.792 744.053 Q131.274 746.854 124.793 746.854 Q122.617 746.854 120.302 746.414 Q118.01 745.998 115.556 745.141 L115.556 740.627 Q117.501 741.762 119.816 742.34 Q122.13 742.919 124.654 742.919 Q129.052 742.919 131.343 741.183 Q133.658 739.447 133.658 736.137 Q133.658 733.081 131.505 731.368 Q129.376 729.632 125.556 729.632 L121.529 729.632 L121.529 725.789 L125.742 725.789 Q129.191 725.789 131.019 724.424 Q132.848 723.035 132.848 720.442 Q132.848 717.78 130.95 716.368 Q129.075 714.933 125.556 714.933 Q123.635 714.933 121.436 715.35 Q119.237 715.766 116.598 716.646 L116.598 712.479 Q119.26 711.739 121.575 711.368 Q123.913 710.998 125.973 710.998 Q131.297 710.998 134.399 713.428 Q137.501 715.836 137.501 719.956 Q137.501 722.826 135.857 724.817 Q134.214 726.785 131.181 727.549 Z" fill="#000000" fill-rule="nonzero" fill-opacity="1" /><path clip-path="url(#clip860)" d="M157.755 727.039 Q154.607 727.039 152.755 729.192 Q150.927 731.345 150.927 735.095 Q150.927 738.822 152.755 740.998 Q154.607 743.15 157.755 743.15 Q160.903 743.15 162.732 740.998 Q164.584 738.822 164.584 735.095 Q164.584 731.345 162.732 729.192 Q160.903 727.039 157.755 727.039 M167.038 712.387 L167.038 716.646 Q165.278 715.813 163.473 715.373 Q161.69 714.933 159.931 714.933 Q155.302 714.933 152.848 718.058 Q150.417 721.183 150.07 727.502 Q151.436 725.488 153.496 724.424 Q155.556 723.336 158.033 723.336 Q163.241 723.336 166.251 726.507 Q169.283 729.655 169.283 735.095 Q169.283 740.419 166.135 743.637 Q162.987 746.854 157.755 746.854 Q151.76 746.854 148.589 742.271 Q145.417 737.664 145.417 728.938 Q145.417 720.743 149.306 715.882 Q153.195 710.998 159.746 710.998 Q161.505 710.998 163.288 711.345 Q165.093 711.692 167.038 712.387 Z" fill="#000000" fill-rule="nonzero" fill-opacity="1" /><path clip-path="url(#clip860)" d="M187.338 714.702 Q183.727 714.702 181.899 718.266 Q180.093 721.808 180.093 728.938 Q180.093 736.044 181.899 739.609 Q183.727 743.15 187.338 743.15 Q190.973 743.15 192.778 739.609 Q194.607 736.044 194.607 728.938 Q194.607 721.808 192.778 718.266 Q190.973 714.702 187.338 714.702 M187.338 710.998 Q193.149 710.998 196.204 715.604 Q199.283 720.188 199.283 728.938 Q199.283 737.664 196.204 742.271 Q193.149 746.854 187.338 746.854 Q181.528 746.854 178.45 742.271 Q175.394 737.664 175.394 728.938 Q175.394 720.188 178.45 715.604 Q181.528 710.998 187.338 710.998 Z" fill="#000000" fill-rule="nonzero" fill-opacity="1" /><path clip-path="url(#clip860)" d="M217.5 714.702 Q213.889 714.702 212.061 718.266 Q210.255 721.808 210.255 728.938 Q210.255 736.044 212.061 739.609 Q213.889 743.15 217.5 743.15 Q221.135 743.15 222.94 739.609 Q224.769 736.044 224.769 728.938 Q224.769 721.808 222.94 718.266 Q221.135 714.702 217.5 714.702 M217.5 710.998 Q223.31 710.998 226.366 715.604 Q229.445 720.188 229.445 728.938 Q229.445 737.664 226.366 742.271 Q223.31 746.854 217.5 746.854 Q211.69 746.854 208.612 742.271 Q205.556 737.664 205.556 728.938 Q205.556 720.188 208.612 715.604 Q211.69 710.998 217.5 710.998 Z" fill="#000000" fill-rule="nonzero" fill-opacity="1" /><path clip-path="url(#clip860)" d="M131.181 482.675 Q134.538 483.392 136.413 485.661 Q138.311 487.929 138.311 491.263 Q138.311 496.378 134.792 499.179 Q131.274 501.98 124.793 501.98 Q122.617 501.98 120.302 501.54 Q118.01 501.124 115.556 500.267 L115.556 495.753 Q117.501 496.888 119.816 497.466 Q122.13 498.045 124.654 498.045 Q129.052 498.045 131.343 496.309 Q133.658 494.573 133.658 491.263 Q133.658 488.207 131.505 486.494 Q129.376 484.758 125.556 484.758 L121.529 484.758 L121.529 480.915 L125.742 480.915 Q129.191 480.915 131.019 479.55 Q132.848 478.161 132.848 475.568 Q132.848 472.906 130.95 471.494 Q129.075 470.059 125.556 470.059 Q123.635 470.059 121.436 470.476 Q119.237 470.892 116.598 471.772 L116.598 467.605 Q119.26 466.865 121.575 466.494 Q123.913 466.124 125.973 466.124 Q131.297 466.124 134.399 468.554 Q137.501 470.962 137.501 475.082 Q137.501 477.953 135.857 479.943 Q134.214 481.911 131.181 482.675 Z" fill="#000000" fill-rule="nonzero" fill-opacity="1" /><path clip-path="url(#clip860)" d="M157.177 484.897 Q153.843 484.897 151.922 486.679 Q150.024 488.462 150.024 491.587 Q150.024 494.712 151.922 496.494 Q153.843 498.276 157.177 498.276 Q160.51 498.276 162.431 496.494 Q164.352 494.689 164.352 491.587 Q164.352 488.462 162.431 486.679 Q160.533 484.897 157.177 484.897 M152.501 482.906 Q149.491 482.165 147.802 480.105 Q146.135 478.045 146.135 475.082 Q146.135 470.939 149.075 468.531 Q152.038 466.124 157.177 466.124 Q162.339 466.124 165.278 468.531 Q168.218 470.939 168.218 475.082 Q168.218 478.045 166.528 480.105 Q164.862 482.165 161.876 482.906 Q165.255 483.693 167.13 485.985 Q169.028 488.277 169.028 491.587 Q169.028 496.61 165.95 499.295 Q162.894 501.98 157.177 501.98 Q151.459 501.98 148.38 499.295 Q145.325 496.61 145.325 491.587 Q145.325 488.277 147.223 485.985 Q149.121 483.693 152.501 482.906 M150.788 475.522 Q150.788 478.207 152.454 479.712 Q154.144 481.216 157.177 481.216 Q160.186 481.216 161.876 479.712 Q163.589 478.207 163.589 475.522 Q163.589 472.837 161.876 471.332 Q160.186 469.828 157.177 469.828 Q154.144 469.828 152.454 471.332 Q150.788 472.837 150.788 475.522 Z" fill="#000000" fill-rule="nonzero" fill-opacity="1" /><path clip-path="url(#clip860)" d="M187.338 469.828 Q183.727 469.828 181.899 473.392 Q180.093 476.934 180.093 484.064 Q180.093 491.17 181.899 494.735 Q183.727 498.276 187.338 498.276 Q190.973 498.276 192.778 494.735 Q194.607 491.17 194.607 484.064 Q194.607 476.934 192.778 473.392 Q190.973 469.828 187.338 469.828 M187.338 466.124 Q193.149 466.124 196.204 470.73 Q199.283 475.314 199.283 484.064 Q199.283 492.79 196.204 497.397 Q193.149 501.98 187.338 501.98 Q181.528 501.98 178.45 497.397 Q175.394 492.79 175.394 484.064 Q175.394 475.314 178.45 470.73 Q181.528 466.124 187.338 466.124 Z" fill="#000000" fill-rule="nonzero" fill-opacity="1" /><path clip-path="url(#clip860)" d="M217.5 469.828 Q213.889 469.828 212.061 473.392 Q210.255 476.934 210.255 484.064 Q210.255 491.17 212.061 494.735 Q213.889 498.276 217.5 498.276 Q221.135 498.276 222.94 494.735 Q224.769 491.17 224.769 484.064 Q224.769 476.934 222.94 473.392 Q221.135 469.828 217.5 469.828 M217.5 466.124 Q223.31 466.124 226.366 470.73 Q229.445 475.314 229.445 484.064 Q229.445 492.79 226.366 497.397 Q223.31 501.98 217.5 501.98 Q211.69 501.98 208.612 497.397 Q205.556 492.79 205.556 484.064 Q205.556 475.314 208.612 470.73 Q211.69 466.124 217.5 466.124 Z" fill="#000000" fill-rule="nonzero" fill-opacity="1" /><path clip-path="url(#clip860)" d="M129.862 225.949 L118.056 244.398 L129.862 244.398 L129.862 225.949 M128.635 221.875 L134.515 221.875 L134.515 244.398 L139.445 244.398 L139.445 248.287 L134.515 248.287 L134.515 256.435 L129.862 256.435 L129.862 248.287 L114.26 248.287 L114.26 243.773 L128.635 221.875 Z" fill="#000000" fill-rule="nonzero" fill-opacity="1" /><path clip-path="url(#clip860)" d="M157.177 224.954 Q153.566 224.954 151.737 228.518 Q149.931 232.06 149.931 239.19 Q149.931 246.296 151.737 249.861 Q153.566 253.403 157.177 253.403 Q160.811 253.403 162.616 249.861 Q164.445 246.296 164.445 239.19 Q164.445 232.06 162.616 228.518 Q160.811 224.954 157.177 224.954 M157.177 221.25 Q162.987 221.25 166.042 225.856 Q169.121 230.44 169.121 239.19 Q169.121 247.916 166.042 252.523 Q162.987 257.106 157.177 257.106 Q151.366 257.106 148.288 252.523 Q145.232 247.916 145.232 239.19 Q145.232 230.44 148.288 225.856 Q151.366 221.25 157.177 221.25 Z" fill="#000000" fill-rule="nonzero" fill-opacity="1" /><path clip-path="url(#clip860)" d="M187.338 224.954 Q183.727 224.954 181.899 228.518 Q180.093 232.06 180.093 239.19 Q180.093 246.296 181.899 249.861 Q183.727 253.403 187.338 253.403 Q190.973 253.403 192.778 249.861 Q194.607 246.296 194.607 239.19 Q194.607 232.06 192.778 228.518 Q190.973 224.954 187.338 224.954 M187.338 221.25 Q193.149 221.25 196.204 225.856 Q199.283 230.44 199.283 239.19 Q199.283 247.916 196.204 252.523 Q193.149 257.106 187.338 257.106 Q181.528 257.106 178.45 252.523 Q175.394 247.916 175.394 239.19 Q175.394 230.44 178.45 225.856 Q181.528 221.25 187.338 221.25 Z" fill="#000000" fill-rule="nonzero" fill-opacity="1" /><path clip-path="url(#clip860)" d="M217.5 224.954 Q213.889 224.954 212.061 228.518 Q210.255 232.06 210.255 239.19 Q210.255 246.296 212.061 249.861 Q213.889 253.403 217.5 253.403 Q221.135 253.403 222.94 249.861 Q224.769 246.296 224.769 239.19 Q224.769 232.06 222.94 228.518 Q221.135 224.954 217.5 224.954 M217.5 221.25 Q223.31 221.25 226.366 225.856 Q229.445 230.44 229.445 239.19 Q229.445 247.916 226.366 252.523 Q223.31 257.106 217.5 257.106 Q211.69 257.106 208.612 252.523 Q205.556 247.916 205.556 239.19 Q205.556 230.44 208.612 225.856 Q211.69 221.25 217.5 221.25 Z" fill="#000000" fill-rule="nonzero" fill-opacity="1" /><path clip-path="url(#clip860)" d="M16.4842 801.909 L16.4842 795.479 L58.5933 795.479 L58.5933 772.34 L64.0042 772.34 L64.0042 801.909 L16.4842 801.909 Z" fill="#000000" fill-rule="nonzero" fill-opacity="1" /><path clip-path="url(#clip860)" d="M32.4621 753.179 Q32.4621 757.89 36.1542 760.627 Q39.8145 763.364 46.212 763.364 Q52.6095 763.364 56.3017 760.659 Q59.9619 757.922 59.9619 753.179 Q59.9619 748.5 56.2698 745.763 Q52.5777 743.026 46.212 743.026 Q39.8781 743.026 36.186 745.763 Q32.4621 748.5 32.4621 753.179 M27.4968 753.179 Q27.4968 745.54 32.4621 741.18 Q37.4273 736.819 46.212 736.819 Q54.9649 736.819 59.9619 741.18 Q64.9272 745.54 64.9272 753.179 Q64.9272 760.85 59.9619 765.21 Q54.9649 769.539 46.212 769.539 Q37.4273 769.539 32.4621 765.21 Q27.4968 760.85 27.4968 753.179 Z" fill="#000000" fill-rule="nonzero" fill-opacity="1" /><path clip-path="url(#clip860)" d="M29.4065 704.386 L34.9447 704.386 Q33.6716 706.869 33.035 709.542 Q32.3984 712.216 32.3984 715.08 Q32.3984 719.441 33.7352 721.637 Q35.072 723.801 37.7456 723.801 Q39.7826 723.801 40.9603 722.242 Q42.1061 720.682 43.1565 715.972 L43.6021 713.966 Q44.9389 707.728 47.3897 705.118 Q49.8086 702.476 54.1691 702.476 Q59.1344 702.476 62.0308 706.423 Q64.9272 710.338 64.9272 717.213 Q64.9272 720.078 64.3543 723.197 Q63.8132 726.284 62.6992 729.722 L56.6518 729.722 Q58.3387 726.475 59.198 723.324 Q60.0256 720.173 60.0256 717.086 Q60.0256 712.948 58.6251 710.72 Q57.1929 708.492 54.6147 708.492 Q52.2276 708.492 50.9545 710.115 Q49.6813 711.707 48.5037 717.149 L48.0262 719.186 Q46.8804 724.629 44.5251 727.048 Q42.138 729.467 38.0002 729.467 Q32.9713 729.467 30.2341 725.902 Q27.4968 722.337 27.4968 715.781 Q27.4968 712.534 27.9743 709.67 Q28.4517 706.805 29.4065 704.386 Z" fill="#000000" fill-rule="nonzero" fill-opacity="1" /><path clip-path="url(#clip860)" d="M29.4065 670.425 L34.9447 670.425 Q33.6716 672.908 33.035 675.581 Q32.3984 678.255 32.3984 681.119 Q32.3984 685.48 33.7352 687.676 Q35.072 689.84 37.7456 689.84 Q39.7826 689.84 40.9603 688.281 Q42.1061 686.721 43.1565 682.011 L43.6021 680.005 Q44.9389 673.767 47.3897 671.157 Q49.8086 668.515 54.1691 668.515 Q59.1344 668.515 62.0308 672.462 Q64.9272 676.377 64.9272 683.252 Q64.9272 686.116 64.3543 689.236 Q63.8132 692.323 62.6992 695.761 L56.6518 695.761 Q58.3387 692.514 59.198 689.363 Q60.0256 686.212 60.0256 683.125 Q60.0256 678.987 58.6251 676.759 Q57.1929 674.531 54.6147 674.531 Q52.2276 674.531 50.9545 676.154 Q49.6813 677.746 48.5037 683.188 L48.0262 685.225 Q46.8804 690.668 44.5251 693.087 Q42.138 695.506 38.0002 695.506 Q32.9713 695.506 30.2341 691.941 Q27.4968 688.376 27.4968 681.82 Q27.4968 678.573 27.9743 675.709 Q28.4517 672.844 29.4065 670.425 Z" fill="#000000" fill-rule="nonzero" fill-opacity="1" /><polyline clip-path="url(#clip862)" style="stroke:#009af9; stroke-linecap:round; stroke-linejoin:round; stroke-width:4; stroke-opacity:1; fill:none" points="324.52,697.588 428.16,86.1857 531.8,308.091 635.44,708.247 739.08,795.993 842.72,1126.27 946.36,952.109 1050,1191.71 1153.64,1053.34 1257.28,830.415 1360.92,952.502 1464.56,1030.21 1568.2,1138.21 1671.84,1276.66 1775.48,1298.3 1879.12,1300.31 1982.76,1374.68 2086.4,1384.24 2190.04,1310.65 2293.68,1301.66 "/>
<path clip-path="url(#clip860)" d="M1977.43 196.789 L2283.18 196.789 L2283.18 93.1086 L1977.43 93.1086  Z" fill="#ffffff" fill-rule="evenodd" fill-opacity="1"/>
<polyline clip-path="url(#clip860)" style="stroke:#000000; stroke-linecap:round; stroke-linejoin:round; stroke-width:4; stroke-opacity:1; fill:none" points="1977.43,196.789 2283.18,196.789 2283.18,93.1086 1977.43,93.1086 1977.43,196.789 "/>
<polyline clip-path="url(#clip860)" style="stroke:#009af9; stroke-linecap:round; stroke-linejoin:round; stroke-width:4; stroke-opacity:1; fill:none" points="2000.63,144.949 2139.78,144.949 "/>
<path clip-path="url(#clip860)" d="M2162.97 127.669 L2167.65 127.669 L2167.65 158.293 L2184.48 158.293 L2184.48 162.229 L2162.97 162.229 L2162.97 127.669 Z" fill="#000000" fill-rule="nonzero" fill-opacity="1" /><path clip-path="url(#clip860)" d="M2198.41 139.289 Q2194.99 139.289 2193 141.974 Q2191.01 144.636 2191.01 149.289 Q2191.01 153.942 2192.97 156.627 Q2194.96 159.289 2198.41 159.289 Q2201.82 159.289 2203.81 156.604 Q2205.8 153.918 2205.8 149.289 Q2205.8 144.682 2203.81 141.997 Q2201.82 139.289 2198.41 139.289 M2198.41 135.678 Q2203.97 135.678 2207.14 139.289 Q2210.31 142.9 2210.31 149.289 Q2210.31 155.655 2207.14 159.289 Q2203.97 162.9 2198.41 162.9 Q2192.83 162.9 2189.66 159.289 Q2186.51 155.655 2186.51 149.289 Q2186.51 142.9 2189.66 139.289 Q2192.83 135.678 2198.41 135.678 Z" fill="#000000" fill-rule="nonzero" fill-opacity="1" /><path clip-path="url(#clip860)" d="M2233.9 137.067 L2233.9 141.094 Q2232.09 140.169 2230.15 139.706 Q2228.2 139.243 2226.12 139.243 Q2222.95 139.243 2221.35 140.215 Q2219.78 141.187 2219.78 143.131 Q2219.78 144.613 2220.91 145.469 Q2222.05 146.303 2225.47 147.067 L2226.93 147.391 Q2231.47 148.363 2233.37 150.145 Q2235.29 151.905 2235.29 155.076 Q2235.29 158.687 2232.42 160.793 Q2229.57 162.9 2224.57 162.9 Q2222.49 162.9 2220.22 162.483 Q2217.97 162.09 2215.47 161.28 L2215.47 156.881 Q2217.83 158.108 2220.13 158.733 Q2222.42 159.335 2224.66 159.335 Q2227.67 159.335 2229.29 158.317 Q2230.91 157.275 2230.91 155.4 Q2230.91 153.664 2229.73 152.738 Q2228.57 151.812 2224.62 150.956 L2223.13 150.608 Q2219.18 149.775 2217.42 148.062 Q2215.66 146.326 2215.66 143.317 Q2215.66 139.659 2218.25 137.669 Q2220.84 135.678 2225.61 135.678 Q2227.97 135.678 2230.06 136.025 Q2232.14 136.372 2233.9 137.067 Z" fill="#000000" fill-rule="nonzero" fill-opacity="1" /><path clip-path="url(#clip860)" d="M2258.6 137.067 L2258.6 141.094 Q2256.79 140.169 2254.85 139.706 Q2252.9 139.243 2250.82 139.243 Q2247.65 139.243 2246.05 140.215 Q2244.48 141.187 2244.48 143.131 Q2244.48 144.613 2245.61 145.469 Q2246.75 146.303 2250.17 147.067 L2251.63 147.391 Q2256.17 148.363 2258.07 150.145 Q2259.99 151.905 2259.99 155.076 Q2259.99 158.687 2257.12 160.793 Q2254.27 162.9 2249.27 162.9 Q2247.19 162.9 2244.92 162.483 Q2242.67 162.09 2240.17 161.28 L2240.17 156.881 Q2242.53 158.108 2244.82 158.733 Q2247.12 159.335 2249.36 159.335 Q2252.37 159.335 2253.99 158.317 Q2255.61 157.275 2255.61 155.4 Q2255.61 153.664 2254.43 152.738 Q2253.27 151.812 2249.32 150.956 L2247.83 150.608 Q2243.88 149.775 2242.12 148.062 Q2240.36 146.326 2240.36 143.317 Q2240.36 139.659 2242.95 137.669 Q2245.54 135.678 2250.31 135.678 Q2252.67 135.678 2254.76 136.025 Q2256.84 136.372 2258.6 137.067 Z" fill="#000000" fill-rule="nonzero" fill-opacity="1" /></svg>
