<?xml version="1.0" encoding="utf-8"?>
<svg xmlns="http://www.w3.org/2000/svg" xmlns:xlink="http://www.w3.org/1999/xlink" width="600" height="400" viewBox="0 0 2400 1600">
<defs>
  <clipPath id="clip840">
    <rect x="0" y="0" width="2400" height="1600"/>
  </clipPath>
</defs>
<path clip-path="url(#clip840)" d="M0 1600 L2400 1600 L2400 0 L0 0  Z" fill="#ffffff" fill-rule="evenodd" fill-opacity="1"/>
<defs>
  <clipPath id="clip841">
    <rect x="480" y="0" width="1681" height="1600"/>
  </clipPath>
</defs>
<path clip-path="url(#clip840)" d="M203.964 1423.18 L2352.76 1423.18 L2352.76 47.2441 L203.964 47.2441  Z" fill="#ffffff" fill-rule="evenodd" fill-opacity="1"/>
<defs>
  <clipPath id="clip842">
    <rect x="203" y="47" width="2150" height="1377"/>
  </clipPath>
</defs>
<polyline clip-path="url(#clip842)" style="stroke:#000000; stroke-linecap:round; stroke-linejoin:round; stroke-width:2; stroke-opacity:0.1; fill:none" points="212.8,1423.18 212.8,47.2441 "/>
<polyline clip-path="url(#clip842)" style="stroke:#000000; stroke-linecap:round; stroke-linejoin:round; stroke-width:2; stroke-opacity:0.1; fill:none" points="732.585,1423.18 732.585,47.2441 "/>
<polyline clip-path="url(#clip842)" style="stroke:#000000; stroke-linecap:round; stroke-linejoin:round; stroke-width:2; stroke-opacity:0.1; fill:none" points="1252.37,1423.18 1252.37,47.2441 "/>
<polyline clip-path="url(#clip842)" style="stroke:#000000; stroke-linecap:round; stroke-linejoin:round; stroke-width:2; stroke-opacity:0.1; fill:none" points="1772.16,1423.18 1772.16,47.2441 "/>
<polyline clip-path="url(#clip842)" style="stroke:#000000; stroke-linecap:round; stroke-linejoin:round; stroke-width:2; stroke-opacity:0.1; fill:none" points="2291.94,1423.18 2291.94,47.2441 "/>
<polyline clip-path="url(#clip842)" style="stroke:#000000; stroke-linecap:round; stroke-linejoin:round; stroke-width:2; stroke-opacity:0.1; fill:none" points="203.964,1227.63 2352.76,1227.63 "/>
<polyline clip-path="url(#clip842)" style="stroke:#000000; stroke-linecap:round; stroke-linejoin:round; stroke-width:2; stroke-opacity:0.1; fill:none" points="203.964,1006.12 2352.76,1006.12 "/>
<polyline clip-path="url(#clip842)" style="stroke:#000000; stroke-linecap:round; stroke-linejoin:round; stroke-width:2; stroke-opacity:0.1; fill:none" points="203.964,784.618 2352.76,784.618 "/>
<polyline clip-path="url(#clip842)" style="stroke:#000000; stroke-linecap:round; stroke-linejoin:round; stroke-width:2; stroke-opacity:0.1; fill:none" points="203.964,563.113 2352.76,563.113 "/>
<polyline clip-path="url(#clip842)" style="stroke:#000000; stroke-linecap:round; stroke-linejoin:round; stroke-width:2; stroke-opacity:0.1; fill:none" points="203.964,341.608 2352.76,341.608 "/>
<polyline clip-path="url(#clip842)" style="stroke:#000000; stroke-linecap:round; stroke-linejoin:round; stroke-width:2; stroke-opacity:0.1; fill:none" points="203.964,120.104 2352.76,120.104 "/>
<polyline clip-path="url(#clip840)" style="stroke:#000000; stroke-linecap:round; stroke-linejoin:round; stroke-width:4; stroke-opacity:1; fill:none" points="203.964,1423.18 2352.76,1423.18 "/>
<polyline clip-path="url(#clip840)" style="stroke:#000000; stroke-linecap:round; stroke-linejoin:round; stroke-width:4; stroke-opacity:1; fill:none" points="212.8,1423.18 212.8,1404.28 "/>
<polyline clip-path="url(#clip840)" style="stroke:#000000; stroke-linecap:round; stroke-linejoin:round; stroke-width:4; stroke-opacity:1; fill:none" points="732.585,1423.18 732.585,1404.28 "/>
<polyline clip-path="url(#clip840)" style="stroke:#000000; stroke-linecap:round; stroke-linejoin:round; stroke-width:4; stroke-opacity:1; fill:none" points="1252.37,1423.18 1252.37,1404.28 "/>
<polyline clip-path="url(#clip840)" style="stroke:#000000; stroke-linecap:round; stroke-linejoin:round; stroke-width:4; stroke-opacity:1; fill:none" points="1772.16,1423.18 1772.16,1404.28 "/>
<polyline clip-path="url(#clip840)" style="stroke:#000000; stroke-linecap:round; stroke-linejoin:round; stroke-width:4; stroke-opacity:1; fill:none" points="2291.94,1423.18 2291.94,1404.28 "/>
<path clip-path="url(#clip840)" d="M212.8 1454.1 Q209.189 1454.1 207.36 1457.66 Q205.555 1461.2 205.555 1468.33 Q205.555 1475.44 207.36 1479.01 Q209.189 1482.55 212.8 1482.55 Q216.434 1482.55 218.24 1479.01 Q220.068 1475.44 220.068 1468.33 Q220.068 1461.2 218.24 1457.66 Q216.434 1454.1 212.8 1454.1 M212.8 1450.39 Q218.61 1450.39 221.666 1455 Q224.744 1459.58 224.744 1468.33 Q224.744 1477.06 221.666 1481.67 Q218.61 1486.25 212.8 1486.25 Q206.99 1486.25 203.911 1481.67 Q200.856 1477.06 200.856 1468.33 Q200.856 1459.58 203.911 1455 Q206.99 1450.39 212.8 1450.39 Z" fill="#000000" fill-rule="nonzero" fill-opacity="1" /><path clip-path="url(#clip840)" d="M707.273 1481.64 L714.912 1481.64 L714.912 1455.28 L706.602 1456.95 L706.602 1452.69 L714.865 1451.02 L719.541 1451.02 L719.541 1481.64 L727.18 1481.64 L727.18 1485.58 L707.273 1485.58 L707.273 1481.64 Z" fill="#000000" fill-rule="nonzero" fill-opacity="1" /><path clip-path="url(#clip840)" d="M746.624 1454.1 Q743.013 1454.1 741.185 1457.66 Q739.379 1461.2 739.379 1468.33 Q739.379 1475.44 741.185 1479.01 Q743.013 1482.55 746.624 1482.55 Q750.259 1482.55 752.064 1479.01 Q753.893 1475.44 753.893 1468.33 Q753.893 1461.2 752.064 1457.66 Q750.259 1454.1 746.624 1454.1 M746.624 1450.39 Q752.435 1450.39 755.49 1455 Q758.569 1459.58 758.569 1468.33 Q758.569 1477.06 755.49 1481.67 Q752.435 1486.25 746.624 1486.25 Q740.814 1486.25 737.736 1481.67 Q734.68 1477.06 734.68 1468.33 Q734.68 1459.58 737.736 1455 Q740.814 1450.39 746.624 1450.39 Z" fill="#000000" fill-rule="nonzero" fill-opacity="1" /><path clip-path="url(#clip840)" d="M1231.14 1481.64 L1247.46 1481.64 L1247.46 1485.58 L1225.52 1485.58 L1225.52 1481.64 Q1228.18 1478.89 1232.76 1474.26 Q1237.37 1469.61 1238.55 1468.27 Q1240.8 1465.74 1241.68 1464.01 Q1242.58 1462.25 1242.58 1460.56 Q1242.58 1457.8 1240.63 1456.07 Q1238.71 1454.33 1235.61 1454.33 Q1233.41 1454.33 1230.96 1455.09 Q1228.53 1455.86 1225.75 1457.41 L1225.75 1452.69 Q1228.57 1451.55 1231.03 1450.97 Q1233.48 1450.39 1235.52 1450.39 Q1240.89 1450.39 1244.08 1453.08 Q1247.28 1455.77 1247.28 1460.26 Q1247.28 1462.39 1246.47 1464.31 Q1245.68 1466.2 1243.57 1468.8 Q1243 1469.47 1239.89 1472.69 Q1236.79 1475.88 1231.14 1481.64 Z" fill="#000000" fill-rule="nonzero" fill-opacity="1" /><path clip-path="url(#clip840)" d="M1267.28 1454.1 Q1263.67 1454.1 1261.84 1457.66 Q1260.03 1461.2 1260.03 1468.33 Q1260.03 1475.44 1261.84 1479.01 Q1263.67 1482.55 1267.28 1482.55 Q1270.91 1482.55 1272.72 1479.01 Q1274.55 1475.44 1274.55 1468.33 Q1274.55 1461.2 1272.72 1457.66 Q1270.91 1454.1 1267.28 1454.1 M1267.28 1450.39 Q1273.09 1450.39 1276.14 1455 Q1279.22 1459.58 1279.22 1468.33 Q1279.22 1477.06 1276.14 1481.67 Q1273.09 1486.25 1267.28 1486.25 Q1261.47 1486.25 1258.39 1481.67 Q1255.33 1477.06 1255.33 1468.33 Q1255.33 1459.58 1258.39 1455 Q1261.47 1450.39 1267.28 1450.39 Z" fill="#000000" fill-rule="nonzero" fill-opacity="1" /><path clip-path="url(#clip840)" d="M1761 1466.95 Q1764.35 1467.66 1766.23 1469.93 Q1768.13 1472.2 1768.13 1475.53 Q1768.13 1480.65 1764.61 1483.45 Q1761.09 1486.25 1754.61 1486.25 Q1752.43 1486.25 1750.12 1485.81 Q1747.83 1485.39 1745.37 1484.54 L1745.37 1480.02 Q1747.32 1481.16 1749.63 1481.74 Q1751.95 1482.32 1754.47 1482.32 Q1758.87 1482.32 1761.16 1480.58 Q1763.48 1478.84 1763.48 1475.53 Q1763.48 1472.48 1761.32 1470.77 Q1759.19 1469.03 1755.37 1469.03 L1751.35 1469.03 L1751.35 1465.19 L1755.56 1465.19 Q1759.01 1465.19 1760.84 1463.82 Q1762.67 1462.43 1762.67 1459.84 Q1762.67 1457.18 1760.77 1455.77 Q1758.89 1454.33 1755.37 1454.33 Q1753.45 1454.33 1751.25 1454.75 Q1749.05 1455.16 1746.42 1456.04 L1746.42 1451.88 Q1749.08 1451.14 1751.39 1450.77 Q1753.73 1450.39 1755.79 1450.39 Q1761.11 1450.39 1764.22 1452.83 Q1767.32 1455.23 1767.32 1459.35 Q1767.32 1462.22 1765.67 1464.21 Q1764.03 1466.18 1761 1466.95 Z" fill="#000000" fill-rule="nonzero" fill-opacity="1" /><path clip-path="url(#clip840)" d="M1786.99 1454.1 Q1783.38 1454.1 1781.55 1457.66 Q1779.75 1461.2 1779.75 1468.33 Q1779.75 1475.44 1781.55 1479.01 Q1783.38 1482.55 1786.99 1482.55 Q1790.63 1482.55 1792.43 1479.01 Q1794.26 1475.44 1794.26 1468.33 Q1794.26 1461.2 1792.43 1457.66 Q1790.63 1454.1 1786.99 1454.1 M1786.99 1450.39 Q1792.8 1450.39 1795.86 1455 Q1798.94 1459.58 1798.94 1468.33 Q1798.94 1477.06 1795.86 1481.67 Q1792.8 1486.25 1786.99 1486.25 Q1781.18 1486.25 1778.1 1481.67 Q1775.05 1477.06 1775.05 1468.33 Q1775.05 1459.58 1778.1 1455 Q1781.18 1450.39 1786.99 1450.39 Z" fill="#000000" fill-rule="nonzero" fill-opacity="1" /><path clip-path="url(#clip840)" d="M2280.11 1455.09 L2268.31 1473.54 L2280.11 1473.54 L2280.11 1455.09 M2278.89 1451.02 L2284.77 1451.02 L2284.77 1473.54 L2289.7 1473.54 L2289.7 1477.43 L2284.77 1477.43 L2284.77 1485.58 L2280.11 1485.58 L2280.11 1477.43 L2264.51 1477.43 L2264.51 1472.92 L2278.89 1451.02 Z" fill="#000000" fill-rule="nonzero" fill-opacity="1" /><path clip-path="url(#clip840)" d="M2307.43 1454.1 Q2303.82 1454.1 2301.99 1457.66 Q2300.18 1461.2 2300.18 1468.33 Q2300.18 1475.44 2301.99 1479.01 Q2303.82 1482.55 2307.43 1482.55 Q2311.06 1482.55 2312.87 1479.01 Q2314.7 1475.44 2314.7 1468.33 Q2314.7 1461.2 2312.87 1457.66 Q2311.06 1454.1 2307.43 1454.1 M2307.43 1450.39 Q2313.24 1450.39 2316.29 1455 Q2319.37 1459.58 2319.37 1468.33 Q2319.37 1477.06 2316.29 1481.67 Q2313.24 1486.25 2307.43 1486.25 Q2301.62 1486.25 2298.54 1481.67 Q2295.48 1477.06 2295.48 1468.33 Q2295.48 1459.58 2298.54 1455 Q2301.62 1450.39 2307.43 1450.39 Z" fill="#000000" fill-rule="nonzero" fill-opacity="1" /><path clip-path="url(#clip840)" d="M1127.92 1520.52 L1134.35 1520.52 L1134.35 1568.04 L1127.92 1568.04 L1127.92 1520.52 Z" fill="#000000" fill-rule="nonzero" fill-opacity="1" /><path clip-path="url(#clip840)" d="M1152.68 1522.27 L1152.68 1532.4 L1164.75 1532.4 L1164.75 1536.95 L1152.68 1536.95 L1152.68 1556.3 Q1152.68 1560.66 1153.86 1561.9 Q1155.07 1563.14 1158.73 1563.14 L1164.75 1563.14 L1164.75 1568.04 L1158.73 1568.04 Q1151.95 1568.04 1149.37 1565.53 Q1146.8 1562.98 1146.8 1556.3 L1146.8 1536.95 L1142.5 1536.95 L1142.5 1532.4 L1146.8 1532.4 L1146.8 1522.27 L1152.68 1522.27 Z" fill="#000000" fill-rule="nonzero" fill-opacity="1" /><path clip-path="url(#clip840)" d="M1202.94 1548.76 L1202.94 1551.62 L1176.02 1551.62 Q1176.4 1557.67 1179.64 1560.85 Q1182.92 1564 1188.75 1564 Q1192.12 1564 1195.27 1563.17 Q1198.45 1562.35 1201.57 1560.69 L1201.57 1566.23 Q1198.42 1567.57 1195.11 1568.27 Q1191.8 1568.97 1188.4 1568.97 Q1179.87 1568.97 1174.87 1564 Q1169.9 1559.04 1169.9 1550.57 Q1169.9 1541.82 1174.61 1536.69 Q1179.36 1531.54 1187.38 1531.54 Q1194.57 1531.54 1198.74 1536.18 Q1202.94 1540.8 1202.94 1548.76 M1197.09 1547.04 Q1197.02 1542.23 1194.38 1539.37 Q1191.77 1536.5 1187.44 1536.5 Q1182.54 1536.5 1179.58 1539.27 Q1176.65 1542.04 1176.21 1547.07 L1197.09 1547.04 Z" fill="#000000" fill-rule="nonzero" fill-opacity="1" /><path clip-path="url(#clip840)" d="M1233.21 1537.87 Q1232.22 1537.3 1231.05 1537.04 Q1229.9 1536.76 1228.5 1536.76 Q1223.54 1536.76 1220.86 1540 Q1218.22 1543.22 1218.22 1549.27 L1218.22 1568.04 L1212.33 1568.04 L1212.33 1532.4 L1218.22 1532.4 L1218.22 1537.93 Q1220.07 1534.69 1223.03 1533.13 Q1225.99 1531.54 1230.22 1531.54 Q1230.82 1531.54 1231.56 1531.63 Q1232.29 1531.7 1233.18 1531.85 L1233.21 1537.87 Z" fill="#000000" fill-rule="nonzero" fill-opacity="1" /><path clip-path="url(#clip840)" d="M1255.55 1550.12 Q1248.46 1550.12 1245.72 1551.75 Q1242.98 1553.37 1242.98 1557.29 Q1242.98 1560.4 1245.02 1562.25 Q1247.09 1564.07 1250.62 1564.07 Q1255.49 1564.07 1258.42 1560.63 Q1261.38 1557.16 1261.38 1551.43 L1261.38 1550.12 L1255.55 1550.12 M1267.24 1547.71 L1267.24 1568.04 L1261.38 1568.04 L1261.38 1562.63 Q1259.37 1565.88 1256.38 1567.44 Q1253.39 1568.97 1249.06 1568.97 Q1243.59 1568.97 1240.34 1565.91 Q1237.13 1562.82 1237.13 1557.67 Q1237.13 1551.65 1241.14 1548.6 Q1245.18 1545.54 1253.17 1545.54 L1261.38 1545.54 L1261.38 1544.97 Q1261.38 1540.93 1258.71 1538.73 Q1256.06 1536.5 1251.26 1536.5 Q1248.2 1536.5 1245.31 1537.23 Q1242.41 1537.97 1239.74 1539.43 L1239.74 1534.02 Q1242.95 1532.78 1245.97 1532.17 Q1249 1531.54 1251.86 1531.54 Q1259.6 1531.54 1263.42 1535.55 Q1267.24 1539.56 1267.24 1547.71 Z" fill="#000000" fill-rule="nonzero" fill-opacity="1" /><path clip-path="url(#clip840)" d="M1285.09 1522.27 L1285.09 1532.4 L1297.15 1532.4 L1297.15 1536.95 L1285.09 1536.95 L1285.09 1556.3 Q1285.09 1560.66 1286.27 1561.9 Q1287.48 1563.14 1291.14 1563.14 L1297.15 1563.14 L1297.15 1568.04 L1291.14 1568.04 Q1284.36 1568.04 1281.78 1565.53 Q1279.2 1562.98 1279.2 1556.3 L1279.2 1536.95 L1274.91 1536.95 L1274.91 1532.4 L1279.2 1532.4 L1279.2 1522.27 L1285.09 1522.27 Z" fill="#000000" fill-rule="nonzero" fill-opacity="1" /><path clip-path="url(#clip840)" d="M1304.86 1532.4 L1310.71 1532.4 L1310.71 1568.04 L1304.86 1568.04 L1304.86 1532.4 M1304.86 1518.52 L1310.71 1518.52 L1310.71 1525.93 L1304.86 1525.93 L1304.86 1518.52 Z" fill="#000000" fill-rule="nonzero" fill-opacity="1" /><path clip-path="url(#clip840)" d="M1336.78 1536.5 Q1332.07 1536.5 1329.33 1540.19 Q1326.6 1543.85 1326.6 1550.25 Q1326.6 1556.65 1329.3 1560.34 Q1332.04 1564 1336.78 1564 Q1341.46 1564 1344.2 1560.31 Q1346.93 1556.62 1346.93 1550.25 Q1346.93 1543.92 1344.2 1540.23 Q1341.46 1536.5 1336.78 1536.5 M1336.78 1531.54 Q1344.42 1531.54 1348.78 1536.5 Q1353.14 1541.47 1353.14 1550.25 Q1353.14 1559 1348.78 1564 Q1344.42 1568.97 1336.78 1568.97 Q1329.11 1568.97 1324.75 1564 Q1320.42 1559 1320.42 1550.25 Q1320.42 1541.47 1324.75 1536.5 Q1329.11 1531.54 1336.78 1531.54 Z" fill="#000000" fill-rule="nonzero" fill-opacity="1" /><path clip-path="url(#clip840)" d="M1392.48 1546.53 L1392.48 1568.04 L1386.62 1568.04 L1386.62 1546.72 Q1386.62 1541.66 1384.65 1539.14 Q1382.68 1536.63 1378.73 1536.63 Q1373.99 1536.63 1371.25 1539.65 Q1368.51 1542.68 1368.51 1547.9 L1368.51 1568.04 L1362.63 1568.04 L1362.63 1532.4 L1368.51 1532.4 L1368.51 1537.93 Q1370.61 1534.72 1373.45 1533.13 Q1376.31 1531.54 1380.04 1531.54 Q1386.18 1531.54 1389.33 1535.36 Q1392.48 1539.14 1392.48 1546.53 Z" fill="#000000" fill-rule="nonzero" fill-opacity="1" /><path clip-path="url(#clip840)" d="M1426.89 1533.45 L1426.89 1538.98 Q1424.4 1537.71 1421.73 1537.07 Q1419.06 1536.44 1416.19 1536.44 Q1411.83 1536.44 1409.64 1537.77 Q1407.47 1539.11 1407.47 1541.79 Q1407.47 1543.82 1409.03 1545 Q1410.59 1546.15 1415.3 1547.2 L1417.31 1547.64 Q1423.55 1548.98 1426.16 1551.43 Q1428.8 1553.85 1428.8 1558.21 Q1428.8 1563.17 1424.85 1566.07 Q1420.94 1568.97 1414.06 1568.97 Q1411.2 1568.97 1408.08 1568.39 Q1404.99 1567.85 1401.55 1566.74 L1401.55 1560.69 Q1404.8 1562.38 1407.95 1563.24 Q1411.1 1564.07 1414.19 1564.07 Q1418.33 1564.07 1420.55 1562.66 Q1422.78 1561.23 1422.78 1558.65 Q1422.78 1556.27 1421.16 1554.99 Q1419.57 1553.72 1414.12 1552.54 L1412.09 1552.07 Q1406.64 1550.92 1404.23 1548.56 Q1401.81 1546.18 1401.81 1542.04 Q1401.81 1537.01 1405.37 1534.27 Q1408.94 1531.54 1415.49 1531.54 Q1418.74 1531.54 1421.6 1532.01 Q1424.47 1532.49 1426.89 1533.45 Z" fill="#000000" fill-rule="nonzero" fill-opacity="1" /><polyline clip-path="url(#clip840)" style="stroke:#000000; stroke-linecap:round; stroke-linejoin:round; stroke-width:4; stroke-opacity:1; fill:none" points="203.964,1423.18 203.964,47.2441 "/>
<polyline clip-path="url(#clip840)" style="stroke:#000000; stroke-linecap:round; stroke-linejoin:round; stroke-width:4; stroke-opacity:1; fill:none" points="203.964,1227.63 222.861,1227.63 "/>
<polyline clip-path="url(#clip840)" style="stroke:#000000; stroke-linecap:round; stroke-linejoin:round; stroke-width:4; stroke-opacity:1; fill:none" points="203.964,1006.12 222.861,1006.12 "/>
<polyline clip-path="url(#clip840)" style="stroke:#000000; stroke-linecap:round; stroke-linejoin:round; stroke-width:4; stroke-opacity:1; fill:none" points="203.964,784.618 222.861,784.618 "/>
<polyline clip-path="url(#clip840)" style="stroke:#000000; stroke-linecap:round; stroke-linejoin:round; stroke-width:4; stroke-opacity:1; fill:none" points="203.964,563.113 222.861,563.113 "/>
<polyline clip-path="url(#clip840)" style="stroke:#000000; stroke-linecap:round; stroke-linejoin:round; stroke-width:4; stroke-opacity:1; fill:none" points="203.964,341.608 222.861,341.608 "/>
<polyline clip-path="url(#clip840)" style="stroke:#000000; stroke-linecap:round; stroke-linejoin:round; stroke-width:4; stroke-opacity:1; fill:none" points="203.964,120.104 222.861,120.104 "/>
<path clip-path="url(#clip840)" d="M147.061 1210.35 L165.417 1210.35 L165.417 1214.28 L151.343 1214.28 L151.343 1222.75 Q152.362 1222.41 153.38 1222.25 Q154.399 1222.06 155.417 1222.06 Q161.204 1222.06 164.584 1225.23 Q167.964 1228.4 167.964 1233.82 Q167.964 1239.4 164.491 1242.5 Q161.019 1245.58 154.7 1245.58 Q152.524 1245.58 150.255 1245.21 Q148.01 1244.84 145.603 1244.1 L145.603 1239.4 Q147.686 1240.53 149.908 1241.09 Q152.13 1241.64 154.607 1241.64 Q158.612 1241.64 160.95 1239.54 Q163.288 1237.43 163.288 1233.82 Q163.288 1230.21 160.95 1228.1 Q158.612 1226 154.607 1226 Q152.732 1226 150.857 1226.41 Q149.005 1226.83 147.061 1227.71 L147.061 1210.35 Z" fill="#000000" fill-rule="nonzero" fill-opacity="1" /><path clip-path="url(#clip840)" d="M116.668 1019.47 L124.306 1019.47 L124.306 993.102 L115.996 994.769 L115.996 990.509 L124.26 988.843 L128.936 988.843 L128.936 1019.47 L136.575 1019.47 L136.575 1023.4 L116.668 1023.4 L116.668 1019.47 Z" fill="#000000" fill-rule="nonzero" fill-opacity="1" /><path clip-path="url(#clip840)" d="M156.019 991.921 Q152.408 991.921 150.579 995.486 Q148.774 999.028 148.774 1006.16 Q148.774 1013.26 150.579 1016.83 Q152.408 1020.37 156.019 1020.37 Q159.653 1020.37 161.459 1016.83 Q163.288 1013.26 163.288 1006.16 Q163.288 999.028 161.459 995.486 Q159.653 991.921 156.019 991.921 M156.019 988.218 Q161.829 988.218 164.885 992.824 Q167.964 997.407 167.964 1006.16 Q167.964 1014.88 164.885 1019.49 Q161.829 1024.07 156.019 1024.07 Q150.209 1024.07 147.13 1019.49 Q144.075 1014.88 144.075 1006.16 Q144.075 997.407 147.13 992.824 Q150.209 988.218 156.019 988.218 Z" fill="#000000" fill-rule="nonzero" fill-opacity="1" /><path clip-path="url(#clip840)" d="M117.663 797.963 L125.302 797.963 L125.302 771.597 L116.992 773.264 L116.992 769.005 L125.255 767.338 L129.931 767.338 L129.931 797.963 L137.57 797.963 L137.57 801.898 L117.663 801.898 L117.663 797.963 Z" fill="#000000" fill-rule="nonzero" fill-opacity="1" /><path clip-path="url(#clip840)" d="M147.061 767.338 L165.417 767.338 L165.417 771.273 L151.343 771.273 L151.343 779.745 Q152.362 779.398 153.38 779.236 Q154.399 779.051 155.417 779.051 Q161.204 779.051 164.584 782.222 Q167.964 785.393 167.964 790.81 Q167.964 796.389 164.491 799.491 Q161.019 802.569 154.7 802.569 Q152.524 802.569 150.255 802.199 Q148.01 801.828 145.603 801.088 L145.603 796.389 Q147.686 797.523 149.908 798.078 Q152.13 798.634 154.607 798.634 Q158.612 798.634 160.95 796.528 Q163.288 794.421 163.288 790.81 Q163.288 787.199 160.95 785.092 Q158.612 782.986 154.607 782.986 Q152.732 782.986 150.857 783.403 Q149.005 783.819 147.061 784.699 L147.061 767.338 Z" fill="#000000" fill-rule="nonzero" fill-opacity="1" /><path clip-path="url(#clip840)" d="M119.885 576.458 L136.204 576.458 L136.204 580.393 L114.26 580.393 L114.26 576.458 Q116.922 573.703 121.505 569.074 Q126.112 564.421 127.292 563.078 Q129.538 560.555 130.417 558.819 Q131.32 557.06 131.32 555.37 Q131.32 552.616 129.376 550.879 Q127.455 549.143 124.353 549.143 Q122.154 549.143 119.7 549.907 Q117.269 550.671 114.492 552.222 L114.492 547.5 Q117.316 546.366 119.769 545.787 Q122.223 545.208 124.26 545.208 Q129.63 545.208 132.825 547.893 Q136.019 550.578 136.019 555.069 Q136.019 557.199 135.209 559.12 Q134.422 561.018 132.316 563.611 Q131.737 564.282 128.635 567.5 Q125.533 570.694 119.885 576.458 Z" fill="#000000" fill-rule="nonzero" fill-opacity="1" /><path clip-path="url(#clip840)" d="M156.019 548.912 Q152.408 548.912 150.579 552.477 Q148.774 556.018 148.774 563.148 Q148.774 570.254 150.579 573.819 Q152.408 577.361 156.019 577.361 Q159.653 577.361 161.459 573.819 Q163.288 570.254 163.288 563.148 Q163.288 556.018 161.459 552.477 Q159.653 548.912 156.019 548.912 M156.019 545.208 Q161.829 545.208 164.885 549.815 Q167.964 554.398 167.964 563.148 Q167.964 571.875 164.885 576.481 Q161.829 581.064 156.019 581.064 Q150.209 581.064 147.13 576.481 Q144.075 571.875 144.075 563.148 Q144.075 554.398 147.13 549.815 Q150.209 545.208 156.019 545.208 Z" fill="#000000" fill-rule="nonzero" fill-opacity="1" /><path clip-path="url(#clip840)" d="M120.88 354.953 L137.2 354.953 L137.2 358.888 L115.256 358.888 L115.256 354.953 Q117.918 352.199 122.501 347.569 Q127.107 342.916 128.288 341.574 Q130.533 339.051 131.413 337.314 Q132.316 335.555 132.316 333.865 Q132.316 331.111 130.371 329.375 Q128.45 327.639 125.348 327.639 Q123.149 327.639 120.695 328.402 Q118.265 329.166 115.487 330.717 L115.487 325.995 Q118.311 324.861 120.765 324.282 Q123.218 323.703 125.255 323.703 Q130.626 323.703 133.82 326.389 Q137.015 329.074 137.015 333.564 Q137.015 335.694 136.204 337.615 Q135.417 339.513 133.311 342.106 Q132.732 342.777 129.63 345.995 Q126.529 349.189 120.88 354.953 Z" fill="#000000" fill-rule="nonzero" fill-opacity="1" /><path clip-path="url(#clip840)" d="M147.061 324.328 L165.417 324.328 L165.417 328.264 L151.343 328.264 L151.343 336.736 Q152.362 336.388 153.38 336.226 Q154.399 336.041 155.417 336.041 Q161.204 336.041 164.584 339.213 Q167.964 342.384 167.964 347.8 Q167.964 353.379 164.491 356.481 Q161.019 359.56 154.7 359.56 Q152.524 359.56 150.255 359.189 Q148.01 358.819 145.603 358.078 L145.603 353.379 Q147.686 354.513 149.908 355.069 Q152.13 355.624 154.607 355.624 Q158.612 355.624 160.95 353.518 Q163.288 351.412 163.288 347.8 Q163.288 344.189 160.95 342.083 Q158.612 339.976 154.607 339.976 Q152.732 339.976 150.857 340.393 Q149.005 340.81 147.061 341.689 L147.061 324.328 Z" fill="#000000" fill-rule="nonzero" fill-opacity="1" /><path clip-path="url(#clip840)" d="M130.024 118.749 Q133.38 119.467 135.255 121.736 Q137.154 124.004 137.154 127.337 Q137.154 132.453 133.635 135.254 Q130.117 138.055 123.635 138.055 Q121.459 138.055 119.144 137.615 Q116.853 137.198 114.399 136.342 L114.399 131.828 Q116.343 132.962 118.658 133.541 Q120.973 134.12 123.496 134.12 Q127.894 134.12 130.186 132.384 Q132.501 130.648 132.501 127.337 Q132.501 124.282 130.348 122.569 Q128.218 120.833 124.399 120.833 L120.371 120.833 L120.371 116.99 L124.584 116.99 Q128.033 116.99 129.862 115.624 Q131.691 114.236 131.691 111.643 Q131.691 108.981 129.792 107.569 Q127.917 106.134 124.399 106.134 Q122.478 106.134 120.279 106.55 Q118.08 106.967 115.441 107.847 L115.441 103.68 Q118.103 102.939 120.418 102.569 Q122.755 102.199 124.816 102.199 Q130.14 102.199 133.242 104.629 Q136.343 107.037 136.343 111.157 Q136.343 114.027 134.7 116.018 Q133.056 117.986 130.024 118.749 Z" fill="#000000" fill-rule="nonzero" fill-opacity="1" /><path clip-path="url(#clip840)" d="M156.019 105.902 Q152.408 105.902 150.579 109.467 Q148.774 113.009 148.774 120.138 Q148.774 127.245 150.579 130.81 Q152.408 134.351 156.019 134.351 Q159.653 134.351 161.459 130.81 Q163.288 127.245 163.288 120.138 Q163.288 113.009 161.459 109.467 Q159.653 105.902 156.019 105.902 M156.019 102.199 Q161.829 102.199 164.885 106.805 Q167.964 111.388 167.964 120.138 Q167.964 128.865 164.885 133.472 Q161.829 138.055 156.019 138.055 Q150.209 138.055 147.13 133.472 Q144.075 128.865 144.075 120.138 Q144.075 111.388 147.13 106.805 Q150.209 102.199 156.019 102.199 Z" fill="#000000" fill-rule="nonzero" fill-opacity="1" /><path clip-path="url(#clip840)" d="M57.2247 762.378 L44.4614 762.378 L44.4614 772.881 L39.1779 772.881 L39.1779 756.012 L59.58 756.012 Q62.2218 759.736 63.5904 764.224 Q64.9272 768.711 64.9272 773.804 Q64.9272 784.944 58.4342 791.246 Q51.9093 797.516 40.2919 797.516 Q28.6427 797.516 22.1496 791.246 Q15.6248 784.944 15.6248 773.804 Q15.6248 769.157 16.7706 764.988 Q17.9164 760.786 20.1444 757.253 L26.9876 757.253 Q23.9639 760.818 22.4361 764.828 Q20.9083 768.839 20.9083 773.263 Q20.9083 781.984 25.7781 786.376 Q30.6479 790.737 40.2919 790.737 Q49.9041 790.737 54.7739 786.376 Q59.6436 781.984 59.6436 773.263 Q59.6436 769.857 59.0707 767.184 Q58.466 764.51 57.2247 762.378 Z" fill="#000000" fill-rule="nonzero" fill-opacity="1" /><path clip-path="url(#clip840)" d="M46.0847 728.321 Q46.0847 735.419 47.7079 738.156 Q49.3312 740.893 53.2461 740.893 Q56.3653 740.893 58.2114 738.856 Q60.0256 736.787 60.0256 733.255 Q60.0256 728.385 56.5881 725.457 Q53.1188 722.496 47.3897 722.496 L46.0847 722.496 L46.0847 728.321 M43.6657 716.64 L64.0042 716.64 L64.0042 722.496 L58.5933 722.496 Q61.8398 724.502 63.3994 727.494 Q64.9272 730.485 64.9272 734.814 Q64.9272 740.289 61.8716 743.535 Q58.7843 746.75 53.6281 746.75 Q47.6125 746.75 44.5569 742.739 Q41.5014 738.697 41.5014 730.708 L41.5014 722.496 L40.9285 722.496 Q36.8862 722.496 34.6901 725.17 Q32.4621 727.812 32.4621 732.618 Q32.4621 735.673 33.1941 738.57 Q33.9262 741.466 35.3903 744.14 L29.9795 744.14 Q28.7381 740.925 28.1334 737.901 Q27.4968 734.878 27.4968 732.013 Q27.4968 724.279 31.5072 720.459 Q35.5176 716.64 43.6657 716.64 Z" fill="#000000" fill-rule="nonzero" fill-opacity="1" /><path clip-path="url(#clip840)" d="M58.657 698.912 L77.5631 698.912 L77.5631 704.8 L28.3562 704.8 L28.3562 698.912 L33.7671 698.912 Q30.5842 697.065 29.0564 694.265 Q27.4968 691.432 27.4968 687.517 Q27.4968 681.024 32.6531 676.982 Q37.8093 672.908 46.212 672.908 Q54.6147 672.908 59.771 676.982 Q64.9272 681.024 64.9272 687.517 Q64.9272 691.432 63.3994 694.265 Q61.8398 697.065 58.657 698.912 M46.212 678.987 Q39.7508 678.987 36.0905 681.66 Q32.3984 684.302 32.3984 688.949 Q32.3984 693.596 36.0905 696.27 Q39.7508 698.912 46.212 698.912 Q52.6732 698.912 56.3653 696.27 Q60.0256 693.596 60.0256 688.949 Q60.0256 684.302 56.3653 681.66 Q52.6732 678.987 46.212 678.987 Z" fill="#000000" fill-rule="nonzero" fill-opacity="1" /><polyline clip-path="url(#clip842)" style="stroke:#009af9; stroke-linecap:round; stroke-linejoin:round; stroke-width:4; stroke-opacity:1; fill:none" points="264.778,449.592 316.757,510.506 368.736,506.353 420.714,501.507 472.693,583.879 524.671,605.337 576.65,557.576 628.628,714.013 680.607,670.405 732.585,795.693 784.564,938.633 836.542,1012.35 888.521,990.548 940.499,726.473 992.478,864.913 1044.46,1124.66 1096.43,1072.57 1148.41,1051.12 1200.39,891.217 1252.37,1033.81 1304.35,938.633 1356.33,934.134 1408.31,1094.38 1460.28,1224.17 1512.26,1094.38 1564.24,1215.51 1616.22,1016.51 1668.2,1340.98 1720.18,1345.3 1772.16,1345.3 1824.13,1085.73 1876.11,1384.24 1928.09,1254.45 1980.07,1336.65 2032.05,1371.26 2084.03,1375.59 2136.01,1353.95 2187.98,1375.59 2239.96,1362.61 2291.94,1375.59 "/>
<polyline clip-path="url(#clip842)" style="stroke:#e26f46; stroke-linecap:round; stroke-linejoin:round; stroke-width:4; stroke-opacity:1; fill:none" points="264.778,748.277 316.757,882.218 368.736,791.54 420.714,882.218 472.693,817.498 524.671,929.98 576.65,856.607 628.628,696.016 680.607,86.1857 732.585,821.997 784.564,986.049 836.542,1025.16 888.521,904.023 940.499,869.413 992.478,1033.81 1044.46,1137.64 1096.43,1094.38 1148.41,1150.62 1200.39,730.626 1252.37,1025.16 1304.35,1215.51 1356.33,1025.16 1408.31,1215.51 1460.28,1293.39 1512.26,1219.84 1564.24,1228.49 1616.22,1077.07 1668.2,1185.23 1720.18,1206.86 1772.16,1224.17 1824.13,1016.51 1876.11,1202.54 1928.09,1193.88 1980.07,1211.19 2032.05,1237.15 2084.03,1159.27 2136.01,1241.47 2187.98,1133.31 2239.96,1284.73 2291.94,1180.9 "/>
<path clip-path="url(#clip840)" d="M1883.36 248.629 L2281.13 248.629 L2281.13 93.1086 L1883.36 93.1086  Z" fill="#ffffff" fill-rule="evenodd" fill-opacity="1"/>
<polyline clip-path="url(#clip840)" style="stroke:#000000; stroke-linecap:round; stroke-linejoin:round; stroke-width:4; stroke-opacity:1; fill:none" points="1883.36,248.629 2281.13,248.629 2281.13,93.1086 1883.36,93.1086 1883.36,248.629 "/>
<polyline clip-path="url(#clip840)" style="stroke:#009af9; stroke-linecap:round; stroke-linejoin:round; stroke-width:4; stroke-opacity:1; fill:none" points="1907.23,144.949 2050.49,144.949 "/>
<path clip-path="url(#clip840)" d="M2074.36 127.669 L2103.6 127.669 L2103.6 131.604 L2091.33 131.604 L2091.33 162.229 L2086.63 162.229 L2086.63 131.604 L2074.36 131.604 L2074.36 127.669 Z" fill="#000000" fill-rule="nonzero" fill-opacity="1" /><path clip-path="url(#clip840)" d="M2115.98 140.284 Q2115.26 139.868 2114.41 139.682 Q2113.57 139.474 2112.56 139.474 Q2108.94 139.474 2107 141.835 Q2105.08 144.173 2105.08 148.571 L2105.08 162.229 L2100.8 162.229 L2100.8 136.303 L2105.08 136.303 L2105.08 140.331 Q2106.42 137.969 2108.57 136.835 Q2110.73 135.678 2113.81 135.678 Q2114.25 135.678 2114.78 135.747 Q2115.31 135.794 2115.96 135.909 L2115.98 140.284 Z" fill="#000000" fill-rule="nonzero" fill-opacity="1" /><path clip-path="url(#clip840)" d="M2132.23 149.196 Q2127.07 149.196 2125.08 150.377 Q2123.09 151.557 2123.09 154.405 Q2123.09 156.673 2124.57 158.016 Q2126.07 159.335 2128.64 159.335 Q2132.19 159.335 2134.31 156.835 Q2136.47 154.312 2136.47 150.145 L2136.47 149.196 L2132.23 149.196 M2140.73 147.437 L2140.73 162.229 L2136.47 162.229 L2136.47 158.293 Q2135.01 160.655 2132.83 161.789 Q2130.66 162.9 2127.51 162.9 Q2123.53 162.9 2121.17 160.678 Q2118.83 158.432 2118.83 154.682 Q2118.83 150.307 2121.75 148.085 Q2124.69 145.863 2130.5 145.863 L2136.47 145.863 L2136.47 145.446 Q2136.47 142.507 2134.52 140.909 Q2132.6 139.289 2129.11 139.289 Q2126.88 139.289 2124.78 139.821 Q2122.67 140.354 2120.73 141.419 L2120.73 137.483 Q2123.06 136.581 2125.26 136.141 Q2127.46 135.678 2129.55 135.678 Q2135.17 135.678 2137.95 138.594 Q2140.73 141.511 2140.73 147.437 Z" fill="#000000" fill-rule="nonzero" fill-opacity="1" /><path clip-path="url(#clip840)" d="M2149.5 136.303 L2153.76 136.303 L2153.76 162.229 L2149.5 162.229 L2149.5 136.303 M2149.5 126.21 L2153.76 126.21 L2153.76 131.604 L2149.5 131.604 L2149.5 126.21 Z" fill="#000000" fill-rule="nonzero" fill-opacity="1" /><path clip-path="url(#clip840)" d="M2184.22 146.581 L2184.22 162.229 L2179.96 162.229 L2179.96 146.719 Q2179.96 143.039 2178.53 141.21 Q2177.09 139.382 2174.22 139.382 Q2170.77 139.382 2168.78 141.581 Q2166.79 143.78 2166.79 147.576 L2166.79 162.229 L2162.51 162.229 L2162.51 136.303 L2166.79 136.303 L2166.79 140.331 Q2168.32 137.993 2170.38 136.835 Q2172.46 135.678 2175.17 135.678 Q2179.64 135.678 2181.93 138.456 Q2184.22 141.21 2184.22 146.581 Z" fill="#000000" fill-rule="nonzero" fill-opacity="1" /><path clip-path="url(#clip840)" d="M2192.72 136.303 L2196.98 136.303 L2196.98 162.229 L2192.72 162.229 L2192.72 136.303 M2192.72 126.21 L2196.98 126.21 L2196.98 131.604 L2192.72 131.604 L2192.72 126.21 Z" fill="#000000" fill-rule="nonzero" fill-opacity="1" /><path clip-path="url(#clip840)" d="M2227.44 146.581 L2227.44 162.229 L2223.18 162.229 L2223.18 146.719 Q2223.18 143.039 2221.74 141.21 Q2220.31 139.382 2217.44 139.382 Q2213.99 139.382 2212 141.581 Q2210.01 143.78 2210.01 147.576 L2210.01 162.229 L2205.73 162.229 L2205.73 136.303 L2210.01 136.303 L2210.01 140.331 Q2211.54 137.993 2213.6 136.835 Q2215.68 135.678 2218.39 135.678 Q2222.86 135.678 2225.15 138.456 Q2227.44 141.21 2227.44 146.581 Z" fill="#000000" fill-rule="nonzero" fill-opacity="1" /><path clip-path="url(#clip840)" d="M2252.99 148.965 Q2252.99 144.335 2251.07 141.789 Q2249.18 139.243 2245.73 139.243 Q2242.3 139.243 2240.38 141.789 Q2238.48 144.335 2238.48 148.965 Q2238.48 153.571 2240.38 156.118 Q2242.3 158.664 2245.73 158.664 Q2249.18 158.664 2251.07 156.118 Q2252.99 153.571 2252.99 148.965 M2257.25 159.011 Q2257.25 165.631 2254.31 168.849 Q2251.37 172.09 2245.31 172.09 Q2243.06 172.09 2241.07 171.742 Q2239.08 171.418 2237.21 170.724 L2237.21 166.58 Q2239.08 167.599 2240.91 168.085 Q2242.74 168.571 2244.64 168.571 Q2248.83 168.571 2250.91 166.372 Q2252.99 164.196 2252.99 159.775 L2252.99 157.668 Q2251.68 159.96 2249.62 161.094 Q2247.56 162.229 2244.68 162.229 Q2239.92 162.229 2237 158.594 Q2234.08 154.96 2234.08 148.965 Q2234.08 142.946 2237 139.312 Q2239.92 135.678 2244.68 135.678 Q2247.56 135.678 2249.62 136.812 Q2251.68 137.946 2252.99 140.238 L2252.99 136.303 L2257.25 136.303 L2257.25 159.011 Z" fill="#000000" fill-rule="nonzero" fill-opacity="1" /><polyline clip-path="url(#clip840)" style="stroke:#e26f46; stroke-linecap:round; stroke-linejoin:round; stroke-width:4; stroke-opacity:1; fill:none" points="1907.23,196.789 2050.49,196.789 "/>
<path clip-path="url(#clip840)" d="M2074.36 179.509 L2103.6 179.509 L2103.6 183.444 L2091.33 183.444 L2091.33 214.069 L2086.63 214.069 L2086.63 183.444 L2074.36 183.444 L2074.36 179.509 Z" fill="#000000" fill-rule="nonzero" fill-opacity="1" /><path clip-path="url(#clip840)" d="M2122.05 200.041 L2122.05 202.124 L2102.46 202.124 Q2102.74 206.522 2105.1 208.837 Q2107.49 211.129 2111.72 211.129 Q2114.18 211.129 2116.47 210.527 Q2118.78 209.925 2121.05 208.721 L2121.05 212.749 Q2118.76 213.721 2116.35 214.231 Q2113.94 214.74 2111.47 214.74 Q2105.26 214.74 2101.63 211.129 Q2098.02 207.518 2098.02 201.36 Q2098.02 194.995 2101.44 191.268 Q2104.89 187.518 2110.73 187.518 Q2115.96 187.518 2118.99 190.897 Q2122.05 194.254 2122.05 200.041 M2117.79 198.791 Q2117.74 195.296 2115.82 193.212 Q2113.92 191.129 2110.77 191.129 Q2107.21 191.129 2105.06 193.143 Q2102.93 195.157 2102.6 198.814 L2117.79 198.791 Z" fill="#000000" fill-rule="nonzero" fill-opacity="1" /><path clip-path="url(#clip840)" d="M2145.56 188.907 L2145.56 192.934 Q2143.76 192.009 2141.81 191.546 Q2139.87 191.083 2137.79 191.083 Q2134.62 191.083 2133.02 192.055 Q2131.44 193.027 2131.44 194.971 Q2131.44 196.453 2132.58 197.309 Q2133.71 198.143 2137.14 198.907 L2138.6 199.231 Q2143.13 200.203 2145.03 201.985 Q2146.95 203.745 2146.95 206.916 Q2146.95 210.527 2144.08 212.633 Q2141.24 214.74 2136.24 214.74 Q2134.15 214.74 2131.88 214.323 Q2129.64 213.93 2127.14 213.12 L2127.14 208.721 Q2129.5 209.948 2131.79 210.573 Q2134.08 211.175 2136.33 211.175 Q2139.34 211.175 2140.96 210.157 Q2142.58 209.115 2142.58 207.24 Q2142.58 205.504 2141.4 204.578 Q2140.24 203.652 2136.28 202.796 L2134.8 202.448 Q2130.84 201.615 2129.08 199.902 Q2127.32 198.166 2127.32 195.157 Q2127.32 191.499 2129.92 189.509 Q2132.51 187.518 2137.28 187.518 Q2139.64 187.518 2141.72 187.865 Q2143.81 188.212 2145.56 188.907 Z" fill="#000000" fill-rule="nonzero" fill-opacity="1" /><path clip-path="url(#clip840)" d="M2157.95 180.782 L2157.95 188.143 L2166.72 188.143 L2166.72 191.453 L2157.95 191.453 L2157.95 205.527 Q2157.95 208.698 2158.81 209.601 Q2159.69 210.504 2162.35 210.504 L2166.72 210.504 L2166.72 214.069 L2162.35 214.069 Q2157.42 214.069 2155.54 212.24 Q2153.67 210.388 2153.67 205.527 L2153.67 191.453 L2150.54 191.453 L2150.54 188.143 L2153.67 188.143 L2153.67 180.782 L2157.95 180.782 Z" fill="#000000" fill-rule="nonzero" fill-opacity="1" /><path clip-path="url(#clip840)" d="M2172.32 188.143 L2176.58 188.143 L2176.58 214.069 L2172.32 214.069 L2172.32 188.143 M2172.32 178.05 L2176.58 178.05 L2176.58 183.444 L2172.32 183.444 L2172.32 178.05 Z" fill="#000000" fill-rule="nonzero" fill-opacity="1" /><path clip-path="url(#clip840)" d="M2207.05 198.421 L2207.05 214.069 L2202.79 214.069 L2202.79 198.559 Q2202.79 194.879 2201.35 193.05 Q2199.92 191.222 2197.05 191.222 Q2193.6 191.222 2191.61 193.421 Q2189.62 195.62 2189.62 199.416 L2189.62 214.069 L2185.33 214.069 L2185.33 188.143 L2189.62 188.143 L2189.62 192.171 Q2191.14 189.833 2193.2 188.675 Q2195.29 187.518 2198 187.518 Q2202.46 187.518 2204.75 190.296 Q2207.05 193.05 2207.05 198.421 Z" fill="#000000" fill-rule="nonzero" fill-opacity="1" /><path clip-path="url(#clip840)" d="M2232.6 200.805 Q2232.6 196.175 2230.68 193.629 Q2228.78 191.083 2225.33 191.083 Q2221.91 191.083 2219.99 193.629 Q2218.09 196.175 2218.09 200.805 Q2218.09 205.411 2219.99 207.958 Q2221.91 210.504 2225.33 210.504 Q2228.78 210.504 2230.68 207.958 Q2232.6 205.411 2232.6 200.805 M2236.86 210.851 Q2236.86 217.471 2233.92 220.689 Q2230.98 223.93 2224.92 223.93 Q2222.67 223.93 2220.68 223.582 Q2218.69 223.258 2216.81 222.564 L2216.81 218.42 Q2218.69 219.439 2220.52 219.925 Q2222.35 220.411 2224.24 220.411 Q2228.43 220.411 2230.52 218.212 Q2232.6 216.036 2232.6 211.615 L2232.6 209.508 Q2231.28 211.8 2229.22 212.934 Q2227.16 214.069 2224.29 214.069 Q2219.52 214.069 2216.61 210.434 Q2213.69 206.8 2213.69 200.805 Q2213.69 194.786 2216.61 191.152 Q2219.52 187.518 2224.29 187.518 Q2227.16 187.518 2229.22 188.652 Q2231.28 189.786 2232.6 192.078 L2232.6 188.143 L2236.86 188.143 L2236.86 210.851 Z" fill="#000000" fill-rule="nonzero" fill-opacity="1" /></svg>
